SplineFontDB: 3.0
FontName: mononoki-Powerline
FullName: mononoki for powerline
FamilyName: mononoki
Weight: Regular
Copyright: Copyright (c) 2015 by Matthias Tellen. All rights reserved.
Version: 1.000
ItalicAngle: 0
UnderlinePosition: -100
UnderlineWidth: 50
Ascent: 819
Descent: 205
InvalidEm: 0
sfntRevision: 0x00010000
LayerCount: 2
Layer: 0 1 "Back" 1
Layer: 1 1 "Fore" 0
NeedsXUIDChange: 1
XUID: [1021 117 -989999230 14190010]
UseXUID: 1
StyleMap: 0x0000
FSType: 8
OS2Version: 3
OS2_WeightWidthSlopeOnly: 0
OS2_UseTypoMetrics: 0
CreationTime: 1451061782
ModificationTime: 1464725532
PfmFamily: 81
TTFWeight: 400
TTFWidth: 5
LineGap: 0
VLineGap: 0
Panose: 0 0 5 9 0 0 0 0 0 0
OS2TypoAscent: 750
OS2TypoAOffset: 0
OS2TypoDescent: -250
OS2TypoDOffset: 0
OS2TypoLinegap: 229
OS2WinAscent: 900
OS2WinAOffset: 0
OS2WinDescent: 250
OS2WinDOffset: 0
HheadAscent: 900
HheadAOffset: 0
HheadDescent: -250
HheadDOffset: 0
OS2SubXSize: 665
OS2SubYSize: 614
OS2SubXOff: 0
OS2SubYOff: 76
OS2SupXSize: 665
OS2SupYSize: 614
OS2SupXOff: 0
OS2SupYOff: 358
OS2StrikeYSize: 50
OS2StrikeYPos: 300
OS2CapHeight: 700
OS2XHeight: 500
OS2Vendor: 'UKWN'
OS2CodePages: 20000083.00000000
OS2UnicodeRanges: 00000007.00000000.00000000.00000000
Lookup: 1 0 0 "" { } []
MarkAttachClasses: 1
DEI: 91125
TtTable: prep
SVTCA[y-axis]
MPPEM
PUSHW_1
 200
GT
IF
PUSHB_2
 1
 1
INSTCTRL
EIF
PUSHB_1
 1
PUSHW_2
 2048
 2048
MUL
WCVTF
PUSHB_2
 0
 6
WS
PUSHB_4
 47
 27
 2
 0
LOOPCALL
PUSHB_2
 0
 6
WS
PUSHB_6
 34
 8
 14
 8
 2
 8
LOOPCALL
PUSHB_2
 0
 6
WS
PUSHB_6
 44
 6
 24
 6
 2
 8
LOOPCALL
PUSHB_2
 0
 8
WS
PUSHW_4
 2240
 960
 2
 9
LOOPCALL
PUSHB_2
 0
 10
WS
PUSHW_4
 64
 64
 2
 9
LOOPCALL
PUSHB_2
 3
 0
WCVTP
PUSHB_2
 36
 1
GETINFO
LTEQ
IF
PUSHB_1
 64
GETINFO
IF
PUSHB_2
 3
 100
WCVTP
PUSHB_2
 38
 1
GETINFO
LTEQ
IF
PUSHW_3
 2176
 1
 1088
GETINFO
MUL
EQ
IF
PUSHB_2
 3
 0
WCVTP
EIF
EIF
EIF
EIF
PUSHB_6
 36
 8
 16
 8
 2
 12
LOOPCALL
PUSHW_1
 511
SCANCTRL
PUSHB_1
 4
SCANTYPE
PUSHB_2
 2
 0
WCVTP
PUSHB_2
 5
 100
WCVTP
EndTTInstrs

StartChar: .notdef
Encoding: 65536 -1 0
Width: 575
Flags: W
LayerCount: 2
Fore
SplineSet
508 675 m 2,1,-1
 508 25 l 2,2,3
 508 0 508 0 483 0 c 2,4,-1
 92 0 l 2,5,6
 67 0 67 0 67 25 c 2,7,-1
 67 675 l 2,8,9
 67 700 67 700 92 700 c 2,10,-1
 483 700 l 2,11,0
 508 700 508 700 508 675 c 2,1,-1
288 395 m 1,12,-1
 439 651 l 1,13,-1
 137 651 l 1,14,-1
 288 395 l 1,12,-1
261 350 m 1,15,-1
 116 596 l 1,16,-1
 116 105 l 1,17,-1
 261 350 l 1,15,-1
460 596 m 1,18,-1
 314 350 l 1,19,-1
 460 105 l 1,20,-1
 460 596 l 1,18,-1
439 49 m 1,21,-1
 288 306 l 1,22,-1
 137 49 l 1,23,-1
 439 49 l 1,21,-1
EndSplineSet
Validated: 1
EndChar

StartChar: A
Encoding: 65 65 2
Width: 575
Flags: W
LayerCount: 2
Fore
SplineSet
559 19 m 0,1,2
 559 0 559 0 537 0 c 2,3,-1
 501 0 l 2,4,5
 479 0 479 0 473 22 c 2,6,-1
 424 220 l 1,7,-1
 152 220 l 1,8,-1
 102 22 l 2,9,10
 98 0 98 0 74 0 c 2,11,-1
 39 0 l 2,12,13
 28 0 28 0 22 5.5 c 128,-1,14
 16 11 16 11 16 20 c 0,15,16
 16 25 16 25 17 28 c 2,17,-1
 165 621 l 2,18,19
 176 664 176 664 209.5 687 c 128,-1,20
 243 710 243 710 288 710 c 256,21,22
 333 710 333 710 366.5 686.5 c 128,-1,23
 400 663 400 663 410 621 c 2,24,-1
 558 28 l 2,25,0
 559 25 559 25 559 19 c 0,1,2
405 296 m 1,26,-1
 327 607 l 2,27,28
 324 620 324 620 313 627 c 128,-1,29
 302 634 302 634 288 634 c 256,30,31
 274 634 274 634 263 627 c 128,-1,32
 252 620 252 620 249 607 c 2,33,-1
 171 296 l 1,34,-1
 405 296 l 1,26,-1
EndSplineSet
Validated: 1
EndChar

StartChar: Aogonek
Encoding: 260 260 9
Width: 575
Flags: W
LayerCount: 2
Fore
SplineSet
559 19 m 0,1,2
 559 0 559 0 537 0 c 2,3,-1
 501 0 l 2,4,5
 493 0 493 0 487 3 c 1,6,7
 486 -3 486 -3 483 -20 c 128,-1,8
 480 -37 480 -37 480 -48 c 0,9,10
 480 -85 480 -85 487 -107.5 c 128,-1,11
 494 -130 494 -130 509 -147 c 0,12,13
 517 -158 517 -158 517 -166 c 0,14,15
 517 -173 517 -173 509 -183 c 2,16,-1
 488 -206 l 2,17,18
 480 -216 480 -216 471 -216 c 256,19,20
 462 -216 462 -216 453 -207 c 0,21,22
 426 -180 426 -180 410.5 -146.5 c 128,-1,23
 395 -113 395 -113 395 -78 c 0,24,25
 395 -47 395 -47 405 -20.5 c 128,-1,26
 415 6 415 6 450 33 c 0,27,28
 460 40 460 40 468 40 c 1,29,-1
 424 220 l 1,30,-1
 152 220 l 1,31,-1
 102 22 l 2,32,33
 98 0 98 0 74 0 c 2,34,-1
 39 0 l 2,35,36
 28 0 28 0 22 5.5 c 128,-1,37
 16 11 16 11 16 20 c 0,38,39
 16 25 16 25 17 28 c 2,40,-1
 165 621 l 2,41,42
 176 664 176 664 209.5 687 c 128,-1,43
 243 710 243 710 288 710 c 256,44,45
 333 710 333 710 366.5 686.5 c 128,-1,46
 400 663 400 663 410 621 c 2,47,-1
 558 28 l 2,48,0
 559 25 559 25 559 19 c 0,1,2
405 296 m 1,49,-1
 327 607 l 2,50,51
 324 620 324 620 313 627 c 128,-1,52
 302 634 302 634 288 634 c 256,53,54
 274 634 274 634 263 627 c 128,-1,55
 252 620 252 620 249 607 c 2,56,-1
 171 296 l 1,57,-1
 405 296 l 1,49,-1
EndSplineSet
Validated: 1
EndChar

StartChar: Aring
Encoding: 197 197 10
Width: 575
Flags: W
LayerCount: 2
Fore
SplineSet
559 19 m 0,1,2
 559 0 559 0 537 0 c 2,3,-1
 501 0 l 2,4,5
 479 0 479 0 473 22 c 2,6,-1
 424 220 l 1,7,-1
 152 220 l 1,8,-1
 102 22 l 2,9,10
 98 0 98 0 74 0 c 2,11,-1
 39 0 l 2,12,13
 28 0 28 0 22 5.5 c 128,-1,14
 16 11 16 11 16 20 c 0,15,16
 16 25 16 25 17 28 c 2,17,-1
 165 621 l 2,18,19
 175 659 175 659 203 681.5 c 128,-1,20
 231 704 231 704 270 709 c 1,21,22
 227 713 227 713 203 738.5 c 128,-1,23
 179 764 179 764 179 804 c 0,24,25
 179 848 179 848 208.5 874 c 128,-1,26
 238 900 238 900 288 900 c 256,27,28
 338 900 338 900 367.5 874 c 128,-1,29
 397 848 397 848 397 804 c 0,30,31
 397 764 397 764 373 738.5 c 128,-1,32
 349 713 349 713 306 709 c 1,33,34
 345 704 345 704 372.5 681.5 c 128,-1,35
 400 659 400 659 410 621 c 2,36,-1
 558 28 l 2,37,0
 559 25 559 25 559 19 c 0,1,2
264 778.5 m 128,-1,39
 273 769 273 769 288 769 c 256,40,41
 303 769 303 769 311.5 778.5 c 128,-1,42
 320 788 320 788 320 804 c 256,43,44
 320 820 320 820 311.5 829.5 c 128,-1,45
 303 839 303 839 288 839 c 256,46,47
 273 839 273 839 264 829.5 c 128,-1,48
 255 820 255 820 255 804 c 256,49,38
 255 788 255 788 264 778.5 c 128,-1,39
405 296 m 1,50,-1
 327 607 l 2,51,52
 324 620 324 620 313 627 c 128,-1,53
 302 634 302 634 288 634 c 256,54,55
 274 634 274 634 263 627 c 128,-1,56
 252 620 252 620 249 607 c 2,57,-1
 171 296 l 1,58,-1
 405 296 l 1,50,-1
EndSplineSet
Validated: 1
EndChar

StartChar: AE
Encoding: 198 198 12
Width: 575
Flags: W
LayerCount: 2
Fore
SplineSet
518 52 m 2,1,-1
 518 25 l 2,2,3
 518 0 518 0 493 0 c 2,4,-1
 313 0 l 2,5,6
 288 0 288 0 288 25 c 2,7,-1
 288 170 l 1,8,-1
 139 170 l 1,9,-1
 102 22 l 2,10,11
 98 0 98 0 74 0 c 2,12,-1
 39 0 l 2,13,14
 28 0 28 0 22 5.5 c 128,-1,15
 16 11 16 11 16 20 c 0,16,17
 16 25 16 25 17 28 c 2,18,-1
 165 621 l 2,19,20
 176 663 176 663 206.5 681.5 c 128,-1,21
 237 700 237 700 288 700 c 2,22,-1
 482 700 l 2,23,24
 507 700 507 700 507 675 c 2,25,-1
 507 649 l 2,26,27
 507 624 507 624 482 624 c 2,28,-1
 373 624 l 1,29,-1
 373 403 l 1,30,-1
 475 403 l 2,31,32
 500 403 500 403 500 378 c 2,33,-1
 500 351 l 2,34,35
 500 326 500 326 475 326 c 2,36,-1
 373 326 l 1,37,-1
 373 77 l 1,38,-1
 493 77 l 2,39,0
 518 77 518 77 518 52 c 2,1,-1
262 627 m 128,-1,41
 252 620 252 620 249 607 c 2,42,-1
 158 246 l 1,43,-1
 288 246 l 1,44,-1
 288 634 l 1,45,40
 272 634 272 634 262 627 c 128,-1,41
EndSplineSet
Validated: 1
EndChar

StartChar: B
Encoding: 66 66 13
Width: 575
Flags: W
LayerCount: 2
Fore
SplineSet
64 624 m 2,0,1
 39 624 39 624 39 649 c 2,2,-1
 39 675 l 2,3,4
 39 700 39 700 64 700 c 2,5,-1
 244 700 l 2,6,7
 321 700 321 700 372.5 674 c 128,-1,8
 424 648 424 648 448.5 607 c 128,-1,9
 473 566 473 566 473 521 c 0,10,11
 473 472 473 472 446.5 431 c 128,-1,12
 420 390 420 390 382 370 c 1,13,14
 442 348 442 348 477.5 300.5 c 128,-1,15
 513 253 513 253 513 196 c 0,16,17
 513 145 513 145 483.5 100 c 128,-1,18
 454 55 454 55 397.5 27.5 c 128,-1,19
 341 0 341 0 264 0 c 2,20,-1
 127 0 l 2,21,22
 102 0 102 0 102 25 c 2,23,-1
 102 624 l 1,24,-1
 64 624 l 2,0,1
244 403 m 2,25,26
 316 403 316 403 357 434 c 128,-1,27
 398 465 398 465 398 511 c 0,28,29
 398 539 398 539 381.5 565 c 128,-1,30
 365 591 365 591 330.5 607.5 c 128,-1,31
 296 624 296 624 244 624 c 2,32,-1
 187 624 l 1,33,-1
 187 403 l 1,34,-1
 244 403 l 2,25,26
358.5 94.5 m 128,-1,36
 398 112 398 112 417.5 140.5 c 128,-1,37
 437 169 437 169 437 201 c 256,38,39
 437 233 437 233 417.5 261.5 c 128,-1,40
 398 290 398 290 358.5 308 c 128,-1,41
 319 326 319 326 264 326 c 2,42,-1
 187 326 l 1,43,-1
 187 77 l 1,44,-1
 264 77 l 2,45,35
 319 77 319 77 358.5 94.5 c 128,-1,36
EndSplineSet
Validated: 1
EndChar

StartChar: C
Encoding: 67 67 14
Width: 575
Flags: W
LayerCount: 2
Fore
SplineSet
491 53 m 2,0,1
 494 47 494 47 494 41 c 0,2,3
 494 26 494 26 478 20 c 0,4,5
 408 -10 408 -10 340 -10 c 0,6,7
 274 -10 274 -10 216.5 20 c 128,-1,8
 159 50 159 50 122 121.5 c 128,-1,9
 85 193 85 193 85 310 c 2,10,-1
 85 390 l 2,11,12
 85 507 85 507 122 578.5 c 128,-1,13
 159 650 159 650 216.5 680 c 128,-1,14
 274 710 274 710 340 710 c 0,15,16
 407 710 407 710 478 680 c 0,17,18
 494 674 494 674 494 659 c 0,19,20
 494 653 494 653 491 647 c 2,21,-1
 481 623 l 2,22,23
 475 607 475 607 460 607 c 0,24,25
 453 607 453 607 449 609 c 0,26,27
 386 632 386 632 338 632 c 0,28,29
 267 632 267 632 219 578 c 128,-1,30
 171 524 171 524 171 390 c 2,31,-1
 171 310 l 2,32,33
 171 176 171 176 219 122 c 128,-1,34
 267 68 267 68 338 68 c 0,35,36
 386 68 386 68 449 91 c 0,37,38
 453 93 453 93 460 93 c 0,39,40
 475 93 475 93 481 77 c 2,41,-1
 491 53 l 2,0,1
EndSplineSet
Validated: 1
EndChar

StartChar: Ccedilla
Encoding: 199 199 17
Width: 575
Flags: W
LayerCount: 2
Fore
SplineSet
480 -82.5 m 128,-1,1
 509 -104 509 -104 509 -135 c 0,2,3
 509 -162 509 -162 487.5 -187.5 c 128,-1,4
 466 -213 466 -213 423 -229.5 c 128,-1,5
 380 -246 380 -246 321 -246 c 0,6,7
 287 -246 287 -246 243 -235 c 0,8,9
 225 -229 225 -229 225 -214 c 0,10,11
 225 -207 225 -207 227 -203 c 2,12,-1
 231 -192 l 2,13,14
 238 -170 238 -170 262 -175 c 0,15,16
 294 -181 294 -181 321 -181 c 0,17,18
 364 -181 364 -181 388 -169 c 128,-1,19
 412 -157 412 -157 412 -142 c 0,20,21
 412 -132 412 -132 400.5 -125.5 c 128,-1,22
 389 -119 389 -119 367 -119 c 0,23,24
 360 -119 360 -119 340 -121 c 2,25,-1
 332 -122 l 2,26,27
 318 -122 318 -122 307 -111 c 2,28,-1
 279 -82 l 2,29,30
 270 -73 270 -73 270 -62 c 0,31,32
 270 -56 270 -56 273 -48 c 2,33,-1
 293 -6 l 1,34,35
 203 9 203 9 144 84.5 c 128,-1,36
 85 160 85 160 85 310 c 2,37,-1
 85 390 l 2,38,39
 85 507 85 507 122 578.5 c 128,-1,40
 159 650 159 650 216.5 680 c 128,-1,41
 274 710 274 710 340 710 c 0,42,43
 407 710 407 710 478 680 c 0,44,45
 494 674 494 674 494 659 c 0,46,47
 494 653 494 653 491 647 c 2,48,-1
 481 623 l 2,49,50
 475 607 475 607 460 607 c 0,51,52
 453 607 453 607 449 609 c 0,53,54
 386 632 386 632 338 632 c 0,55,56
 267 632 267 632 219 578 c 128,-1,57
 171 524 171 524 171 390 c 2,58,-1
 171 310 l 2,59,60
 171 176 171 176 219 122 c 128,-1,61
 267 68 267 68 338 68 c 0,62,63
 386 68 386 68 449 91 c 0,64,65
 453 93 453 93 460 93 c 0,66,67
 475 93 475 93 481 77 c 2,68,-1
 491 53 l 2,69,70
 494 47 494 47 494 41 c 0,71,72
 494 26 494 26 478 20 c 0,73,74
 418 -6 418 -6 362 -9 c 1,75,-1
 359 -17 l 1,76,-1
 336 -68 l 1,77,78
 368 -61 368 -61 397 -61 c 0,79,0
 451 -61 451 -61 480 -82.5 c 128,-1,1
EndSplineSet
Validated: 33
EndChar

StartChar: D
Encoding: 68 68 18
Width: 575
Flags: W
LayerCount: 2
Fore
SplineSet
355.5 671 m 128,-1,1
 436 642 436 642 476.5 570 c 128,-1,2
 517 498 517 498 517 370 c 2,3,-1
 517 330 l 2,4,5
 517 213 517 213 485.5 141 c 128,-1,6
 454 69 454 69 381 34.5 c 128,-1,7
 308 0 308 0 183 0 c 2,8,-1
 127 0 l 2,9,10
 102 0 102 0 102 25 c 2,11,-1
 102 624 l 1,12,-1
 64 624 l 2,13,14
 39 624 39 624 39 649 c 2,15,-1
 39 675 l 2,16,17
 39 700 39 700 64 700 c 2,18,-1
 144 700 l 2,19,0
 275 700 275 700 355.5 671 c 128,-1,1
375.5 558 m 128,-1,21
 319 619 319 619 187 623 c 1,22,-1
 187 77 l 1,23,24
 275 77 275 77 328.5 102.5 c 128,-1,25
 382 128 382 128 407 183 c 128,-1,26
 432 238 432 238 432 330 c 2,27,-1
 432 370 l 2,28,20
 432 497 432 497 375.5 558 c 128,-1,21
EndSplineSet
Validated: 1
EndChar

StartChar: Eth
Encoding: 208 208 19
Width: 575
Flags: W
LayerCount: 2
Fore
SplineSet
355.5 671 m 128,-1,1
 436 642 436 642 476.5 570 c 128,-1,2
 517 498 517 498 517 370 c 2,3,-1
 517 330 l 2,4,5
 517 213 517 213 485.5 141 c 128,-1,6
 454 69 454 69 381 34.5 c 128,-1,7
 308 0 308 0 183 0 c 2,8,-1
 127 0 l 2,9,10
 102 0 102 0 102 25 c 2,11,-1
 102 312 l 1,12,-1
 67 312 l 2,13,14
 42 312 42 312 42 337 c 2,15,-1
 42 363 l 2,16,17
 42 389 42 389 67 389 c 2,18,-1
 102 389 l 1,19,-1
 102 624 l 1,20,-1
 64 624 l 2,21,22
 39 624 39 624 39 649 c 2,23,-1
 39 675 l 2,24,25
 39 700 39 700 64 700 c 2,26,-1
 144 700 l 2,27,0
 275 700 275 700 355.5 671 c 128,-1,1
432 370 m 2,28,29
 432 497 432 497 375.5 558 c 128,-1,30
 319 619 319 619 187 623 c 1,31,-1
 187 389 l 1,32,-1
 290 389 l 2,33,34
 315 389 315 389 315 364 c 2,35,-1
 315 337 l 2,36,37
 315 312 315 312 290 312 c 2,38,-1
 187 312 l 1,39,-1
 187 77 l 1,40,41
 275 77 275 77 328.5 102.5 c 128,-1,42
 382 128 382 128 407 183 c 128,-1,43
 432 238 432 238 432 330 c 2,44,-1
 432 370 l 2,28,29
EndSplineSet
Validated: 1
EndChar

StartChar: E
Encoding: 69 69 22
Width: 575
Flags: W
LayerCount: 2
Fore
SplineSet
516 52 m 2,1,-1
 516 25 l 2,2,3
 516 0 516 0 491 0 c 2,4,-1
 110 0 l 2,5,6
 85 0 85 0 85 25 c 2,7,-1
 85 675 l 2,8,9
 85 700 85 700 110 700 c 2,10,-1
 469 700 l 2,11,12
 494 700 494 700 494 675 c 2,13,-1
 494 649 l 2,14,15
 494 624 494 624 469 624 c 2,16,-1
 170 624 l 1,17,-1
 170 403 l 1,18,-1
 448 403 l 2,19,20
 473 403 473 403 473 378 c 2,21,-1
 473 351 l 2,22,23
 473 326 473 326 448 326 c 2,24,-1
 170 326 l 1,25,-1
 170 77 l 1,26,-1
 491 77 l 2,27,0
 516 77 516 77 516 52 c 2,1,-1
EndSplineSet
Validated: 1
EndChar

StartChar: Eogonek
Encoding: 280 280 30
Width: 575
Flags: W
LayerCount: 2
Fore
SplineSet
518 -175 m 0,1,2
 518 -182 518 -182 510 -192 c 2,3,-1
 489 -215 l 2,4,5
 481 -225 481 -225 472 -225 c 256,6,7
 463 -225 463 -225 454 -216 c 0,8,9
 427 -189 427 -189 411.5 -155.5 c 128,-1,10
 396 -122 396 -122 396 -87 c 0,11,12
 396 -62 396 -62 401 -41.5 c 128,-1,13
 406 -21 406 -21 425 0 c 1,14,-1
 110 0 l 2,15,16
 85 0 85 0 85 25 c 2,17,-1
 85 675 l 2,18,19
 85 700 85 700 110 700 c 2,20,-1
 469 700 l 2,21,22
 494 700 494 700 494 675 c 2,23,-1
 494 649 l 2,24,25
 494 624 494 624 469 624 c 2,26,-1
 170 624 l 1,27,-1
 170 403 l 1,28,-1
 448 403 l 2,29,30
 473 403 473 403 473 378 c 2,31,-1
 473 351 l 2,32,33
 473 326 473 326 448 326 c 2,34,-1
 170 326 l 1,35,-1
 170 77 l 1,36,-1
 491 77 l 2,37,38
 516 77 516 77 516 52 c 2,39,-1
 516 25 l 2,40,41
 516 0 516 0 491 0 c 2,42,-1
 490 0 l 1,43,44
 481 -45 481 -45 481 -57 c 0,45,46
 481 -94 481 -94 488 -116.5 c 128,-1,47
 495 -139 495 -139 510 -156 c 0,48,0
 518 -167 518 -167 518 -175 c 0,1,2
EndSplineSet
Validated: 1
EndChar

StartChar: F
Encoding: 70 70 31
Width: 575
Flags: W
LayerCount: 2
Fore
SplineSet
516 675 m 2,1,-1
 516 649 l 2,2,3
 516 624 516 624 491 624 c 2,4,-1
 170 624 l 1,5,-1
 170 368 l 1,6,-1
 469 368 l 2,7,8
 494 368 494 368 494 343 c 2,9,-1
 494 316 l 2,10,11
 494 292 494 292 469 292 c 2,12,-1
 170 292 l 1,13,-1
 170 25 l 2,14,15
 170 0 170 0 145 0 c 2,16,-1
 110 0 l 2,17,18
 85 0 85 0 85 25 c 2,19,-1
 85 675 l 2,20,21
 85 700 85 700 110 700 c 2,22,-1
 491 700 l 2,23,0
 516 700 516 700 516 675 c 2,1,-1
EndSplineSet
Validated: 1
EndChar

StartChar: G
Encoding: 71 71 32
Width: 575
Flags: W
LayerCount: 2
Fore
SplineSet
500 374 m 2,1,-1
 500 51 l 2,2,3
 500 30 500 30 481 21 c 0,4,5
 409 -10 409 -10 340 -10 c 0,6,7
 274 -10 274 -10 216.5 20 c 128,-1,8
 159 50 159 50 122 121.5 c 128,-1,9
 85 193 85 193 85 310 c 2,10,-1
 85 390 l 2,11,12
 85 507 85 507 122 578.5 c 128,-1,13
 159 650 159 650 216.5 680 c 128,-1,14
 274 710 274 710 340 710 c 0,15,16
 407 710 407 710 478 680 c 0,17,18
 494 674 494 674 494 659 c 0,19,20
 494 653 494 653 491 647 c 2,21,-1
 481 623 l 2,22,23
 475 607 475 607 460 607 c 0,24,25
 453 607 453 607 449 609 c 0,26,27
 386 632 386 632 338 632 c 0,28,29
 267 632 267 632 219 578 c 128,-1,30
 171 524 171 524 171 390 c 2,31,-1
 171 310 l 2,32,33
 171 176 171 176 219 122 c 128,-1,34
 267 68 267 68 338 68 c 0,35,36
 372 68 372 68 415 80 c 1,37,-1
 415 322 l 1,38,-1
 343 322 l 2,39,40
 318 322 318 322 318 347 c 2,41,-1
 318 373 l 2,42,43
 318 399 318 399 343 399 c 2,44,-1
 475 399 l 2,45,0
 500 399 500 399 500 374 c 2,1,-1
EndSplineSet
Validated: 1
EndChar

StartChar: H
Encoding: 72 72 33
Width: 575
Flags: W
LayerCount: 2
Fore
SplineSet
507 675 m 2,1,-1
 507 25 l 2,2,3
 507 0 507 0 482 0 c 2,4,-1
 447 0 l 2,5,6
 422 0 422 0 422 25 c 2,7,-1
 422 333 l 1,8,-1
 153 333 l 1,9,-1
 153 25 l 2,10,11
 153 0 153 0 128 0 c 2,12,-1
 93 0 l 2,13,14
 68 0 68 0 68 25 c 2,15,-1
 68 675 l 2,16,17
 68 700 68 700 93 700 c 2,18,-1
 128 700 l 2,19,20
 153 700 153 700 153 675 c 2,21,-1
 153 410 l 1,22,-1
 422 410 l 1,23,-1
 422 675 l 2,24,25
 422 700 422 700 447 700 c 2,26,-1
 482 700 l 2,27,0
 507 700 507 700 507 675 c 2,1,-1
EndSplineSet
Validated: 1
EndChar

StartChar: I
Encoding: 73 73 34
Width: 575
Flags: W
LayerCount: 2
Fore
SplineSet
480 675 m 2,1,-1
 480 649 l 2,2,3
 480 624 480 624 455 624 c 2,4,-1
 330 624 l 1,5,-1
 330 77 l 1,6,-1
 465 77 l 2,7,8
 490 77 490 77 490 52 c 2,9,-1
 490 25 l 2,10,11
 490 0 490 0 465 0 c 2,12,-1
 110 0 l 2,13,14
 85 0 85 0 85 25 c 2,15,-1
 85 52 l 2,16,17
 85 77 85 77 110 77 c 2,18,-1
 245 77 l 1,19,-1
 245 624 l 1,20,-1
 120 624 l 2,21,22
 95 624 95 624 95 649 c 2,23,-1
 95 675 l 2,24,25
 95 700 95 700 120 700 c 2,26,-1
 455 700 l 2,27,0
 480 700 480 700 480 675 c 2,1,-1
EndSplineSet
Validated: 1
EndChar

StartChar: IJ
Encoding: 306 306 35
Width: 575
Flags: W
LayerCount: 2
Fore
SplineSet
250 675 m 2,1,-1
 250 649 l 2,2,3
 250 624 250 624 225 624 c 2,4,-1
 200 624 l 1,5,-1
 200 77 l 1,6,-1
 235 77 l 2,7,8
 260 77 260 77 260 52 c 2,9,-1
 260 25 l 2,10,11
 260 0 260 0 235 0 c 2,12,-1
 80 0 l 2,13,14
 55 0 55 0 55 25 c 2,15,-1
 55 52 l 2,16,17
 55 77 55 77 80 77 c 2,18,-1
 115 77 l 1,19,-1
 115 624 l 1,20,-1
 90 624 l 2,21,22
 65 624 65 624 65 649 c 2,23,-1
 65 675 l 2,24,25
 65 700 65 700 90 700 c 2,26,-1
 225 700 l 2,27,0
 250 700 250 700 250 675 c 2,1,-1
490 675 m 2,29,-1
 490 125 l 2,30,31
 490 53 490 53 454 27 c 128,-1,32
 418 1 418 1 341 1 c 0,33,34
 315 1 315 1 315 25 c 2,35,-1
 315 52 l 2,36,37
 315 77 315 77 340 77 c 0,38,39
 371 77 371 77 388 87.5 c 128,-1,40
 405 98 405 98 405 125 c 2,41,-1
 405 624 l 1,42,-1
 352 624 l 2,43,44
 327 624 327 624 327 649 c 2,45,-1
 327 675 l 2,46,47
 327 700 327 700 352 700 c 2,48,-1
 465 700 l 2,49,28
 490 700 490 700 490 675 c 2,29,-1
EndSplineSet
Validated: 1
EndChar

StartChar: Iogonek
Encoding: 302 302 41
Width: 575
Flags: W
LayerCount: 2
Fore
SplineSet
518 -171 m 0,1,2
 518 -178 518 -178 510 -188 c 2,3,-1
 489 -211 l 2,4,5
 481 -221 481 -221 472 -221 c 256,6,7
 463 -221 463 -221 454 -212 c 0,8,9
 427 -185 427 -185 411.5 -151.5 c 128,-1,10
 396 -118 396 -118 396 -83 c 0,11,12
 396 -60 396 -60 400.5 -40.5 c 128,-1,13
 405 -21 405 -21 422 0 c 1,14,-1
 110 0 l 2,15,16
 85 0 85 0 85 25 c 2,17,-1
 85 52 l 2,18,19
 85 77 85 77 110 77 c 2,20,-1
 245 77 l 1,21,-1
 245 624 l 1,22,-1
 120 624 l 2,23,24
 95 624 95 624 95 649 c 2,25,-1
 95 675 l 2,26,27
 95 700 95 700 120 700 c 2,28,-1
 455 700 l 2,29,30
 480 700 480 700 480 675 c 2,31,-1
 480 649 l 2,32,33
 480 624 480 624 455 624 c 2,34,-1
 330 624 l 1,35,-1
 330 77 l 1,36,-1
 465 77 l 2,37,38
 490 77 490 77 490 52 c 2,39,-1
 490 26 l 2,40,41
 492 22 492 22 492 18 c 2,42,-1
 490 6 l 2,43,44
 481 -39 481 -39 481 -53 c 0,45,46
 481 -90 481 -90 488 -112.5 c 128,-1,47
 495 -135 495 -135 510 -152 c 0,48,0
 518 -163 518 -163 518 -171 c 0,1,2
EndSplineSet
Validated: 1
EndChar

StartChar: J
Encoding: 74 74 42
Width: 575
Flags: W
LayerCount: 2
Fore
SplineSet
490 675 m 2,1,-1
 490 270 l 2,2,3
 490 124 490 124 419.5 57 c 128,-1,4
 349 -10 349 -10 243 -10 c 0,5,6
 168 -10 168 -10 97 20 c 0,7,8
 81 26 81 26 81 41 c 0,9,10
 81 47 81 47 84 53 c 2,11,-1
 94 77 l 2,12,13
 100 93 100 93 115 93 c 0,14,15
 122 93 122 93 126 91 c 0,16,17
 189 68 189 68 237 68 c 0,18,19
 306 68 306 68 355 115.5 c 128,-1,20
 404 163 404 163 404 270 c 2,21,-1
 404 622 l 1,22,-1
 185 622 l 2,23,24
 160 622 160 622 160 647 c 2,25,-1
 160 675 l 2,26,27
 160 700 160 700 185 700 c 2,28,-1
 465 700 l 2,29,0
 490 700 490 700 490 675 c 2,1,-1
EndSplineSet
Validated: 1
EndChar

StartChar: K
Encoding: 75 75 43
Width: 575
Flags: W
LayerCount: 2
Fore
SplineSet
413 16 m 2,1,-1
 191 323 l 1,2,-1
 170 323 l 1,3,-1
 170 25 l 2,4,5
 170 0 170 0 145 0 c 2,6,-1
 110 0 l 2,7,8
 85 0 85 0 85 25 c 2,9,-1
 85 675 l 2,10,11
 85 700 85 700 110 700 c 2,12,-1
 145 700 l 2,13,14
 170 700 170 700 170 675 c 2,15,-1
 170 399 l 1,16,-1
 192 399 l 1,17,-1
 397 685 l 2,18,19
 408 700 408 700 427 700 c 2,20,-1
 480 700 l 2,21,22
 490 700 490 700 496 696 c 128,-1,23
 502 692 502 692 502 686 c 0,24,25
 502 681 502 681 495 670 c 2,26,-1
 263 360 l 1,27,-1
 510 31 l 2,28,29
 517 21 517 21 517 15 c 0,30,31
 517 8 517 8 511 4 c 128,-1,32
 505 0 505 0 495 0 c 2,33,-1
 443 0 l 2,34,0
 423 0 423 0 413 16 c 2,1,-1
EndSplineSet
Validated: 1
EndChar

StartChar: L
Encoding: 76 76 44
Width: 575
Flags: W
LayerCount: 2
Fore
SplineSet
554 52 m 2,1,-1
 554 25 l 2,2,3
 554 0 554 0 529 0 c 2,4,-1
 110 0 l 2,5,6
 85 0 85 0 85 25 c 2,7,-1
 85 675 l 2,8,9
 85 700 85 700 110 700 c 2,10,-1
 145 700 l 2,11,12
 170 700 170 700 170 675 c 2,13,-1
 170 77 l 1,14,-1
 529 77 l 2,15,0
 554 77 554 77 554 52 c 2,1,-1
EndSplineSet
Validated: 1
EndChar

StartChar: M
Encoding: 77 77 48
Width: 575
Flags: W
LayerCount: 2
Fore
SplineSet
545 26 m 2,0,1
 545 15 545 15 537.5 7.5 c 128,-1,2
 530 0 530 0 519 0 c 2,3,-1
 485 0 l 2,4,5
 474 0 474 0 467.5 7 c 128,-1,6
 461 14 461 14 460 26 c 2,7,-1
 442 540 l 1,8,-1
 331 318 l 2,9,10
 323 300 323 300 302 300 c 2,11,-1
 274 300 l 2,12,13
 253 300 253 300 245 318 c 2,14,-1
 134 540 l 1,15,-1
 116 26 l 2,16,17
 115 14 115 14 108.5 7 c 128,-1,18
 102 0 102 0 91 0 c 2,19,-1
 57 0 l 2,20,21
 46 0 46 0 38.5 7.5 c 128,-1,22
 31 15 31 15 31 26 c 2,23,-1
 51 680 l 2,24,25
 51 705 51 705 78 705 c 2,26,-1
 94 705 l 2,27,28
 136 705 136 705 153 669 c 2,29,-1
 288 399 l 1,30,-1
 423 669 l 2,31,32
 440 705 440 705 482 705 c 2,33,-1
 498 705 l 2,34,35
 525 705 525 705 525 680 c 2,36,-1
 545 26 l 2,0,1
EndSplineSet
Validated: 1
EndChar

StartChar: N
Encoding: 78 78 49
Width: 575
Flags: W
LayerCount: 2
Fore
SplineSet
498.5 692.5 m 128,-1,1
 506 685 506 685 506 674 c 2,2,-1
 506 25 l 2,3,4
 506 0 506 0 479 0 c 2,5,-1
 463 0 l 2,6,7
 442 0 442 0 428 8.5 c 128,-1,8
 414 17 414 17 404 36 c 2,9,-1
 154 527 l 1,10,-1
 154 26 l 2,11,12
 154 15 154 15 147 7.5 c 128,-1,13
 140 0 140 0 129 0 c 2,14,-1
 95 0 l 2,15,16
 84 0 84 0 76.5 7.5 c 128,-1,17
 69 15 69 15 69 26 c 2,18,-1
 69 675 l 2,19,20
 69 700 69 700 96 700 c 2,21,-1
 112 700 l 2,22,23
 135 700 135 700 148.5 693.5 c 128,-1,24
 162 687 162 687 171 669 c 2,25,-1
 421 169 l 1,26,-1
 421 674 l 2,27,28
 421 685 421 685 428 692.5 c 128,-1,29
 435 700 435 700 446 700 c 2,30,-1
 480 700 l 2,31,0
 491 700 491 700 498.5 692.5 c 128,-1,1
EndSplineSet
Validated: 1
EndChar

StartChar: O
Encoding: 79 79 53
Width: 575
Flags: W
LayerCount: 2
Fore
SplineSet
434.5 644 m 128,-1,1
 490 578 490 578 490 457 c 2,2,-1
 490 243 l 2,3,4
 490 122 490 122 434.5 56 c 128,-1,5
 379 -10 379 -10 288 -10 c 256,6,7
 197 -10 197 -10 141 55.5 c 128,-1,8
 85 121 85 121 85 243 c 2,9,-1
 85 457 l 2,10,11
 85 579 85 579 141 644.5 c 128,-1,12
 197 710 197 710 288 710 c 256,13,0
 379 710 379 710 434.5 644 c 128,-1,1
371.5 113.5 m 128,-1,15
 405 161 405 161 405 243 c 2,16,-1
 405 457 l 2,17,18
 405 539 405 539 371.5 586.5 c 128,-1,19
 338 634 338 634 288 634 c 0,20,21
 237 634 237 634 203.5 586 c 128,-1,22
 170 538 170 538 170 457 c 2,23,-1
 170 243 l 2,24,25
 170 162 170 162 203.5 114 c 128,-1,26
 237 66 237 66 288 66 c 0,27,14
 338 66 338 66 371.5 113.5 c 128,-1,15
EndSplineSet
Validated: 1
EndChar

StartChar: Oslash
Encoding: 216 216 60
Width: 575
Flags: W
LayerCount: 2
Fore
SplineSet
534 747 m 0,1,2
 534 742 534 742 531 734 c 2,3,-1
 463 598 l 1,4,5
 490 538 490 538 490 457 c 2,6,-1
 490 243 l 2,7,8
 490 122 490 122 434.5 56 c 128,-1,9
 379 -10 379 -10 288 -10 c 0,10,11
 223 -10 223 -10 176 23 c 1,12,-1
 118 -92 l 2,13,14
 110 -106 110 -106 98 -106 c 0,15,16
 93 -106 93 -106 85 -103 c 2,17,-1
 53 -87 l 2,18,19
 39 -79 39 -79 39 -67 c 0,20,21
 39 -62 39 -62 42 -54 c 2,22,-1
 116 94 l 1,23,24
 85 154 85 154 85 243 c 2,25,-1
 85 457 l 2,26,27
 85 579 85 579 141 644.5 c 128,-1,28
 197 710 197 710 288 710 c 0,29,30
 356 710 356 710 405 672 c 1,31,-1
 455 772 l 2,32,33
 463 786 463 786 475 786 c 0,34,35
 481 786 481 786 488 783 c 2,36,-1
 520 767 l 2,37,0
 534 759 534 759 534 747 c 0,1,2
172 206 m 1,39,-1
 366 594 l 1,40,41
 334 634 334 634 288 634 c 0,42,43
 237 634 237 634 203.5 586 c 128,-1,44
 170 538 170 538 170 457 c 2,45,-1
 170 243 l 2,46,38
 170 230 170 230 172 206 c 1,39,-1
404 480 m 1,48,-1
 214 100 l 1,49,50
 245 66 245 66 288 66 c 0,51,52
 338 66 338 66 371.5 113.5 c 128,-1,53
 405 161 405 161 405 243 c 2,54,-1
 405 457 l 2,55,47
 405 473 405 473 404 480 c 1,48,-1
EndSplineSet
Validated: 1
EndChar

StartChar: OE
Encoding: 338 338 62
Width: 575
Flags: W
LayerCount: 2
Fore
SplineSet
518 52 m 2,1,-1
 518 25 l 2,2,3
 518 0 518 0 493 0 c 2,4,-1
 288 0 l 2,5,6
 185 0 185 0 135 69 c 128,-1,7
 85 138 85 138 85 253 c 2,8,-1
 85 447 l 2,9,10
 85 563 85 563 135.5 631.5 c 128,-1,11
 186 700 186 700 288 700 c 2,12,-1
 482 700 l 2,13,14
 507 700 507 700 507 675 c 2,15,-1
 507 649 l 2,16,17
 507 624 507 624 482 624 c 2,18,-1
 373 624 l 1,19,-1
 373 403 l 1,20,-1
 475 403 l 2,21,22
 500 403 500 403 500 378 c 2,23,-1
 500 351 l 2,24,25
 500 326 500 326 475 326 c 2,26,-1
 373 326 l 1,27,-1
 373 77 l 1,28,-1
 493 77 l 2,29,0
 518 77 518 77 518 52 c 2,1,-1
197 574.5 m 128,-1,31
 170 525 170 525 170 447 c 2,32,-1
 170 253 l 2,33,34
 170 175 170 175 197 126 c 128,-1,35
 224 77 224 77 288 77 c 1,36,-1
 288 624 l 1,37,30
 224 624 224 624 197 574.5 c 128,-1,31
EndSplineSet
Validated: 1
EndChar

StartChar: P
Encoding: 80 80 63
Width: 575
Flags: W
LayerCount: 2
Fore
SplineSet
393.5 670 m 128,-1,1
 455 640 455 640 486 590 c 128,-1,2
 517 540 517 540 517 480 c 0,3,4
 517 419 517 419 486 369 c 128,-1,5
 455 319 455 319 393.5 289.5 c 128,-1,6
 332 260 332 260 245 260 c 2,7,-1
 170 260 l 1,8,-1
 170 25 l 2,9,10
 170 0 170 0 145 0 c 2,11,-1
 110 0 l 2,12,13
 85 0 85 0 85 25 c 2,14,-1
 85 675 l 2,15,16
 85 700 85 700 110 700 c 2,17,-1
 245 700 l 2,18,0
 332 700 332 700 393.5 670 c 128,-1,1
384 377.5 m 128,-1,20
 432 419 432 419 432 480 c 256,21,22
 432 541 432 541 383.5 582.5 c 128,-1,23
 335 624 335 624 245 624 c 2,24,-1
 170 624 l 1,25,-1
 170 336 l 1,26,-1
 245 336 l 2,27,19
 336 336 336 336 384 377.5 c 128,-1,20
EndSplineSet
Validated: 1
EndChar

StartChar: Thorn
Encoding: 222 222 64
Width: 575
Flags: W
LayerCount: 2
Fore
SplineSet
259 642 m 0,1,2
 343 642 343 642 393 615.5 c 128,-1,3
 443 589 443 589 466.5 532 c 128,-1,4
 490 475 490 475 490 382 c 0,5,6
 490 288 490 288 467 231 c 128,-1,7
 444 174 444 174 393.5 147.5 c 128,-1,8
 343 121 343 121 259 121 c 0,9,10
 217 121 217 121 170 126 c 1,11,-1
 170 25 l 2,12,13
 170 0 170 0 145 0 c 2,14,-1
 110 0 l 2,15,16
 85 0 85 0 85 25 c 2,17,-1
 85 675 l 2,18,19
 85 700 85 700 110 700 c 2,20,-1
 145 700 l 2,21,22
 170 700 170 700 170 675 c 2,23,-1
 170 637 l 1,24,0
 215 642 215 642 259 642 c 0,1,2
259 198 m 0,26,27
 315 198 315 198 346.5 216 c 128,-1,28
 378 234 378 234 391.5 273.5 c 128,-1,29
 405 313 405 313 405 382 c 0,30,31
 405 450 405 450 392 489.5 c 128,-1,32
 379 529 379 529 347.5 547 c 128,-1,33
 316 565 316 565 259 565 c 0,34,35
 209 565 209 565 170 562 c 1,36,-1
 170 202 l 1,37,25
 219 198 219 198 259 198 c 0,26,27
EndSplineSet
Validated: 1
EndChar

StartChar: Q
Encoding: 81 81 65
Width: 575
Flags: W
LayerCount: 2
Fore
SplineSet
549 -180 m 0,1,2
 549 -194 549 -194 532 -200 c 0,3,4
 477 -220 477 -220 427 -220 c 0,5,6
 347 -220 347 -220 296 -169 c 128,-1,7
 245 -118 245 -118 245 -6 c 1,8,9
 171 9 171 9 128 73 c 128,-1,10
 85 137 85 137 85 243 c 2,11,-1
 85 457 l 2,12,13
 85 579 85 579 141 644.5 c 128,-1,14
 197 710 197 710 288 710 c 256,15,16
 379 710 379 710 434.5 644 c 128,-1,17
 490 578 490 578 490 457 c 2,18,-1
 490 243 l 2,19,20
 490 138 490 138 447 73.5 c 128,-1,21
 404 9 404 9 331 -6 c 1,22,23
 331 -82 331 -82 355.5 -112 c 128,-1,24
 380 -142 380 -142 427 -142 c 0,25,26
 464 -142 464 -142 502 -128 c 0,27,28
 506 -126 506 -126 514 -126 c 0,29,30
 528 -126 528 -126 535 -142 c 2,31,-1
 546 -168 l 2,32,0
 549 -174 549 -174 549 -180 c 0,1,2
203.5 114 m 128,-1,34
 237 66 237 66 288 66 c 0,35,36
 338 66 338 66 371.5 113.5 c 128,-1,37
 405 161 405 161 405 243 c 2,38,-1
 405 457 l 2,39,40
 405 539 405 539 371.5 586.5 c 128,-1,41
 338 634 338 634 288 634 c 0,42,43
 237 634 237 634 203.5 586 c 128,-1,44
 170 538 170 538 170 457 c 2,45,-1
 170 243 l 2,46,33
 170 162 170 162 203.5 114 c 128,-1,34
EndSplineSet
Validated: 1
EndChar

StartChar: R
Encoding: 82 82 66
Width: 575
Flags: W
LayerCount: 2
Fore
SplineSet
555 16 m 0,1,2
 555 0 555 0 533 0 c 2,3,-1
 491 0 l 2,4,5
 471 0 471 0 462 18 c 2,6,-1
 315 312 l 1,7,-1
 170 312 l 1,8,-1
 170 25 l 2,9,10
 170 0 170 0 145 0 c 2,11,-1
 110 0 l 2,12,13
 85 0 85 0 85 25 c 2,14,-1
 85 675 l 2,15,16
 85 700 85 700 110 700 c 2,17,-1
 268 700 l 2,18,19
 342 700 342 700 394.5 674.5 c 128,-1,20
 447 649 447 649 473.5 605 c 128,-1,21
 500 561 500 561 500 506 c 256,22,23
 500 451 500 451 473 405 c 128,-1,24
 446 359 446 359 398 335 c 1,25,-1
 551 30 l 2,26,0
 555 23 555 23 555 16 c 0,1,2
377 423.5 m 128,-1,28
 415 458 415 458 415 506 c 0,29,30
 415 537 415 537 398.5 564 c 128,-1,31
 382 591 382 591 348.5 607.5 c 128,-1,32
 315 624 315 624 268 624 c 2,33,-1
 170 624 l 1,34,-1
 170 389 l 1,35,-1
 268 389 l 2,36,27
 339 389 339 389 377 423.5 c 128,-1,28
EndSplineSet
Validated: 1
EndChar

StartChar: S
Encoding: 83 83 69
Width: 575
Flags: W
LayerCount: 2
Fore
SplineSet
438 609 m 0,1,2
 431 609 431 609 427 611 c 0,3,4
 365 634 365 634 316 634 c 0,5,6
 255 634 255 634 211.5 604 c 128,-1,7
 168 574 168 574 168 524 c 0,8,9
 168 483 168 483 199.5 449.5 c 128,-1,10
 231 416 231 416 292 403 c 0,11,12
 401 380 401 380 457.5 324.5 c 128,-1,13
 514 269 514 269 514 195 c 0,14,15
 514 134 514 134 477.5 87.5 c 128,-1,16
 441 41 441 41 380 15.5 c 128,-1,17
 319 -10 319 -10 250 -10 c 0,18,19
 213 -10 213 -10 174 -2.5 c 128,-1,20
 135 5 135 5 101 20 c 0,21,22
 85 26 85 26 85 41 c 0,23,24
 85 47 85 47 88 53 c 2,25,-1
 98 77 l 2,26,27
 104 93 104 93 119 93 c 0,28,29
 126 93 126 93 130 91 c 0,30,31
 157 80 157 80 191.5 74.5 c 128,-1,32
 226 69 226 69 255 69 c 0,33,34
 328 69 328 69 378 101.5 c 128,-1,35
 428 134 428 134 428 190 c 0,36,37
 428 234 428 234 392 268.5 c 128,-1,38
 356 303 356 303 284 318 c 0,39,40
 181 340 181 340 131.5 395 c 128,-1,41
 82 450 82 450 82 521 c 0,42,43
 82 581 82 581 114.5 623.5 c 128,-1,44
 147 666 147 666 200.5 688 c 128,-1,45
 254 710 254 710 316 710 c 0,46,47
 350 710 350 710 388.5 703 c 128,-1,48
 427 696 427 696 456 683 c 0,49,50
 470 676 470 676 470 666 c 0,51,52
 470 660 470 660 467 652 c 2,53,-1
 458 625 l 2,54,0
 452 609 452 609 438 609 c 0,1,2
EndSplineSet
Validated: 1
EndChar

StartChar: Scedilla
Encoding: 350 350 72
Width: 575
Flags: W
LayerCount: 2
Fore
SplineSet
440 -82.5 m 128,-1,1
 469 -104 469 -104 469 -135 c 0,2,3
 469 -162 469 -162 447.5 -187.5 c 128,-1,4
 426 -213 426 -213 383 -229.5 c 128,-1,5
 340 -246 340 -246 281 -246 c 0,6,7
 247 -246 247 -246 203 -235 c 0,8,9
 185 -229 185 -229 185 -214 c 0,10,11
 185 -207 185 -207 187 -203 c 2,12,-1
 191 -192 l 2,13,14
 198 -170 198 -170 222 -175 c 0,15,16
 253 -181 253 -181 281 -181 c 0,17,18
 324 -181 324 -181 348 -169 c 128,-1,19
 372 -157 372 -157 372 -142 c 0,20,21
 372 -132 372 -132 360.5 -125.5 c 128,-1,22
 349 -119 349 -119 327 -119 c 0,23,24
 320 -119 320 -119 300 -121 c 2,25,-1
 292 -122 l 2,26,27
 278 -122 278 -122 267 -111 c 2,28,-1
 239 -82 l 2,29,30
 230 -73 230 -73 230 -62 c 0,31,32
 230 -56 230 -56 233 -48 c 2,33,-1
 251 -10 l 1,34,-1
 250 -10 l 2,35,36
 213 -10 213 -10 174 -2.5 c 128,-1,37
 135 5 135 5 101 20 c 0,38,39
 85 26 85 26 85 41 c 0,40,41
 85 47 85 47 88 53 c 2,42,-1
 98 77 l 2,43,44
 104 93 104 93 119 93 c 0,45,46
 126 93 126 93 130 91 c 0,47,48
 157 80 157 80 191.5 74.5 c 128,-1,49
 226 69 226 69 255 69 c 0,50,51
 328 69 328 69 378 101.5 c 128,-1,52
 428 134 428 134 428 190 c 0,53,54
 428 234 428 234 392 268.5 c 128,-1,55
 356 303 356 303 284 318 c 0,56,57
 181 340 181 340 131.5 395 c 128,-1,58
 82 450 82 450 82 521 c 0,59,60
 82 581 82 581 114.5 623.5 c 128,-1,61
 147 666 147 666 200.5 688 c 128,-1,62
 254 710 254 710 316 710 c 0,63,64
 350 710 350 710 388.5 703 c 128,-1,65
 427 696 427 696 456 683 c 0,66,67
 470 676 470 676 470 666 c 0,68,69
 470 660 470 660 467 652 c 2,70,-1
 458 625 l 2,71,72
 452 609 452 609 438 609 c 0,73,74
 431 609 431 609 427 611 c 0,75,76
 365 634 365 634 316 634 c 0,77,78
 255 634 255 634 211.5 604 c 128,-1,79
 168 574 168 574 168 524 c 0,80,81
 168 483 168 483 199.5 449.5 c 128,-1,82
 231 416 231 416 292 403 c 0,83,84
 401 380 401 380 457.5 324.5 c 128,-1,85
 514 269 514 269 514 195 c 0,86,87
 514 120 514 120 460 67.5 c 128,-1,88
 406 15 406 15 322 -3 c 1,89,90
 322 -8 322 -8 319 -17 c 2,91,-1
 296 -68 l 1,92,93
 328 -61 328 -61 357 -61 c 0,94,0
 411 -61 411 -61 440 -82.5 c 128,-1,1
EndSplineSet
Validated: 33
EndChar

StartChar: T
Encoding: 84 84 73
Width: 575
Flags: W
LayerCount: 2
Fore
SplineSet
529 624 m 2,1,-1
 330 624 l 1,2,-1
 330 25 l 2,3,4
 330 0 330 0 305 0 c 2,5,-1
 270 0 l 2,6,7
 245 0 245 0 245 25 c 2,8,-1
 245 624 l 1,9,-1
 46 624 l 2,10,11
 22 624 22 624 22 649 c 2,12,-1
 22 675 l 2,13,14
 22 700 22 700 47 700 c 2,15,-1
 529 700 l 2,16,17
 554 700 554 700 554 675 c 2,18,-1
 554 649 l 2,19,0
 554 624 554 624 529 624 c 2,1,-1
EndSplineSet
Validated: 1
EndChar

StartChar: uni0162
Encoding: 354 354 76
Width: 575
Flags: W
LayerCount: 2
Fore
SplineSet
554 675 m 2,1,-1
 554 649 l 2,2,3
 554 624 554 624 529 624 c 2,4,-1
 330 624 l 1,5,-1
 330 25 l 2,6,7
 330 10 330 10 320 4 c 1,8,9
 322 0 322 0 322 -4 c 0,10,11
 322 -10 322 -10 319 -17 c 2,12,-1
 296 -68 l 1,13,14
 328 -61 328 -61 357 -61 c 0,15,16
 411 -61 411 -61 440 -82.5 c 128,-1,17
 469 -104 469 -104 469 -135 c 0,18,19
 469 -162 469 -162 447.5 -187.5 c 128,-1,20
 426 -213 426 -213 383 -229.5 c 128,-1,21
 340 -246 340 -246 281 -246 c 0,22,23
 247 -246 247 -246 203 -235 c 0,24,25
 185 -229 185 -229 185 -214 c 0,26,27
 185 -207 185 -207 187 -203 c 2,28,-1
 191 -192 l 2,29,30
 198 -170 198 -170 222 -175 c 0,31,32
 253 -181 253 -181 281 -181 c 0,33,34
 324 -181 324 -181 348 -169 c 128,-1,35
 372 -157 372 -157 372 -142 c 0,36,37
 372 -132 372 -132 360.5 -125.5 c 128,-1,38
 349 -119 349 -119 327 -119 c 0,39,40
 320 -119 320 -119 300 -121 c 2,41,-1
 292 -122 l 2,42,43
 278 -122 278 -122 267 -111 c 2,44,-1
 239 -82 l 2,45,46
 230 -73 230 -73 230 -62 c 0,47,48
 230 -56 230 -56 233 -48 c 2,49,-1
 253 -5 l 2,50,51
 254 -2 254 -2 255 -0.5 c 128,-1,52
 256 1 256 1 257 2 c 1,53,54
 245 8 245 8 245 25 c 2,55,-1
 245 624 l 1,56,-1
 46 624 l 2,57,58
 22 624 22 624 22 649 c 2,59,-1
 22 675 l 2,60,61
 22 700 22 700 47 700 c 2,62,-1
 529 700 l 2,63,0
 554 700 554 700 554 675 c 2,1,-1
EndSplineSet
Validated: 33
EndChar

StartChar: U
Encoding: 85 85 77
Width: 575
Flags: W
LayerCount: 2
Fore
SplineSet
430 700 m 2,1,-1
 465 700 l 2,2,3
 490 700 490 700 490 675 c 2,4,-1
 490 213 l 2,5,6
 490 -10 490 -10 288 -10 c 0,7,8
 85 -10 85 -10 85 213 c 2,9,-1
 85 675 l 2,10,11
 85 700 85 700 110 700 c 2,12,-1
 145 700 l 2,13,14
 170 700 170 700 170 675 c 2,15,-1
 170 213 l 2,16,17
 170 131 170 131 197 98.5 c 128,-1,18
 224 66 224 66 288 66 c 256,19,20
 352 66 352 66 378.5 98.5 c 128,-1,21
 405 131 405 131 405 213 c 2,22,-1
 405 675 l 2,23,0
 405 700 405 700 430 700 c 2,1,-1
EndSplineSet
Validated: 1
EndChar

StartChar: Uogonek
Encoding: 370 370 84
Width: 575
Flags: W
LayerCount: 2
Fore
SplineSet
490 675 m 2,1,-1
 490 213 l 2,2,3
 490 10 490 10 324 -8 c 1,4,5
 318 -40 318 -40 318 -53 c 0,6,7
 318 -90 318 -90 325 -112.5 c 128,-1,8
 332 -135 332 -135 347 -152 c 0,9,10
 355 -163 355 -163 355 -171 c 0,11,12
 355 -178 355 -178 347 -188 c 2,13,-1
 326 -211 l 2,14,15
 318 -221 318 -221 309 -221 c 256,16,17
 300 -221 300 -221 291 -212 c 0,18,19
 264 -185 264 -185 248.5 -151.5 c 128,-1,20
 233 -118 233 -118 233 -83 c 0,21,22
 233 -62 233 -62 236.5 -44.5 c 128,-1,23
 240 -27 240 -27 253 -8 c 1,24,25
 85 11 85 11 85 213 c 2,26,-1
 85 675 l 2,27,28
 85 700 85 700 110 700 c 2,29,-1
 145 700 l 2,30,31
 170 700 170 700 170 675 c 2,32,-1
 170 213 l 2,33,34
 170 131 170 131 197 98.5 c 128,-1,35
 224 66 224 66 288 66 c 256,36,37
 352 66 352 66 378.5 98.5 c 128,-1,38
 405 131 405 131 405 213 c 2,39,-1
 405 675 l 2,40,41
 405 700 405 700 430 700 c 2,42,-1
 465 700 l 2,43,0
 490 700 490 700 490 675 c 2,1,-1
EndSplineSet
Validated: 1
EndChar

StartChar: V
Encoding: 86 86 86
Width: 575
Flags: W
LayerCount: 2
Fore
SplineSet
366.5 13.5 m 128,-1,1
 333 -10 333 -10 288 -10 c 256,2,3
 243 -10 243 -10 209.5 13 c 128,-1,4
 176 36 176 36 165 79 c 2,5,-1
 17 672 l 2,6,7
 16 675 16 675 16 680 c 0,8,9
 16 689 16 689 22 694.5 c 128,-1,10
 28 700 28 700 39 700 c 2,11,-1
 74 700 l 2,12,13
 98 700 98 700 102 678 c 2,14,-1
 249 93 l 2,15,16
 252 80 252 80 263 73 c 128,-1,17
 274 66 274 66 288 66 c 256,18,19
 302 66 302 66 313 73 c 128,-1,20
 324 80 324 80 327 93 c 2,21,-1
 473 678 l 2,22,23
 479 700 479 700 501 700 c 2,24,-1
 537 700 l 2,25,26
 559 700 559 700 559 681 c 0,27,28
 559 675 559 675 558 672 c 2,29,-1
 410 79 l 2,30,0
 400 37 400 37 366.5 13.5 c 128,-1,1
EndSplineSet
Validated: 1
EndChar

StartChar: W
Encoding: 87 87 87
Width: 575
Flags: W
LayerCount: 2
Fore
SplineSet
498 -5 m 2,1,-1
 482 -5 l 2,2,3
 440 -5 440 -5 423 31 c 2,4,-1
 288 301 l 1,5,-1
 153 31 l 2,6,7
 136 -5 136 -5 94 -5 c 2,8,-1
 78 -5 l 2,9,10
 51 -5 51 -5 51 20 c 2,11,-1
 31 674 l 2,12,13
 31 685 31 685 38.5 692.5 c 128,-1,14
 46 700 46 700 57 700 c 2,15,-1
 91 700 l 2,16,17
 102 700 102 700 108.5 693 c 128,-1,18
 115 686 115 686 116 674 c 2,19,-1
 134 160 l 1,20,-1
 245 382 l 2,21,22
 253 400 253 400 274 400 c 2,23,-1
 302 400 l 2,24,25
 323 400 323 400 331 382 c 2,26,-1
 442 160 l 1,27,-1
 460 674 l 2,28,29
 461 686 461 686 467.5 693 c 128,-1,30
 474 700 474 700 485 700 c 2,31,-1
 519 700 l 2,32,33
 530 700 530 700 537.5 692.5 c 128,-1,34
 545 685 545 685 545 674 c 2,35,-1
 525 20 l 2,36,0
 525 -5 525 -5 498 -5 c 2,1,-1
EndSplineSet
Validated: 1
EndChar

StartChar: X
Encoding: 88 88 92
Width: 575
Flags: W
LayerCount: 2
Fore
SplineSet
355 357 m 1,1,2
 367 353 367 353 377.5 344 c 128,-1,3
 388 335 388 335 393 325 c 2,4,-1
 535 30 l 2,5,6
 538 23 538 23 538 17 c 0,7,8
 538 0 538 0 517 0 c 2,9,-1
 486 0 l 2,10,11
 465 0 465 0 456 18 c 2,12,-1
 318 295 l 2,13,14
 303 325 303 325 288 325 c 0,15,16
 272 325 272 325 258 295 c 2,17,-1
 119 18 l 2,18,19
 110 0 110 0 90 0 c 2,20,-1
 59 0 l 2,21,22
 49 0 49 0 43 4.5 c 128,-1,23
 37 9 37 9 37 17 c 0,24,25
 37 23 37 23 40 30 c 2,26,-1
 183 325 l 2,27,28
 188 335 188 335 198 344 c 128,-1,29
 208 353 208 353 220 357 c 1,30,31
 192 369 192 369 183 390 c 2,32,-1
 47 671 l 2,33,34
 44 679 44 679 44 684 c 0,35,36
 44 700 44 700 66 700 c 2,37,-1
 97 700 l 2,38,39
 118 700 118 700 126 682 c 2,40,-1
 258 419 l 2,41,42
 272 390 272 390 288 390 c 256,43,44
 304 390 304 390 318 419 c 2,45,-1
 449 682 l 2,46,47
 457 700 457 700 479 700 c 2,48,-1
 510 700 l 2,49,50
 532 700 532 700 532 684 c 0,51,52
 532 678 532 678 528 671 c 2,53,-1
 393 390 l 2,54,0
 382 368 382 368 355 357 c 1,1,2
EndSplineSet
Validated: 1
EndChar

StartChar: Y
Encoding: 89 89 93
Width: 575
Flags: W
LayerCount: 2
Fore
SplineSet
554 684 m 0,1,2
 554 678 554 678 550 671 c 2,3,-1
 405 380 l 2,4,5
 381 330 381 330 330 315 c 1,6,-1
 330 25 l 2,7,8
 330 0 330 0 305 0 c 2,9,-1
 270 0 l 2,10,11
 245 0 245 0 245 25 c 2,12,-1
 245 315 l 1,13,14
 194 330 194 330 170 380 c 2,15,-1
 25 671 l 2,16,17
 21 678 21 678 21 684 c 0,18,19
 21 700 21 700 43 700 c 2,20,-1
 80 700 l 2,21,22
 101 700 101 700 109 682 c 2,23,-1
 245 410 l 2,24,25
 261 380 261 380 288 380 c 0,26,27
 316 380 316 380 330 410 c 2,28,-1
 466 682 l 2,29,30
 474 700 474 700 496 700 c 2,31,-1
 532 700 l 2,32,0
 554 700 554 700 554 684 c 0,1,2
EndSplineSet
Validated: 1
EndChar

StartChar: Z
Encoding: 90 90 98
Width: 575
Flags: W
LayerCount: 2
Fore
SplineSet
150 77 m 1,1,-1
 485 77 l 2,2,3
 510 77 510 77 510 52 c 2,4,-1
 510 25 l 2,5,6
 510 0 510 0 485 0 c 2,7,-1
 90 0 l 2,8,9
 65 0 65 0 65 25 c 2,10,-1
 65 55 l 2,11,12
 65 120 65 120 84.5 174 c 128,-1,13
 104 228 104 228 141 265 c 2,14,-1
 380 504 l 2,15,16
 399 523 399 523 410.5 554 c 128,-1,17
 422 585 422 585 424 624 c 1,18,-1
 121 624 l 2,19,20
 96 624 96 624 96 649 c 2,21,-1
 96 675 l 2,22,23
 96 700 96 700 121 700 c 2,24,-1
 485 700 l 2,25,26
 510 700 510 700 510 675 c 2,27,-1
 510 645 l 2,28,29
 510 590 510 590 490.5 541 c 128,-1,30
 471 492 471 492 434 455 c 2,31,-1
 196 217 l 2,32,0
 155 176 155 176 150 77 c 1,1,-1
EndSplineSet
Validated: 1
EndChar

StartChar: A.hex
Encoding: 65537 -1 102
Width: 575
Flags: W
LayerCount: 2
Fore
SplineSet
89 804 m 2,1,-1
 54 804 l 2,2,3
 29 804 29 804 29 829 c 2,4,-1
 29 875 l 2,5,6
 29 900 29 900 54 900 c 2,7,-1
 89 900 l 2,8,9
 114 900 114 900 114 875 c 2,10,-1
 114 829 l 2,11,0
 114 804 114 804 89 804 c 2,1,-1
377 804 m 2,13,-1
 342 804 l 2,14,15
 317 804 317 804 317 829 c 2,16,-1
 317 875 l 2,17,18
 317 900 317 900 342 900 c 2,19,-1
 377 900 l 2,20,21
 402 900 402 900 402 875 c 2,22,-1
 402 829 l 2,23,12
 402 804 402 804 377 804 c 2,13,-1
559 19 m 0,25,26
 559 0 559 0 537 0 c 2,27,-1
 501 0 l 2,28,29
 479 0 479 0 473 22 c 2,30,-1
 424 220 l 1,31,-1
 152 220 l 1,32,-1
 102 22 l 2,33,34
 98 0 98 0 74 0 c 2,35,-1
 39 0 l 2,36,37
 28 0 28 0 22 5.5 c 128,-1,38
 16 11 16 11 16 20 c 0,39,40
 16 25 16 25 17 28 c 2,41,-1
 165 621 l 2,42,43
 176 664 176 664 209.5 687 c 128,-1,44
 243 710 243 710 288 710 c 256,45,46
 333 710 333 710 366.5 686.5 c 128,-1,47
 400 663 400 663 410 621 c 2,48,-1
 558 28 l 2,49,24
 559 25 559 25 559 19 c 0,25,26
405 296 m 1,50,-1
 327 607 l 2,51,52
 324 620 324 620 313 627 c 128,-1,53
 302 634 302 634 288 634 c 256,54,55
 274 634 274 634 263 627 c 128,-1,56
 252 620 252 620 249 607 c 2,57,-1
 171 296 l 1,58,-1
 405 296 l 1,50,-1
EndSplineSet
Validated: 1
EndChar

StartChar: B.hex
Encoding: 65538 -1 103
Width: 575
Flags: W
LayerCount: 2
Fore
SplineSet
89 804 m 2,1,-1
 54 804 l 2,2,3
 29 804 29 804 29 829 c 2,4,-1
 29 875 l 2,5,6
 29 900 29 900 54 900 c 2,7,-1
 89 900 l 2,8,9
 114 900 114 900 114 875 c 2,10,-1
 114 829 l 2,11,0
 114 804 114 804 89 804 c 2,1,-1
377 804 m 2,13,-1
 342 804 l 2,14,15
 317 804 317 804 317 829 c 2,16,-1
 317 875 l 2,17,18
 317 900 317 900 342 900 c 2,19,-1
 377 900 l 2,20,21
 402 900 402 900 402 875 c 2,22,-1
 402 829 l 2,23,12
 402 804 402 804 377 804 c 2,13,-1
521 804 m 2,25,-1
 486 804 l 2,26,27
 461 804 461 804 461 829 c 2,28,-1
 461 875 l 2,29,30
 461 900 461 900 486 900 c 2,31,-1
 521 900 l 2,32,33
 546 900 546 900 546 875 c 2,34,-1
 546 829 l 2,35,24
 546 804 546 804 521 804 c 2,25,-1
64 624 m 2,36,37
 39 624 39 624 39 649 c 2,38,-1
 39 675 l 2,39,40
 39 700 39 700 64 700 c 2,41,-1
 244 700 l 2,42,43
 321 700 321 700 372.5 674 c 128,-1,44
 424 648 424 648 448.5 607 c 128,-1,45
 473 566 473 566 473 521 c 0,46,47
 473 472 473 472 446.5 431 c 128,-1,48
 420 390 420 390 382 370 c 1,49,50
 442 348 442 348 477.5 300.5 c 128,-1,51
 513 253 513 253 513 196 c 0,52,53
 513 145 513 145 483.5 100 c 128,-1,54
 454 55 454 55 397.5 27.5 c 128,-1,55
 341 0 341 0 264 0 c 2,56,-1
 127 0 l 2,57,58
 102 0 102 0 102 25 c 2,59,-1
 102 624 l 1,60,-1
 64 624 l 2,36,37
244 403 m 2,61,62
 316 403 316 403 357 434 c 128,-1,63
 398 465 398 465 398 511 c 0,64,65
 398 539 398 539 381.5 565 c 128,-1,66
 365 591 365 591 330.5 607.5 c 128,-1,67
 296 624 296 624 244 624 c 2,68,-1
 187 624 l 1,69,-1
 187 403 l 1,70,-1
 244 403 l 2,61,62
358.5 94.5 m 128,-1,72
 398 112 398 112 417.5 140.5 c 128,-1,73
 437 169 437 169 437 201 c 256,74,75
 437 233 437 233 417.5 261.5 c 128,-1,76
 398 290 398 290 358.5 308 c 128,-1,77
 319 326 319 326 264 326 c 2,78,-1
 187 326 l 1,79,-1
 187 77 l 1,80,-1
 264 77 l 2,81,71
 319 77 319 77 358.5 94.5 c 128,-1,72
EndSplineSet
Validated: 1
EndChar

StartChar: C.hex
Encoding: 65539 -1 104
Width: 575
Flags: W
LayerCount: 2
Fore
SplineSet
89 794 m 2,1,-1
 54 794 l 2,2,3
 29 794 29 794 29 819 c 2,4,-1
 29 875 l 2,5,6
 29 900 29 900 54 900 c 2,7,-1
 89 900 l 2,8,9
 114 900 114 900 114 875 c 2,10,-1
 114 819 l 2,11,0
 114 794 114 794 89 794 c 2,1,-1
233 804 m 2,13,-1
 198 804 l 2,14,15
 173 804 173 804 173 829 c 2,16,-1
 173 875 l 2,17,18
 173 900 173 900 198 900 c 2,19,-1
 233 900 l 2,20,21
 258 900 258 900 258 875 c 2,22,-1
 258 829 l 2,23,12
 258 804 258 804 233 804 c 2,13,-1
491 53 m 2,24,25
 494 47 494 47 494 41 c 0,26,27
 494 26 494 26 478 20 c 0,28,29
 408 -10 408 -10 340 -10 c 0,30,31
 274 -10 274 -10 216.5 20 c 128,-1,32
 159 50 159 50 122 121.5 c 128,-1,33
 85 193 85 193 85 310 c 2,34,-1
 85 390 l 2,35,36
 85 507 85 507 122 578.5 c 128,-1,37
 159 650 159 650 216.5 680 c 128,-1,38
 274 710 274 710 340 710 c 0,39,40
 407 710 407 710 478 680 c 0,41,42
 494 674 494 674 494 659 c 0,43,44
 494 653 494 653 491 647 c 2,45,-1
 481 623 l 2,46,47
 475 607 475 607 460 607 c 0,48,49
 453 607 453 607 449 609 c 0,50,51
 386 632 386 632 338 632 c 0,52,53
 267 632 267 632 219 578 c 128,-1,54
 171 524 171 524 171 390 c 2,55,-1
 171 310 l 2,56,57
 171 176 171 176 219 122 c 128,-1,58
 267 68 267 68 338 68 c 0,59,60
 386 68 386 68 449 91 c 0,61,62
 453 93 453 93 460 93 c 0,63,64
 475 93 475 93 481 77 c 2,65,-1
 491 53 l 2,24,25
EndSplineSet
Validated: 1
EndChar

StartChar: D.hex
Encoding: 65540 -1 105
Width: 575
Flags: W
LayerCount: 2
Fore
SplineSet
89 804 m 2,1,-1
 54 804 l 2,2,3
 29 804 29 804 29 829 c 2,4,-1
 29 875 l 2,5,6
 29 900 29 900 54 900 c 2,7,-1
 89 900 l 2,8,9
 114 900 114 900 114 875 c 2,10,-1
 114 829 l 2,11,0
 114 804 114 804 89 804 c 2,1,-1
233 804 m 2,13,-1
 198 804 l 2,14,15
 173 804 173 804 173 829 c 2,16,-1
 173 875 l 2,17,18
 173 900 173 900 198 900 c 2,19,-1
 233 900 l 2,20,21
 258 900 258 900 258 875 c 2,22,-1
 258 829 l 2,23,12
 258 804 258 804 233 804 c 2,13,-1
521 804 m 2,25,-1
 486 804 l 2,26,27
 461 804 461 804 461 829 c 2,28,-1
 461 875 l 2,29,30
 461 900 461 900 486 900 c 2,31,-1
 521 900 l 2,32,33
 546 900 546 900 546 875 c 2,34,-1
 546 829 l 2,35,24
 546 804 546 804 521 804 c 2,25,-1
355.5 671 m 128,-1,37
 436 642 436 642 476.5 570 c 128,-1,38
 517 498 517 498 517 370 c 2,39,-1
 517 330 l 2,40,41
 517 213 517 213 485.5 141 c 128,-1,42
 454 69 454 69 381 34.5 c 128,-1,43
 308 0 308 0 183 0 c 2,44,-1
 127 0 l 2,45,46
 102 0 102 0 102 25 c 2,47,-1
 102 624 l 1,48,-1
 64 624 l 2,49,50
 39 624 39 624 39 649 c 2,51,-1
 39 675 l 2,52,53
 39 700 39 700 64 700 c 2,54,-1
 144 700 l 2,55,36
 275 700 275 700 355.5 671 c 128,-1,37
375.5 558 m 128,-1,57
 319 619 319 619 187 623 c 1,58,-1
 187 77 l 1,59,60
 275 77 275 77 328.5 102.5 c 128,-1,61
 382 128 382 128 407 183 c 128,-1,62
 432 238 432 238 432 330 c 2,63,-1
 432 370 l 2,64,56
 432 497 432 497 375.5 558 c 128,-1,57
EndSplineSet
Validated: 1
EndChar

StartChar: E.hex
Encoding: 65541 -1 106
Width: 575
Flags: W
LayerCount: 2
Fore
SplineSet
91 804 m 2,1,-1
 56 804 l 2,2,3
 33 804 33 804 31 829 c 2,4,-1
 29 875 l 2,5,6
 28 887 28 887 35 893.5 c 128,-1,7
 42 900 42 900 54 900 c 2,8,-1
 89 900 l 2,9,10
 112 900 112 900 114 875 c 2,11,-1
 116 829 l 2,12,0
 117 804 117 804 91 804 c 2,1,-1
233 804 m 2,14,-1
 198 804 l 2,15,16
 173 804 173 804 173 829 c 2,17,-1
 173 875 l 2,18,19
 173 900 173 900 198 900 c 2,20,-1
 233 900 l 2,21,22
 258 900 258 900 258 875 c 2,23,-1
 258 829 l 2,24,13
 258 804 258 804 233 804 c 2,14,-1
377 804 m 2,26,-1
 342 804 l 2,27,28
 317 804 317 804 317 829 c 2,29,-1
 317 875 l 2,30,31
 317 900 317 900 342 900 c 2,32,-1
 377 900 l 2,33,34
 402 900 402 900 402 875 c 2,35,-1
 402 829 l 2,36,25
 402 804 402 804 377 804 c 2,26,-1
516 52 m 2,38,-1
 516 25 l 2,39,40
 516 0 516 0 491 0 c 2,41,-1
 110 0 l 2,42,43
 85 0 85 0 85 25 c 2,44,-1
 85 675 l 2,45,46
 85 700 85 700 110 700 c 2,47,-1
 469 700 l 2,48,49
 494 700 494 700 494 675 c 2,50,-1
 494 649 l 2,51,52
 494 624 494 624 469 624 c 2,53,-1
 170 624 l 1,54,-1
 170 403 l 1,55,-1
 448 403 l 2,56,57
 473 403 473 403 473 378 c 2,58,-1
 473 351 l 2,59,60
 473 326 473 326 448 326 c 2,61,-1
 170 326 l 1,62,-1
 170 77 l 1,63,-1
 491 77 l 2,64,37
 516 77 516 77 516 52 c 2,38,-1
EndSplineSet
Validated: 33
EndChar

StartChar: F.hex
Encoding: 65542 -1 107
Width: 575
Flags: W
LayerCount: 2
Fore
SplineSet
115 804 m 2,1,-1
 80 804 l 2,2,3
 55 804 55 804 55 829 c 2,4,-1
 55 875 l 2,5,6
 55 900 55 900 80 900 c 2,7,-1
 115 900 l 2,8,9
 140 900 140 900 140 875 c 2,10,-1
 140 829 l 2,11,0
 140 804 140 804 115 804 c 2,1,-1
239 804 m 2,13,-1
 204 804 l 2,14,15
 179 804 179 804 179 829 c 2,16,-1
 179 875 l 2,17,18
 179 900 179 900 204 900 c 2,19,-1
 239 900 l 2,20,21
 264 900 264 900 264 875 c 2,22,-1
 264 829 l 2,23,12
 264 804 264 804 239 804 c 2,13,-1
363 804 m 2,25,-1
 328 804 l 2,26,27
 303 804 303 804 303 829 c 2,28,-1
 303 875 l 2,29,30
 303 900 303 900 328 900 c 2,31,-1
 363 900 l 2,32,33
 388 900 388 900 388 875 c 2,34,-1
 388 829 l 2,35,24
 388 804 388 804 363 804 c 2,25,-1
487 804 m 2,37,-1
 452 804 l 2,38,39
 427 804 427 804 427 829 c 2,40,-1
 427 875 l 2,41,42
 427 900 427 900 452 900 c 2,43,-1
 487 900 l 2,44,45
 512 900 512 900 512 875 c 2,46,-1
 512 829 l 2,47,36
 512 804 512 804 487 804 c 2,37,-1
516 675 m 2,49,-1
 516 649 l 2,50,51
 516 624 516 624 491 624 c 2,52,-1
 170 624 l 1,53,-1
 170 368 l 1,54,-1
 469 368 l 2,55,56
 494 368 494 368 494 343 c 2,57,-1
 494 316 l 2,58,59
 494 292 494 292 469 292 c 2,60,-1
 170 292 l 1,61,-1
 170 25 l 2,62,63
 170 0 170 0 145 0 c 2,64,-1
 110 0 l 2,65,66
 85 0 85 0 85 25 c 2,67,-1
 85 675 l 2,68,69
 85 700 85 700 110 700 c 2,70,-1
 491 700 l 2,71,48
 516 700 516 700 516 675 c 2,49,-1
EndSplineSet
Validated: 1
EndChar

StartChar: a
Encoding: 97 97 108
Width: 575
Flags: W
LayerCount: 2
Fore
SplineSet
446 2 m 0,1,2
 347 -10 347 -10 285 -10 c 0,3,4
 220 -10 220 -10 172.5 9.5 c 128,-1,5
 125 29 125 29 101 62 c 128,-1,6
 77 95 77 95 77 134 c 256,7,8
 77 173 77 173 101 206 c 128,-1,9
 125 239 125 239 173 259 c 128,-1,10
 221 279 221 279 288 279 c 2,11,-1
 385 279 l 1,12,-1
 385 319 l 2,13,14
 385 382 385 382 352 408.5 c 128,-1,15
 319 435 319 435 254 435 c 0,16,17
 213 435 213 435 163 425 c 0,18,19
 160 424 160 424 155 424 c 0,20,21
 136 424 136 424 133 443 c 2,22,-1
 130 470 l 1,23,-1
 130 476 l 2,24,25
 130 486 130 486 134.5 491.5 c 128,-1,26
 139 497 139 497 149 499 c 0,27,28
 214 512 214 512 273 512 c 0,29,30
 370 512 370 512 420 466 c 128,-1,31
 470 420 470 420 470 319 c 2,32,-1
 470 29 l 2,33,0
 470 5 470 5 446 2 c 0,1,2
195.5 182 m 128,-1,35
 163 162 163 162 163 133 c 256,36,37
 163 104 163 104 196 84.5 c 128,-1,38
 229 65 229 65 291 65 c 0,39,40
 319 65 319 65 385 71 c 1,41,-1
 385 202 l 1,42,-1
 288 202 l 2,43,34
 228 202 228 202 195.5 182 c 128,-1,35
EndSplineSet
Validated: 1
EndChar

StartChar: aogonek
Encoding: 261 261 115
Width: 575
Flags: W
LayerCount: 2
Fore
SplineSet
518 -171 m 0,1,2
 518 -178 518 -178 510 -188 c 2,3,-1
 489 -211 l 2,4,5
 481 -221 481 -221 472 -221 c 256,6,7
 463 -221 463 -221 454 -212 c 0,8,9
 427 -185 427 -185 411.5 -151.5 c 128,-1,10
 396 -118 396 -118 396 -83 c 0,11,12
 396 -60 396 -60 400.5 -40.5 c 128,-1,13
 405 -21 405 -21 421 -1 c 1,14,15
 335 -10 335 -10 285 -10 c 0,16,17
 220 -10 220 -10 172.5 9.5 c 128,-1,18
 125 29 125 29 101 62 c 128,-1,19
 77 95 77 95 77 134 c 256,20,21
 77 173 77 173 101 206 c 128,-1,22
 125 239 125 239 173 259 c 128,-1,23
 221 279 221 279 288 279 c 2,24,-1
 385 279 l 1,25,-1
 385 319 l 2,26,27
 385 382 385 382 352 408.5 c 128,-1,28
 319 435 319 435 254 435 c 0,29,30
 213 435 213 435 163 425 c 0,31,32
 160 424 160 424 155 424 c 0,33,34
 136 424 136 424 133 443 c 2,35,-1
 130 470 l 1,36,-1
 130 476 l 2,37,38
 130 486 130 486 134.5 491.5 c 128,-1,39
 139 497 139 497 149 499 c 0,40,41
 214 512 214 512 273 512 c 0,42,43
 370 512 370 512 420 466 c 128,-1,44
 470 420 470 420 470 319 c 2,45,-1
 470 35 l 1,46,-1
 474 35 l 2,47,48
 479 35 479 35 482 34 c 0,49,50
 492 29 492 29 492 18 c 0,51,52
 492 14 492 14 490 6 c 0,53,54
 481 -39 481 -39 481 -53 c 0,55,56
 481 -90 481 -90 488 -112.5 c 128,-1,57
 495 -135 495 -135 510 -152 c 0,58,0
 518 -163 518 -163 518 -171 c 0,1,2
385 202 m 1,59,-1
 288 202 l 2,60,61
 228 202 228 202 195.5 182 c 128,-1,62
 163 162 163 162 163 133 c 256,63,64
 163 104 163 104 196 84.5 c 128,-1,65
 229 65 229 65 291 65 c 0,66,67
 319 65 319 65 385 71 c 1,68,-1
 385 202 l 1,59,-1
EndSplineSet
Validated: 1
EndChar

StartChar: ae
Encoding: 230 230 118
Width: 575
Flags: W
LayerCount: 2
Fore
SplineSet
117 478 m 0,1,2
 117 496 117 496 137 499 c 0,3,4
 195 510 195 510 252 510 c 0,5,6
 371 510 371 510 427.5 446 c 128,-1,7
 484 382 484 382 484 270 c 2,8,-1
 484 247 l 2,9,10
 484 222 484 222 459 222 c 2,11,-1
 325 222 l 1,12,-1
 325 67 l 1,13,14
 363 69 363 69 412 76 c 2,15,-1
 419 77 l 2,16,17
 437 77 437 77 442 57 c 2,18,-1
 448 31 l 2,19,20
 449 28 449 28 449 23 c 0,21,22
 449 4 449 4 428 1 c 0,23,24
 389 -6 389 -6 368.5 -7.5 c 128,-1,25
 348 -9 348 -9 290 -10 c 0,26,27
 170 -10 170 -10 118.5 29.5 c 128,-1,28
 67 69 67 69 65 149 c 0,29,30
 65 286 65 286 240 298 c 1,31,-1
 240 433 l 1,32,33
 192 431 192 431 155 425 c 0,34,35
 152 424 152 424 147 424 c 0,36,37
 130 424 130 424 125 443 c 2,38,-1
 118 470 l 2,39,0
 117 473 117 473 117 478 c 0,1,2
379 373 m 128,-1,41
 362 405 362 405 325 415 c 1,42,-1
 325 299 l 1,43,-1
 399 299 l 1,44,40
 396 341 396 341 379 373 c 128,-1,41
150 140 m 0,46,47
 150 110 150 110 174.5 91 c 128,-1,48
 199 72 199 72 240 67 c 1,49,-1
 240 220 l 1,50,45
 151 211 151 211 150 140 c 0,46,47
EndSplineSet
Validated: 1
EndChar

StartChar: b
Encoding: 98 98 119
Width: 575
Flags: W
LayerCount: 2
Fore
SplineSet
85 725 m 2,0,1
 85 750 85 750 110 750 c 2,2,-1
 145 750 l 2,3,4
 170 750 170 750 170 725 c 2,5,-1
 170 502 l 1,6,7
 210 510 210 510 247 510 c 0,8,9
 352 510 352 510 421 446.5 c 128,-1,10
 490 383 490 383 490 250 c 256,11,12
 490 117 490 117 421 53.5 c 128,-1,13
 352 -10 352 -10 247 -10 c 0,14,15
 170 -10 170 -10 98 19 c 0,16,17
 85 26 85 26 85 40 c 2,18,-1
 85 725 l 2,0,1
170 77 m 1,19,20
 209 68 209 68 247 68 c 0,21,22
 319 68 319 68 361.5 111 c 128,-1,23
 404 154 404 154 404 250 c 0,24,25
 404 351 404 351 358 393.5 c 128,-1,26
 312 436 312 436 237 436 c 0,27,28
 209 436 209 436 170 429 c 1,29,-1
 170 77 l 1,19,20
EndSplineSet
Validated: 1
EndChar

StartChar: c
Encoding: 99 99 120
Width: 575
Flags: W
LayerCount: 2
Fore
SplineSet
460 407 m 0,1,2
 453 407 453 407 449 409 c 0,3,4
 386 432 386 432 328 432 c 0,5,6
 256 432 256 432 213.5 389 c 128,-1,7
 171 346 171 346 171 250 c 256,8,9
 171 154 171 154 213.5 111 c 128,-1,10
 256 68 256 68 328 68 c 0,11,12
 384 68 384 68 449 91 c 0,13,14
 453 93 453 93 460 93 c 0,15,16
 475 93 475 93 481 77 c 2,17,-1
 491 53 l 2,18,19
 494 47 494 47 494 41 c 0,20,21
 494 26 494 26 478 20 c 0,22,23
 408 -10 408 -10 328 -10 c 0,24,25
 223 -10 223 -10 154 53.5 c 128,-1,26
 85 117 85 117 85 250 c 256,27,28
 85 383 85 383 154 446.5 c 128,-1,29
 223 510 223 510 328 510 c 0,30,31
 407 510 407 510 478 480 c 0,32,33
 494 474 494 474 494 459 c 0,34,35
 494 453 494 453 491 447 c 2,36,-1
 481 423 l 2,37,0
 475 407 475 407 460 407 c 0,1,2
EndSplineSet
Validated: 1
EndChar

StartChar: ccedilla
Encoding: 231 231 123
Width: 575
Flags: W
LayerCount: 2
Fore
SplineSet
491 53 m 2,0,1
 494 47 494 47 494 41 c 0,2,3
 494 26 494 26 478 20 c 0,4,5
 408 -10 408 -10 328 -10 c 2,6,-1
 321 -10 l 2,7,8
 321 -13 321 -13 319 -17 c 2,9,-1
 296 -68 l 1,10,11
 328 -61 328 -61 357 -61 c 0,12,13
 411 -61 411 -61 440 -82.5 c 128,-1,14
 469 -104 469 -104 469 -135 c 0,15,16
 469 -162 469 -162 447.5 -187.5 c 128,-1,17
 426 -213 426 -213 383 -229.5 c 128,-1,18
 340 -246 340 -246 281 -246 c 0,19,20
 247 -246 247 -246 203 -235 c 0,21,22
 185 -229 185 -229 185 -214 c 0,23,24
 185 -207 185 -207 187 -203 c 2,25,-1
 191 -192 l 2,26,27
 198 -170 198 -170 222 -175 c 0,28,29
 253 -181 253 -181 281 -181 c 0,30,31
 324 -181 324 -181 348 -169 c 128,-1,32
 372 -157 372 -157 372 -142 c 0,33,34
 372 -132 372 -132 360.5 -125.5 c 128,-1,35
 349 -119 349 -119 327 -119 c 0,36,37
 320 -119 320 -119 300 -121 c 2,38,-1
 292 -122 l 2,39,40
 278 -122 278 -122 267 -111 c 2,41,-1
 239 -82 l 2,42,43
 230 -73 230 -73 230 -62 c 0,44,45
 230 -56 230 -56 233 -48 c 2,46,-1
 253 -5 l 1,47,-1
 255 -1 l 1,48,49
 178 18 178 18 131.5 80 c 128,-1,50
 85 142 85 142 85 250 c 0,51,52
 85 383 85 383 154 446.5 c 128,-1,53
 223 510 223 510 328 510 c 0,54,55
 407 510 407 510 478 480 c 0,56,57
 494 474 494 474 494 459 c 0,58,59
 494 453 494 453 491 447 c 2,60,-1
 481 423 l 2,61,62
 475 407 475 407 460 407 c 0,63,64
 453 407 453 407 449 409 c 0,65,66
 386 432 386 432 328 432 c 0,67,68
 256 432 256 432 213.5 389 c 128,-1,69
 171 346 171 346 171 250 c 256,70,71
 171 154 171 154 213.5 111 c 128,-1,72
 256 68 256 68 328 68 c 0,73,74
 384 68 384 68 449 91 c 0,75,76
 453 93 453 93 460 93 c 0,77,78
 475 93 475 93 481 77 c 2,79,-1
 491 53 l 2,0,1
EndSplineSet
Validated: 33
EndChar

StartChar: d
Encoding: 100 100 124
Width: 575
Flags: W
LayerCount: 2
Fore
SplineSet
477 19 m 0,1,2
 405 -10 405 -10 328 -10 c 0,3,4
 223 -10 223 -10 154 53.5 c 128,-1,5
 85 117 85 117 85 250 c 256,6,7
 85 383 85 383 154 446.5 c 128,-1,8
 223 510 223 510 328 510 c 0,9,10
 365 510 365 510 405 502 c 1,11,-1
 405 725 l 2,12,13
 405 750 405 750 430 750 c 2,14,-1
 465 750 l 2,15,16
 490 750 490 750 490 725 c 2,17,-1
 490 40 l 2,18,0
 490 26 490 26 477 19 c 0,1,2
338 436 m 0,20,21
 263 436 263 436 217 393.5 c 128,-1,22
 171 351 171 351 171 250 c 0,23,24
 171 154 171 154 213.5 111 c 128,-1,25
 256 68 256 68 328 68 c 0,26,27
 366 68 366 68 405 77 c 1,28,-1
 405 429 l 1,29,19
 366 436 366 436 338 436 c 0,20,21
EndSplineSet
Validated: 1
EndChar

StartChar: eth
Encoding: 240 240 125
Width: 575
Flags: W
LayerCount: 2
Fore
SplineSet
543 587 m 0,1,2
 543 572 543 572 526 566 c 2,3,-1
 474 547 l 1,4,5
 522 442 522 442 522 296 c 0,6,7
 522 134 522 134 458 62 c 128,-1,8
 394 -10 394 -10 292 -10 c 0,9,10
 234 -10 234 -10 185.5 16 c 128,-1,11
 137 42 137 42 108 91.5 c 128,-1,12
 79 141 79 141 79 210 c 0,13,14
 79 273 79 273 107 323 c 128,-1,15
 135 373 135 373 183.5 401 c 128,-1,16
 232 429 232 429 290 429 c 0,17,18
 362 429 362 429 431 382 c 1,19,20
 424 464 424 464 400 520 c 1,21,-1
 297 483 l 2,22,23
 293 481 293 481 286 481 c 0,24,25
 271 481 271 481 265 498 c 2,26,-1
 257 522 l 2,27,28
 255 526 255 526 255 534 c 0,29,30
 255 549 255 549 271 555 c 2,31,-1
 358 586 l 1,32,33
 320 624 320 624 267 631 c 0,34,35
 243 633 243 633 243 656 c 2,36,-1
 244 685 l 2,37,38
 244 698 244 698 251 704 c 128,-1,39
 258 710 258 710 270 709 c 0,40,41
 368 699 368 699 434 614 c 1,42,-1
 500 638 l 2,43,44
 504 640 504 640 511 640 c 0,45,46
 526 640 526 640 532 623 c 2,47,-1
 541 598 l 2,48,0
 543 590 543 590 543 587 c 0,1,2
394 125 m 128,-1,50
 436 182 436 182 436 297 c 1,51,52
 395 331 395 331 360.5 341 c 128,-1,53
 326 351 326 351 294 351 c 0,54,55
 236 351 236 351 200.5 311.5 c 128,-1,56
 165 272 165 272 165 210 c 0,57,58
 165 138 165 138 200.5 103 c 128,-1,59
 236 68 236 68 289 68 c 0,60,49
 352 68 352 68 394 125 c 128,-1,50
EndSplineSet
Validated: 1
EndChar

StartChar: dcroat
Encoding: 273 273 127
Width: 575
Flags: W
LayerCount: 2
Fore
SplineSet
553 695 m 2,1,-1
 553 668 l 2,2,3
 553 644 553 644 528 644 c 2,4,-1
 490 644 l 1,5,-1
 490 40 l 2,6,7
 490 26 490 26 477 19 c 0,8,9
 405 -10 405 -10 328 -10 c 0,10,11
 223 -10 223 -10 154 53.5 c 128,-1,12
 85 117 85 117 85 250 c 256,13,14
 85 383 85 383 154 446.5 c 128,-1,15
 223 510 223 510 328 510 c 0,16,17
 365 510 365 510 405 502 c 1,18,-1
 405 644 l 1,19,-1
 290 644 l 2,20,21
 265 644 265 644 265 669 c 2,22,-1
 265 695 l 2,23,24
 265 720 265 720 290 720 c 2,25,-1
 405 720 l 1,26,-1
 405 725 l 2,27,28
 405 750 405 750 430 750 c 2,29,-1
 465 750 l 2,30,31
 490 750 490 750 490 725 c 2,32,-1
 490 720 l 1,33,-1
 528 720 l 2,34,0
 553 720 553 720 553 695 c 2,1,-1
405 429 m 1,35,36
 366 436 366 436 338 436 c 0,37,38
 263 436 263 436 217 393.5 c 128,-1,39
 171 351 171 351 171 250 c 0,40,41
 171 154 171 154 213.5 111 c 128,-1,42
 256 68 256 68 328 68 c 0,43,44
 366 68 366 68 405 77 c 1,45,-1
 405 429 l 1,35,36
EndSplineSet
Validated: 1
EndChar

StartChar: e
Encoding: 101 101 128
Width: 575
Flags: W
LayerCount: 2
Fore
SplineSet
494 41 m 0,1,2
 494 26 494 26 478 20 c 0,3,4
 408 -10 408 -10 328 -10 c 0,5,6
 223 -10 223 -10 154 53.5 c 128,-1,7
 85 117 85 117 85 250 c 0,8,9
 85 331 85 331 113 390 c 128,-1,10
 141 449 141 449 188 479.5 c 128,-1,11
 235 510 235 510 292 510 c 0,12,13
 344 510 344 510 389.5 483.5 c 128,-1,14
 435 457 435 457 462.5 406 c 128,-1,15
 490 355 490 355 490 285 c 2,16,-1
 490 262 l 2,17,18
 490 237 490 237 465 237 c 2,19,-1
 171 237 l 1,20,21
 174 149 174 149 219.5 108.5 c 128,-1,22
 265 68 265 68 332 68 c 0,23,24
 384 68 384 68 449 91 c 0,25,26
 453 93 453 93 460 93 c 0,27,28
 475 93 475 93 481 77 c 2,29,-1
 491 53 l 2,30,0
 494 47 494 47 494 41 c 0,1,2
217 402 m 128,-1,32
 183 370 183 370 178 314 c 1,33,-1
 405 314 l 1,34,35
 405 352 405 352 388 379 c 128,-1,36
 371 406 371 406 345.5 420 c 128,-1,37
 320 434 320 434 293 434 c 0,38,31
 251 434 251 434 217 402 c 128,-1,32
EndSplineSet
Validated: 1
EndChar

StartChar: eogonek
Encoding: 281 281 136
Width: 575
Flags: W
LayerCount: 2
Fore
SplineSet
518 -171 m 0,1,2
 518 -178 518 -178 510 -188 c 2,3,-1
 489 -211 l 2,4,5
 481 -221 481 -221 472 -221 c 256,6,7
 463 -221 463 -221 454 -212 c 0,8,9
 427 -185 427 -185 411.5 -151.5 c 128,-1,10
 396 -118 396 -118 396 -83 c 0,11,12
 396 -59 396 -59 401 -39 c 128,-1,13
 406 -19 406 -19 423 2 c 1,14,15
 377 -10 377 -10 328 -10 c 0,16,17
 223 -10 223 -10 154 53.5 c 128,-1,18
 85 117 85 117 85 250 c 0,19,20
 85 331 85 331 113 390 c 128,-1,21
 141 449 141 449 188 479.5 c 128,-1,22
 235 510 235 510 292 510 c 0,23,24
 344 510 344 510 389.5 483.5 c 128,-1,25
 435 457 435 457 462.5 406 c 128,-1,26
 490 355 490 355 490 285 c 2,27,-1
 490 262 l 2,28,29
 490 237 490 237 465 237 c 2,30,-1
 171 237 l 1,31,32
 174 149 174 149 219.5 108.5 c 128,-1,33
 265 68 265 68 332 68 c 0,34,35
 384 68 384 68 449 91 c 0,36,37
 453 93 453 93 460 93 c 0,38,39
 475 93 475 93 481 77 c 2,40,-1
 491 53 l 2,41,42
 494 47 494 47 494 40 c 256,43,44
 494 33 494 33 489 28 c 1,45,46
 492 24 492 24 492 17 c 0,47,48
 492 14 492 14 490 6 c 0,49,50
 481 -39 481 -39 481 -53 c 0,51,52
 481 -90 481 -90 488 -112.5 c 128,-1,53
 495 -135 495 -135 510 -152 c 0,54,0
 518 -163 518 -163 518 -171 c 0,1,2
217 402 m 128,-1,56
 183 370 183 370 178 314 c 1,57,-1
 405 314 l 1,58,59
 405 352 405 352 388 379 c 128,-1,60
 371 406 371 406 345.5 420 c 128,-1,61
 320 434 320 434 293 434 c 0,62,55
 251 434 251 434 217 402 c 128,-1,56
EndSplineSet
Validated: 1
EndChar

StartChar: f
Encoding: 102 102 137
Width: 575
Flags: W
LayerCount: 2
Fore
SplineSet
465 669 m 0,1,2
 457 669 457 669 453 671 c 0,3,4
 415 685 415 685 378 685 c 0,5,6
 331 685 331 685 306.5 655 c 128,-1,7
 282 625 282 625 282 549 c 2,8,-1
 282 500 l 1,9,-1
 445 500 l 2,10,11
 470 500 470 500 470 475 c 2,12,-1
 470 449 l 2,13,14
 470 424 470 424 445 424 c 2,15,-1
 281 424 l 1,16,-1
 281 25 l 2,17,18
 281 0 281 0 256 0 c 2,19,-1
 221 0 l 2,20,21
 196 0 196 0 196 25 c 2,22,-1
 196 424 l 1,23,-1
 100 424 l 2,24,25
 75 424 75 424 75 449 c 2,26,-1
 75 475 l 2,27,28
 75 500 75 500 100 500 c 2,29,-1
 196 500 l 1,30,-1
 196 549 l 2,31,32
 196 661 196 661 247 712 c 128,-1,33
 298 763 298 763 378 763 c 0,34,35
 428 763 428 763 483 743 c 0,36,37
 500 737 500 737 500 723 c 0,38,39
 500 717 500 717 497 711 c 2,40,-1
 486 685 l 2,41,0
 479 669 479 669 465 669 c 0,1,2
EndSplineSet
Validated: 1
EndChar

StartChar: g
Encoding: 103 103 138
Width: 575
Flags: W
LayerCount: 2
Fore
SplineSet
509 21.5 m 128,-1,1
 575 -18 575 -18 575 -87 c 0,2,3
 574 -160 574 -160 507 -204 c 128,-1,4
 440 -248 440 -248 320 -248 c 0,5,6
 190 -248 190 -248 120.5 -213 c 128,-1,7
 51 -178 51 -178 51 -113 c 0,8,9
 51 -76 51 -76 73 -42 c 128,-1,10
 95 -8 95 -8 131 11 c 1,11,12
 108 24 108 24 97.5 43 c 128,-1,13
 87 62 87 62 87 89 c 0,14,15
 87 120 87 120 107.5 148.5 c 128,-1,16
 128 177 128 177 159 191 c 1,17,18
 124 215 124 215 105.5 252 c 128,-1,19
 87 289 87 289 87 333 c 0,20,21
 87 383 87 383 112.5 423.5 c 128,-1,22
 138 464 138 464 184 487 c 128,-1,23
 230 510 230 510 288 510 c 0,24,25
 322 510 322 510 359 500 c 1,26,-1
 510 500 l 2,27,28
 535 500 535 500 535 475 c 2,29,-1
 535 459 l 2,30,31
 535 434 535 434 510 434 c 2,32,-1
 456 434 l 1,33,34
 489 388 489 388 489 331 c 0,35,36
 489 280 489 280 463.5 239.5 c 128,-1,37
 438 199 438 199 392.5 175.5 c 128,-1,38
 347 152 347 152 288 152 c 0,39,40
 250 152 250 152 214 163 c 1,41,42
 194 154 194 154 183 139 c 128,-1,43
 172 124 172 124 172 108 c 0,44,45
 172 82 172 82 205.5 71.5 c 128,-1,46
 239 61 239 61 320 61 c 0,47,0
 443 61 443 61 509 21.5 c 128,-1,1
205 404.5 m 128,-1,49
 172 375 172 375 172 331 c 256,50,51
 172 287 172 287 205.5 258 c 128,-1,52
 239 229 239 229 288 229 c 256,53,54
 337 229 337 229 370.5 258 c 128,-1,55
 404 287 404 287 404 331 c 256,56,57
 404 375 404 375 371 404.5 c 128,-1,58
 338 434 338 434 288 434 c 256,59,48
 238 434 238 434 205 404.5 c 128,-1,49
442.5 -147 m 128,-1,61
 490 -123 490 -123 490 -87 c 0,62,63
 489 -54 489 -54 443.5 -35 c 128,-1,64
 398 -16 398 -16 310 -16 c 0,65,66
 237 -16 237 -16 195 -9 c 1,67,68
 164 -21 164 -21 147 -42 c 128,-1,69
 130 -63 130 -63 130 -88 c 0,70,71
 131 -128 131 -128 177.5 -149.5 c 128,-1,72
 224 -171 224 -171 310 -171 c 0,73,60
 395 -171 395 -171 442.5 -147 c 128,-1,61
EndSplineSet
Validated: 1
EndChar

StartChar: h
Encoding: 104 104 139
Width: 575
Flags: W
LayerCount: 2
Fore
SplineSet
278 510 m 0,1,2
 390 510 390 510 440 463.5 c 128,-1,3
 490 417 490 417 490 308 c 2,4,-1
 490 25 l 2,5,6
 490 0 490 0 465 0 c 2,7,-1
 430 0 l 2,8,9
 405 0 405 0 405 25 c 2,10,-1
 405 308 l 2,11,12
 405 378 405 378 376 406 c 128,-1,13
 347 434 347 434 278 434 c 0,14,15
 226 434 226 434 170 429 c 1,16,-1
 170 25 l 2,17,18
 170 0 170 0 145 0 c 2,19,-1
 110 0 l 2,20,21
 85 0 85 0 85 25 c 2,22,-1
 85 726 l 2,23,24
 85 751 85 751 110 751 c 2,25,-1
 145 750 l 2,26,27
 170 750 170 750 170 725 c 2,28,-1
 170 505 l 1,29,0
 228 510 228 510 278 510 c 0,1,2
EndSplineSet
Validated: 1
EndChar

StartChar: i
Encoding: 105 105 140
Width: 575
Flags: W
LayerCount: 2
Fore
SplineSet
330 735 m 2,1,-1
 330 669 l 2,2,3
 330 644 330 644 305 644 c 2,4,-1
 240 644 l 2,5,6
 215 644 215 644 215 669 c 2,7,-1
 215 735 l 2,8,9
 215 760 215 760 240 760 c 2,10,-1
 305 760 l 2,11,0
 330 760 330 760 330 735 c 2,1,-1
490 52 m 2,13,-1
 490 25 l 2,14,15
 490 0 490 0 465 0 c 2,16,-1
 110 0 l 2,17,18
 85 0 85 0 85 25 c 2,19,-1
 85 52 l 2,20,21
 85 77 85 77 110 77 c 2,22,-1
 245 77 l 1,23,-1
 245 424 l 1,24,-1
 143 424 l 2,25,26
 118 424 118 424 118 449 c 2,27,-1
 118 475 l 2,28,29
 118 500 118 500 143 500 c 2,30,-1
 305 500 l 2,31,32
 330 500 330 500 330 475 c 2,33,-1
 330 77 l 1,34,-1
 465 77 l 2,35,12
 490 77 490 77 490 52 c 2,13,-1
EndSplineSet
Validated: 1
EndChar

StartChar: dotlessi
Encoding: 305 305 141
Width: 575
Flags: W
LayerCount: 2
Fore
SplineSet
490 52 m 2,1,-1
 490 25 l 2,2,3
 490 0 490 0 465 0 c 2,4,-1
 110 0 l 2,5,6
 85 0 85 0 85 25 c 2,7,-1
 85 52 l 2,8,9
 85 77 85 77 110 77 c 2,10,-1
 245 77 l 1,11,-1
 245 424 l 1,12,-1
 143 424 l 2,13,14
 118 424 118 424 118 449 c 2,15,-1
 118 475 l 2,16,17
 118 500 118 500 143 500 c 2,18,-1
 305 500 l 2,19,20
 330 500 330 500 330 475 c 2,21,-1
 330 77 l 1,22,-1
 465 77 l 2,23,0
 490 77 490 77 490 52 c 2,1,-1
EndSplineSet
Validated: 1
EndChar

StartChar: ij
Encoding: 307 307 146
Width: 575
Flags: W
LayerCount: 2
Fore
SplineSet
195 679 m 2,1,-1
 195 725 l 2,2,3
 195 750 195 750 220 750 c 2,4,-1
 255 750 l 2,5,6
 280 750 280 750 280 725 c 2,7,-1
 280 679 l 2,8,9
 280 654 280 654 255 654 c 2,10,-1
 220 654 l 2,11,0
 195 654 195 654 195 679 c 2,1,-1
490 725 m 2,13,-1
 490 679 l 2,14,15
 490 654 490 654 465 654 c 2,16,-1
 430 654 l 2,17,18
 405 654 405 654 405 679 c 2,19,-1
 405 725 l 2,20,21
 405 750 405 750 430 750 c 2,22,-1
 465 750 l 2,23,12
 490 750 490 750 490 725 c 2,13,-1
490 475 m 2,25,-1
 490 24 l 2,26,27
 490 -116 490 -116 423.5 -182 c 128,-1,28
 357 -248 357 -248 219 -248 c 0,29,30
 161 -248 161 -248 101 -237 c 0,31,32
 81 -234 81 -234 81 -215 c 0,33,34
 81 -210 81 -210 82 -207 c 2,35,-1
 89 -181 l 2,36,37
 95 -157 95 -157 119 -162 c 0,38,39
 167 -171 167 -171 219 -171 c 0,40,41
 318 -171 318 -171 361.5 -123.5 c 128,-1,42
 405 -76 405 -76 405 24 c 2,43,-1
 405 424 l 1,44,-1
 280 424 l 1,45,-1
 280 25 l 2,46,47
 280 0 280 0 255 0 c 2,48,-1
 220 0 l 2,49,50
 195 0 195 0 195 25 c 2,51,-1
 195 424 l 1,52,-1
 115 424 l 2,53,54
 90 424 90 424 90 449 c 2,55,-1
 90 475 l 2,56,57
 90 500 90 500 115 500 c 2,58,-1
 470 500 l 2,59,24
 490 500 490 500 490 475 c 2,25,-1
EndSplineSet
Validated: 33
EndChar

StartChar: iogonek
Encoding: 303 303 148
Width: 575
Flags: W
LayerCount: 2
Fore
SplineSet
245 679 m 2,1,-1
 245 725 l 2,2,3
 245 750 245 750 270 750 c 2,4,-1
 305 750 l 2,5,6
 330 750 330 750 330 725 c 2,7,-1
 330 679 l 2,8,9
 330 654 330 654 305 654 c 2,10,-1
 270 654 l 2,11,0
 245 654 245 654 245 679 c 2,1,-1
517 -166 m 0,13,14
 517 -173 517 -173 509 -183 c 2,15,-1
 488 -206 l 2,16,17
 480 -216 480 -216 471 -216 c 256,18,19
 462 -216 462 -216 453 -207 c 0,20,21
 426 -180 426 -180 410.5 -146.5 c 128,-1,22
 395 -113 395 -113 395 -78 c 0,23,24
 395 -56 395 -56 399 -37.5 c 128,-1,25
 403 -19 403 -19 417 0 c 1,26,-1
 110 0 l 2,27,28
 85 0 85 0 85 25 c 2,29,-1
 85 52 l 2,30,31
 85 77 85 77 110 77 c 2,32,-1
 245 77 l 1,33,-1
 245 424 l 1,34,-1
 143 424 l 2,35,36
 118 424 118 424 118 449 c 2,37,-1
 118 475 l 2,38,39
 118 500 118 500 143 500 c 2,40,-1
 305 500 l 2,41,42
 330 500 330 500 330 475 c 2,43,-1
 330 77 l 1,44,-1
 465 77 l 2,45,46
 490 77 490 77 490 52 c 2,47,-1
 490 29 l 1,48,-1
 491 22 l 2,49,50
 491 19 491 19 489 11 c 0,51,52
 480 -34 480 -34 480 -48 c 0,53,54
 480 -85 480 -85 487 -107.5 c 128,-1,55
 494 -130 494 -130 509 -147 c 0,56,12
 517 -158 517 -158 517 -166 c 0,13,14
EndSplineSet
Validated: 1
EndChar

StartChar: j
Encoding: 106 106 149
Width: 575
Flags: W
LayerCount: 2
Fore
SplineSet
490 735 m 2,1,-1
 490 669 l 2,2,3
 490 644 490 644 465 644 c 2,4,-1
 400 644 l 2,5,6
 375 644 375 644 375 669 c 2,7,-1
 375 735 l 2,8,9
 375 760 375 760 400 760 c 2,10,-1
 465 760 l 2,11,0
 490 760 490 760 490 735 c 2,1,-1
490 475 m 2,13,-1
 490 120 l 2,14,15
 490 -27 490 -27 421.5 -93.5 c 128,-1,16
 353 -160 353 -160 247 -160 c 0,17,18
 168 -160 168 -160 97 -130 c 0,19,20
 81 -124 81 -124 81 -109 c 0,21,22
 81 -103 81 -103 84 -97 c 2,23,-1
 94 -73 l 2,24,25
 100 -57 100 -57 115 -57 c 0,26,27
 122 -57 122 -57 126 -59 c 0,28,29
 189 -82 189 -82 247 -82 c 0,30,31
 320 -82 320 -82 362 -36 c 128,-1,32
 404 10 404 10 404 120 c 2,33,-1
 404 422 l 1,34,-1
 125 422 l 2,35,36
 100 422 100 422 100 447 c 2,37,-1
 100 475 l 2,38,39
 100 500 100 500 125 500 c 2,40,-1
 465 500 l 2,41,12
 490 500 490 500 490 475 c 2,13,-1
EndSplineSet
Validated: 1
EndChar

StartChar: uni0237
Encoding: 567 567 150
Width: 575
Flags: W
LayerCount: 2
Fore
SplineSet
490 475 m 2,1,-1
 490 120 l 2,2,3
 490 -27 490 -27 421.5 -93.5 c 128,-1,4
 353 -160 353 -160 247 -160 c 0,5,6
 168 -160 168 -160 97 -130 c 0,7,8
 81 -124 81 -124 81 -109 c 0,9,10
 81 -103 81 -103 84 -97 c 2,11,-1
 94 -73 l 2,12,13
 100 -57 100 -57 115 -57 c 0,14,15
 122 -57 122 -57 126 -59 c 0,16,17
 189 -82 189 -82 247 -82 c 0,18,19
 320 -82 320 -82 362 -36 c 128,-1,20
 404 10 404 10 404 120 c 2,21,-1
 404 422 l 1,22,-1
 125 422 l 2,23,24
 100 422 100 422 100 447 c 2,25,-1
 100 475 l 2,26,27
 100 500 100 500 125 500 c 2,28,-1
 465 500 l 2,29,0
 490 500 490 500 490 475 c 2,1,-1
EndSplineSet
Validated: 1
EndChar

StartChar: k
Encoding: 107 107 151
Width: 575
Flags: W
LayerCount: 2
Fore
SplineSet
511 14 m 0,1,2
 511 8 511 8 505 4 c 128,-1,3
 499 0 499 0 489 0 c 2,4,-1
 431 0 l 2,5,6
 413 0 413 0 400 13 c 2,7,-1
 200 214 l 2,8,9
 178 236 178 236 170 236 c 1,10,-1
 170 25 l 2,11,12
 170 0 170 0 145 0 c 2,13,-1
 110 0 l 2,14,15
 85 0 85 0 85 25 c 2,16,-1
 85 725 l 2,17,18
 85 750 85 750 110 750 c 2,19,-1
 145 750 l 2,20,21
 170 750 170 750 170 725 c 2,22,-1
 170 285 l 1,23,24
 178 285 178 285 200 307 c 2,25,-1
 380 487 l 2,26,27
 393 500 393 500 411 500 c 2,28,-1
 469 500 l 2,29,30
 479 500 479 500 485 496 c 128,-1,31
 491 492 491 492 491 486 c 0,32,33
 491 478 491 478 482 469 c 2,34,-1
 300 287 l 2,35,36
 291 278 291 278 281.5 272 c 128,-1,37
 272 266 272 266 253 260 c 1,38,39
 272 254 272 254 281.5 248 c 128,-1,40
 291 242 291 242 300 233 c 2,41,-1
 502 31 l 2,42,0
 511 22 511 22 511 14 c 0,1,2
EndSplineSet
Validated: 1
EndChar

StartChar: l
Encoding: 108 108 152
Width: 575
Flags: W
LayerCount: 2
Fore
SplineSet
496 20 m 0,1,2
 496 4 496 4 477 0 c 0,3,4
 436 -10 436 -10 389 -10 c 0,5,6
 304 -10 304 -10 264.5 28.5 c 128,-1,7
 225 67 225 67 225 150 c 2,8,-1
 225 674 l 1,9,-1
 113 674 l 2,10,11
 88 674 88 674 88 699 c 2,12,-1
 88 725 l 2,13,14
 88 750 88 750 113 750 c 2,15,-1
 285 750 l 2,16,17
 310 750 310 750 310 725 c 2,18,-1
 310 150 l 2,19,20
 310 105 310 105 327.5 86.5 c 128,-1,21
 345 68 345 68 389 67 c 0,22,23
 425 67 425 67 454 74 c 0,24,25
 457 75 457 75 462 75 c 0,26,27
 478 75 478 75 486 57 c 2,28,-1
 494 31 l 2,29,0
 496 27 496 27 496 20 c 0,1,2
EndSplineSet
Validated: 1
EndChar

StartChar: lacute
Encoding: 314 314 153
Width: 575
Flags: W
LayerCount: 2
Fore
SplineSet
494 31 m 2,0,1
 496 27 496 27 496 20 c 0,2,3
 496 4 496 4 477 0 c 0,4,5
 436 -10 436 -10 389 -10 c 0,6,7
 304 -10 304 -10 264.5 28.5 c 128,-1,8
 225 67 225 67 225 150 c 2,9,-1
 225 674 l 1,10,-1
 113 674 l 2,11,12
 88 674 88 674 88 699 c 2,13,-1
 88 725 l 2,14,15
 88 750 88 750 113 750 c 2,16,-1
 222 750 l 1,17,-1
 217 761 l 2,18,19
 214 767 214 767 214 773 c 0,20,21
 214 787 214 787 230 794 c 2,22,-1
 440 895 l 2,23,24
 446 898 446 898 453 898 c 0,25,26
 466 898 466 898 473 883 c 2,27,-1
 494 837 l 2,28,29
 497 831 497 831 497 825 c 0,30,31
 497 811 497 811 480 805 c 2,32,-1
 303 745 l 1,33,34
 310 738 310 738 310 725 c 2,35,-1
 310 150 l 2,36,37
 310 105 310 105 327.5 86.5 c 128,-1,38
 345 68 345 68 389 67 c 0,39,40
 425 67 425 67 454 74 c 0,41,42
 457 75 457 75 462 75 c 0,43,44
 478 75 478 75 486 57 c 2,45,-1
 494 31 l 2,0,1
EndSplineSet
Validated: 1
EndChar

StartChar: m
Encoding: 109 109 156
Width: 575
Flags: W
LayerCount: 2
Fore
SplineSet
491 472 m 128,-1,1
 524 436 524 436 524 352 c 2,2,-1
 524 25 l 2,3,4
 524 0 524 0 499 0 c 2,5,-1
 464 0 l 2,6,7
 439 0 439 0 439 25 c 2,8,-1
 439 350 l 2,9,10
 439 395 439 395 422 413.5 c 128,-1,11
 405 432 405 432 364 432 c 0,12,13
 344 432 344 432 320 429 c 1,14,15
 330 399 330 399 330 350 c 2,16,-1
 330 25 l 2,17,18
 330 0 330 0 305 0 c 2,19,-1
 270 0 l 2,20,21
 245 0 245 0 245 25 c 2,22,-1
 245 350 l 2,23,24
 245 395 245 395 228 413.5 c 128,-1,25
 211 432 211 432 170 432 c 0,26,27
 154 432 154 432 136 430 c 1,28,-1
 136 25 l 2,29,30
 136 0 136 0 111 0 c 2,31,-1
 76 0 l 2,32,33
 51 0 51 0 51 25 c 2,34,-1
 51 468 l 2,35,36
 51 490 51 490 74 495 c 0,37,38
 145 508 145 508 189 508 c 0,39,40
 252 508 252 508 284 484 c 1,41,42
 333 508 333 508 388 508 c 0,43,0
 458 508 458 508 491 472 c 128,-1,1
EndSplineSet
Validated: 1
EndChar

StartChar: n
Encoding: 110 110 157
Width: 575
Flags: W
LayerCount: 2
Fore
SplineSet
108 498 m 0,1,2
 188 510 188 510 278 510 c 0,3,4
 390 510 390 510 440 463.5 c 128,-1,5
 490 417 490 417 490 308 c 2,6,-1
 490 25 l 2,7,8
 490 0 490 0 465 0 c 2,9,-1
 430 0 l 2,10,11
 405 0 405 0 405 25 c 2,12,-1
 405 308 l 2,13,14
 405 378 405 378 376 406 c 128,-1,15
 347 434 347 434 278 434 c 0,16,17
 230 434 230 434 170 430 c 1,18,-1
 170 25 l 2,19,20
 170 0 170 0 145 0 c 2,21,-1
 110 0 l 2,22,23
 85 0 85 0 85 25 c 2,24,-1
 85 471 l 2,25,0
 85 493 85 493 108 498 c 0,1,2
EndSplineSet
Validated: 1
EndChar

StartChar: o
Encoding: 111 111 161
Width: 575
Flags: W
LayerCount: 2
Fore
SplineSet
393 483.5 m 128,-1,1
 438 455 438 455 464 396 c 128,-1,2
 490 337 490 337 490 250 c 256,3,4
 490 163 490 163 464 104 c 128,-1,5
 438 45 438 45 393 16.5 c 128,-1,6
 348 -12 348 -12 291 -12 c 256,7,8
 234 -12 234 -12 187.5 17 c 128,-1,9
 141 46 141 46 113 105 c 128,-1,10
 85 164 85 164 85 250 c 256,11,12
 85 336 85 336 113 395 c 128,-1,13
 141 454 141 454 187.5 483 c 128,-1,14
 234 512 234 512 291 512 c 256,15,0
 348 512 348 512 393 483.5 c 128,-1,1
373 114 m 128,-1,17
 405 163 405 163 405 250 c 256,18,19
 405 337 405 337 373 386 c 128,-1,20
 341 435 341 435 288 435 c 256,21,22
 235 435 235 435 202.5 386 c 128,-1,23
 170 337 170 337 170 250 c 256,24,25
 170 163 170 163 202.5 114 c 128,-1,26
 235 65 235 65 288 65 c 256,27,16
 341 65 341 65 373 114 c 128,-1,17
EndSplineSet
Validated: 1
EndChar

StartChar: oslash
Encoding: 248 248 168
Width: 575
Flags: W
LayerCount: 2
Fore
SplineSet
490 250 m 0,1,2
 490 163 490 163 464 104 c 128,-1,3
 438 45 438 45 393 16.5 c 128,-1,4
 348 -12 348 -12 291 -12 c 0,5,6
 251 -12 251 -12 213 3 c 1,7,-1
 177 -72 l 2,8,9
 170 -88 170 -88 156 -88 c 0,10,11
 149 -88 149 -88 145 -86 c 2,12,-1
 112 -73 l 2,13,14
 95 -67 95 -67 95 -52 c 0,15,16
 95 -46 95 -46 98 -40 c 2,17,-1
 144 55 l 1,18,19
 85 125 85 125 85 250 c 0,20,21
 85 336 85 336 113 395 c 128,-1,22
 141 454 141 454 187.5 483 c 128,-1,23
 234 512 234 512 291 512 c 0,24,25
 328 512 328 512 359 500 c 1,26,-1
 388 559 l 2,27,28
 397 575 397 575 410 575 c 0,29,30
 417 575 417 575 421 573 c 2,31,-1
 453 560 l 2,32,33
 471 553 471 553 471 540 c 0,34,35
 471 535 471 535 467 527 c 2,36,-1
 430 451 l 1,37,0
 490 381 490 381 490 250 c 0,1,2
187 144 m 1,39,-1
 325 428 l 1,40,41
 308 435 308 435 288 435 c 0,42,43
 235 435 235 435 202.5 386 c 128,-1,44
 170 337 170 337 170 250 c 0,45,38
 170 187 170 187 187 144 c 1,39,-1
373 114 m 128,-1,47
 405 163 405 163 405 250 c 0,48,49
 405 314 405 314 386 361 c 1,50,-1
 247 74 l 1,51,52
 267 65 267 65 288 65 c 0,53,46
 341 65 341 65 373 114 c 128,-1,47
EndSplineSet
Validated: 1
EndChar

StartChar: oe
Encoding: 339 339 170
Width: 575
Flags: W
LayerCount: 2
Fore
SplineSet
494 23 m 0,1,2
 494 4 494 4 473 1 c 0,3,4
 409 -10 409 -10 391 -10 c 0,5,6
 360 -10 360 -10 337.5 7.5 c 128,-1,7
 315 25 315 25 299 67 c 1,8,9
 283 24 283 24 261 6 c 128,-1,10
 239 -12 239 -12 210 -12 c 0,11,12
 149 -12 149 -12 117 55.5 c 128,-1,13
 85 123 85 123 85 250 c 256,14,15
 85 377 85 377 118.5 444.5 c 128,-1,16
 152 512 152 512 216 512 c 0,17,18
 243 512 243 512 263.5 495.5 c 128,-1,19
 284 479 284 479 299 442 c 1,20,21
 313 479 313 479 334 494.5 c 128,-1,22
 355 510 355 510 383 510 c 0,23,24
 445 510 445 510 477.5 448 c 128,-1,25
 510 386 510 386 510 270 c 2,26,-1
 510 247 l 2,27,28
 510 222 510 222 485 222 c 2,29,-1
 340 222 l 1,30,31
 341 147 341 147 354 107 c 128,-1,32
 367 67 367 67 391 67 c 0,33,34
 402 67 402 67 457 76 c 2,35,-1
 464 77 l 2,36,37
 482 77 482 77 487 57 c 2,38,-1
 493 31 l 2,39,0
 494 28 494 28 494 23 c 0,1,2
244 112.5 m 128,-1,41
 255 160 255 160 255 250 c 256,42,43
 255 340 255 340 244 387.5 c 128,-1,44
 233 435 233 435 213 435 c 0,45,46
 192 435 192 435 181 387.5 c 128,-1,47
 170 340 170 340 170 250 c 0,48,49
 170 161 170 161 181 113 c 128,-1,50
 192 65 192 65 212 65 c 0,51,40
 233 65 233 65 244 112.5 c 128,-1,41
411 399 m 128,-1,53
 400 434 400 434 383 434 c 0,54,55
 349 434 349 434 341 299 c 1,56,-1
 425 299 l 1,57,52
 422 364 422 364 411 399 c 128,-1,53
EndSplineSet
Validated: 1
EndChar

StartChar: p
Encoding: 112 112 171
Width: 575
Flags: W
LayerCount: 2
Fore
SplineSet
98 481 m 0,1,2
 170 510 170 510 247 510 c 0,3,4
 352 510 352 510 421 446.5 c 128,-1,5
 490 383 490 383 490 250 c 256,6,7
 490 117 490 117 421 53.5 c 128,-1,8
 352 -10 352 -10 247 -10 c 0,9,10
 210 -10 210 -10 170 -2 c 1,11,-1
 170 -225 l 2,12,13
 170 -250 170 -250 145 -250 c 2,14,-1
 110 -250 l 2,15,16
 85 -250 85 -250 85 -225 c 2,17,-1
 85 460 l 2,18,0
 85 475 85 475 98 481 c 0,1,2
237 64 m 0,20,21
 312 64 312 64 358 106.5 c 128,-1,22
 404 149 404 149 404 250 c 0,23,24
 404 346 404 346 361.5 389 c 128,-1,25
 319 432 319 432 247 432 c 0,26,27
 209 432 209 432 170 423 c 1,28,-1
 170 71 l 1,29,19
 208 64 208 64 237 64 c 0,20,21
EndSplineSet
Validated: 1
EndChar

StartChar: thorn
Encoding: 254 254 172
Width: 575
Flags: W
LayerCount: 2
Fore
SplineSet
259 512 m 0,1,2
 343 512 343 512 393 485.5 c 128,-1,3
 443 459 443 459 466.5 402 c 128,-1,4
 490 345 490 345 490 252 c 0,5,6
 490 158 490 158 467 101.5 c 128,-1,7
 444 45 444 45 393.5 18.5 c 128,-1,8
 343 -8 343 -8 259 -8 c 0,9,10
 221 -8 221 -8 170 -4 c 1,11,-1
 170 -174 l 2,12,13
 170 -200 170 -200 146 -200 c 2,14,-1
 111 -200 l 2,15,16
 85 -200 85 -200 85 -176 c 2,17,-1
 85 674 l 2,18,19
 85 686 85 686 91 693 c 128,-1,20
 97 700 97 700 109 700 c 2,21,-1
 144 700 l 2,22,23
 170 700 170 700 170 676 c 2,24,-1
 170 507 l 1,25,0
 215 512 215 512 259 512 c 0,1,2
259 68 m 0,27,28
 315 68 315 68 346.5 86 c 128,-1,29
 378 104 378 104 391.5 143.5 c 128,-1,30
 405 183 405 183 405 252 c 0,31,32
 405 320 405 320 392 359.5 c 128,-1,33
 379 399 379 399 347.5 417 c 128,-1,34
 316 435 316 435 259 435 c 0,35,36
 209 435 209 435 170 432 c 1,37,-1
 170 72 l 1,38,26
 219 68 219 68 259 68 c 0,27,28
EndSplineSet
Validated: 1
EndChar

StartChar: q
Encoding: 113 113 173
Width: 575
Flags: W
LayerCount: 2
Fore
SplineSet
490 -225 m 2,0,1
 490 -250 490 -250 465 -250 c 2,2,-1
 430 -250 l 2,3,4
 405 -250 405 -250 405 -225 c 2,5,-1
 405 -2 l 1,6,7
 365 -10 365 -10 328 -10 c 0,8,9
 223 -10 223 -10 154 53.5 c 128,-1,10
 85 117 85 117 85 250 c 256,11,12
 85 383 85 383 154 446.5 c 128,-1,13
 223 510 223 510 328 510 c 0,14,15
 405 510 405 510 477 481 c 0,16,17
 490 475 490 475 490 460 c 2,18,-1
 490 -225 l 2,0,1
405 423 m 1,19,20
 366 432 366 432 328 432 c 0,21,22
 256 432 256 432 213.5 389 c 128,-1,23
 171 346 171 346 171 250 c 0,24,25
 171 149 171 149 217 106.5 c 128,-1,26
 263 64 263 64 338 64 c 0,27,28
 367 64 367 64 405 71 c 1,29,-1
 405 423 l 1,19,20
EndSplineSet
Validated: 1
EndChar

StartChar: r
Encoding: 114 114 174
Width: 575
Flags: W
LayerCount: 2
Fore
SplineSet
108 498 m 0,1,2
 188 510 188 510 278 510 c 0,3,4
 357 510 357 510 402.5 494 c 128,-1,5
 448 478 448 478 469 443 c 128,-1,6
 490 408 490 408 490 348 c 0,7,8
 490 323 490 323 465 323 c 2,9,-1
 430 323 l 2,10,11
 405 323 405 323 405 348 c 0,12,13
 405 395 405 395 376 414.5 c 128,-1,14
 347 434 347 434 278 434 c 0,15,16
 230 434 230 434 170 430 c 1,17,-1
 170 25 l 2,18,19
 170 0 170 0 145 0 c 2,20,-1
 110 0 l 2,21,22
 85 0 85 0 85 25 c 2,23,-1
 85 471 l 2,24,0
 85 493 85 493 108 498 c 0,1,2
EndSplineSet
Validated: 1
EndChar

StartChar: s
Encoding: 115 115 177
Width: 575
Flags: W
LayerCount: 2
Fore
SplineSet
399 425 m 0,1,2
 342 434 342 434 309 434 c 0,3,4
 259 434 259 434 225 417.5 c 128,-1,5
 191 401 191 401 191 371 c 0,6,7
 191 345 191 345 218 325 c 128,-1,8
 245 305 245 305 293 299 c 0,9,10
 382 288 382 288 425.5 247 c 128,-1,11
 469 206 469 206 469 146 c 0,12,13
 469 76 469 76 414 33 c 128,-1,14
 359 -10 359 -10 259 -10 c 0,15,16
 192 -10 192 -10 124 1 c 0,17,18
 103 4 103 4 103 23 c 0,19,20
 103 28 103 28 104 31 c 2,21,-1
 110 57 l 2,22,23
 114 80 114 80 139 77 c 0,24,25
 197 67 197 67 259 67 c 0,26,27
 319 67 319 67 351.5 89 c 128,-1,28
 384 111 384 111 384 146 c 0,29,30
 384 175 384 175 359.5 196 c 128,-1,31
 335 217 335 217 283 222 c 0,32,33
 200 230 200 230 153 271.5 c 128,-1,34
 106 313 106 313 106 371 c 0,35,36
 106 432 106 432 157 471 c 128,-1,37
 208 510 208 510 299 510 c 0,38,39
 358 510 358 510 417 499 c 0,40,41
 437 496 437 496 437 477 c 0,42,43
 437 472 437 472 436 469 c 2,44,-1
 429 443 l 2,45,0
 423 421 423 421 399 425 c 0,1,2
EndSplineSet
Validated: 33
EndChar

StartChar: scedilla
Encoding: 351 351 180
Width: 575
Flags: W
LayerCount: 2
Fore
SplineSet
440 -82.5 m 128,-1,1
 469 -104 469 -104 469 -135 c 0,2,3
 469 -162 469 -162 447.5 -187.5 c 128,-1,4
 426 -213 426 -213 383 -229.5 c 128,-1,5
 340 -246 340 -246 281 -246 c 0,6,7
 247 -246 247 -246 203 -235 c 0,8,9
 185 -229 185 -229 185 -214 c 0,10,11
 185 -207 185 -207 187 -203 c 2,12,-1
 191 -192 l 2,13,14
 198 -170 198 -170 222 -175 c 0,15,16
 253 -181 253 -181 281 -181 c 0,17,18
 324 -181 324 -181 348 -169 c 128,-1,19
 372 -157 372 -157 372 -142 c 0,20,21
 372 -132 372 -132 360.5 -125.5 c 128,-1,22
 349 -119 349 -119 327 -119 c 0,23,24
 320 -119 320 -119 300 -121 c 2,25,-1
 292 -122 l 2,26,27
 278 -122 278 -122 267 -111 c 2,28,-1
 239 -82 l 2,29,30
 230 -73 230 -73 230 -62 c 0,31,32
 230 -56 230 -56 233 -48 c 2,33,-1
 251 -10 l 1,34,35
 194 -10 194 -10 124 1 c 0,36,37
 103 4 103 4 103 23 c 0,38,39
 103 28 103 28 104 31 c 2,40,-1
 110 57 l 2,41,42
 114 80 114 80 139 77 c 0,43,44
 197 67 197 67 259 67 c 0,45,46
 319 67 319 67 351.5 89 c 128,-1,47
 384 111 384 111 384 146 c 0,48,49
 384 175 384 175 359.5 196 c 128,-1,50
 335 217 335 217 283 222 c 0,51,52
 200 230 200 230 153 271.5 c 128,-1,53
 106 313 106 313 106 371 c 0,54,55
 106 432 106 432 157 471 c 128,-1,56
 208 510 208 510 299 510 c 0,57,58
 358 510 358 510 417 499 c 0,59,60
 437 496 437 496 437 477 c 0,61,62
 437 472 437 472 436 469 c 2,63,-1
 429 443 l 2,64,65
 423 421 423 421 399 425 c 0,66,67
 342 434 342 434 309 434 c 0,68,69
 259 434 259 434 225 417.5 c 128,-1,70
 191 401 191 401 191 371 c 0,71,72
 191 345 191 345 218 325 c 128,-1,73
 245 305 245 305 293 299 c 0,74,75
 382 288 382 288 425.5 247 c 128,-1,76
 469 206 469 206 469 146 c 0,77,78
 469 88 469 88 431 48 c 128,-1,79
 393 8 393 8 322 -5 c 1,80,81
 322 -10 322 -10 319 -17 c 2,82,-1
 296 -68 l 1,83,84
 328 -61 328 -61 357 -61 c 0,85,0
 411 -61 411 -61 440 -82.5 c 128,-1,1
EndSplineSet
Validated: 33
EndChar

StartChar: germandbls
Encoding: 223 223 181
Width: 575
Flags: W
LayerCount: 2
Fore
SplineSet
162 0 m 2,1,-1
 127 0 l 2,2,3
 102 0 102 0 102 25 c 2,4,-1
 102 494 l 2,5,6
 102 596 102 596 151 648 c 128,-1,7
 200 700 200 700 294 700 c 0,8,9
 381 700 381 700 427 659 c 128,-1,10
 473 618 473 618 473 541 c 0,11,12
 473 512 473 512 461 485.5 c 128,-1,13
 449 459 449 459 428 427 c 0,14,15
 414 404 414 404 408 392 c 128,-1,16
 402 380 402 380 402 370 c 0,17,18
 402 355 402 355 412 343 c 128,-1,19
 422 331 422 331 443 314 c 0,20,21
 476 287 476 287 494.5 261.5 c 128,-1,22
 513 236 513 236 513 194 c 0,23,24
 513 100 513 100 452.5 53 c 128,-1,25
 392 6 392 6 290 1 c 0,26,27
 264 -1 264 -1 264 26 c 2,28,-1
 264 52 l 2,29,30
 264 75 264 75 289 78 c 0,31,32
 432 87 432 87 432 197 c 0,33,34
 432 224 432 224 418 240.5 c 128,-1,35
 404 257 404 257 375 279 c 0,36,37
 346 299 346 299 331.5 316.5 c 128,-1,38
 317 334 317 334 317 363 c 0,39,40
 317 389 317 389 328.5 412.5 c 128,-1,41
 340 436 340 436 362 468 c 0,42,43
 379 493 379 493 386 506.5 c 128,-1,44
 393 520 393 520 393 533 c 0,45,46
 393 577 393 577 367.5 600.5 c 128,-1,47
 342 624 342 624 294 624 c 0,48,49
 242 624 242 624 214.5 591.5 c 128,-1,50
 187 559 187 559 187 494 c 2,51,-1
 187 25 l 2,52,0
 187 0 187 0 162 0 c 2,1,-1
EndSplineSet
Validated: 33
EndChar

StartChar: t
Encoding: 116 116 182
Width: 575
Flags: W
LayerCount: 2
Fore
SplineSet
490 30 m 0,1,2
 490 16 490 16 473 10 c 0,3,4
 418 -10 418 -10 368 -10 c 0,5,6
 288 -10 288 -10 237 41 c 128,-1,7
 186 92 186 92 186 204 c 2,8,-1
 186 424 l 1,9,-1
 110 424 l 2,10,11
 85 424 85 424 85 449 c 2,12,-1
 85 475 l 2,13,14
 85 500 85 500 110 500 c 2,15,-1
 186 500 l 1,16,-1
 186 635 l 2,17,18
 186 660 186 660 211 660 c 2,19,-1
 246 660 l 2,20,21
 271 660 271 660 271 635 c 2,22,-1
 271 500 l 1,23,-1
 435 500 l 2,24,25
 460 500 460 500 460 475 c 2,26,-1
 460 449 l 2,27,28
 460 424 460 424 435 424 c 2,29,-1
 271 424 l 1,30,-1
 271 204 l 2,31,32
 271 128 271 128 296 98 c 128,-1,33
 321 68 321 68 368 68 c 0,34,35
 405 68 405 68 443 82 c 0,36,37
 447 84 447 84 455 84 c 0,38,39
 469 84 469 84 476 68 c 2,40,-1
 487 42 l 2,41,0
 490 36 490 36 490 30 c 0,1,2
EndSplineSet
Validated: 1
EndChar

StartChar: tbar
Encoding: 359 359 183
Width: 575
Flags: W
LayerCount: 2
Fore
SplineSet
490 30 m 0,1,2
 490 16 490 16 473 10 c 0,3,4
 418 -10 418 -10 368 -10 c 0,5,6
 288 -10 288 -10 237 41 c 128,-1,7
 186 92 186 92 186 204 c 2,8,-1
 186 224 l 1,9,-1
 110 224 l 2,10,11
 85 224 85 224 85 249 c 2,12,-1
 85 275 l 2,13,14
 85 300 85 300 110 300 c 2,15,-1
 186 300 l 1,16,-1
 186 424 l 1,17,-1
 110 424 l 2,18,19
 85 424 85 424 85 449 c 2,20,-1
 85 475 l 2,21,22
 85 500 85 500 110 500 c 2,23,-1
 186 500 l 1,24,-1
 186 635 l 2,25,26
 186 660 186 660 211 660 c 2,27,-1
 246 660 l 2,28,29
 271 660 271 660 271 635 c 2,30,-1
 271 500 l 1,31,-1
 435 500 l 2,32,33
 460 500 460 500 460 475 c 2,34,-1
 460 449 l 2,35,36
 460 424 460 424 435 424 c 2,37,-1
 271 424 l 1,38,-1
 271 300 l 1,39,-1
 435 300 l 2,40,41
 460 300 460 300 460 275 c 2,42,-1
 460 249 l 2,43,44
 460 224 460 224 435 224 c 2,45,-1
 271 224 l 1,46,-1
 271 204 l 2,47,48
 271 128 271 128 296 98 c 128,-1,49
 321 68 321 68 368 68 c 0,50,51
 405 68 405 68 443 82 c 0,52,53
 447 84 447 84 455 84 c 0,54,55
 469 84 469 84 476 68 c 2,56,-1
 487 42 l 2,57,0
 490 36 490 36 490 30 c 0,1,2
EndSplineSet
Validated: 1
EndChar

StartChar: uni0163
Encoding: 355 355 185
Width: 575
Flags: W
LayerCount: 2
Fore
SplineSet
490 30 m 0,1,2
 490 16 490 16 473 10 c 0,3,4
 418 -10 418 -10 368 -10 c 0,5,6
 341 -10 341 -10 322 -5 c 1,7,8
 322 -11 322 -11 319 -17 c 2,9,-1
 296 -68 l 1,10,11
 328 -61 328 -61 357 -61 c 0,12,13
 411 -61 411 -61 440 -82.5 c 128,-1,14
 469 -104 469 -104 469 -135 c 0,15,16
 469 -162 469 -162 447.5 -187.5 c 128,-1,17
 426 -213 426 -213 383 -229.5 c 128,-1,18
 340 -246 340 -246 281 -246 c 0,19,20
 247 -246 247 -246 203 -235 c 0,21,22
 185 -229 185 -229 185 -214 c 0,23,24
 185 -207 185 -207 187 -203 c 2,25,-1
 191 -192 l 2,26,27
 198 -170 198 -170 222 -175 c 0,28,29
 253 -181 253 -181 281 -181 c 0,30,31
 324 -181 324 -181 348 -169 c 128,-1,32
 372 -157 372 -157 372 -142 c 0,33,34
 372 -132 372 -132 360.5 -125.5 c 128,-1,35
 349 -119 349 -119 327 -119 c 0,36,37
 320 -119 320 -119 300 -121 c 2,38,-1
 292 -122 l 2,39,40
 278 -122 278 -122 267 -111 c 2,41,-1
 239 -82 l 2,42,43
 230 -73 230 -73 230 -62 c 0,44,45
 230 -56 230 -56 233 -48 c 2,46,-1
 253 -5 l 2,47,48
 261 10 261 10 273 13 c 1,49,50
 232 35 232 35 209 82.5 c 128,-1,51
 186 130 186 130 186 204 c 2,52,-1
 186 424 l 1,53,-1
 110 424 l 2,54,55
 85 424 85 424 85 449 c 2,56,-1
 85 475 l 2,57,58
 85 500 85 500 110 500 c 2,59,-1
 186 500 l 1,60,-1
 186 635 l 2,61,62
 186 660 186 660 211 660 c 2,63,-1
 246 660 l 2,64,65
 271 660 271 660 271 635 c 2,66,-1
 271 500 l 1,67,-1
 435 500 l 2,68,69
 460 500 460 500 460 475 c 2,70,-1
 460 449 l 2,71,72
 460 424 460 424 435 424 c 2,73,-1
 271 424 l 1,74,-1
 271 204 l 2,75,76
 271 128 271 128 296 98 c 128,-1,77
 321 68 321 68 368 68 c 0,78,79
 405 68 405 68 443 82 c 0,80,81
 447 84 447 84 455 84 c 0,82,83
 469 84 469 84 476 68 c 2,84,-1
 487 42 l 2,85,0
 490 36 490 36 490 30 c 0,1,2
EndSplineSet
Validated: 33
EndChar

StartChar: u
Encoding: 117 117 186
Width: 575
Flags: W
LayerCount: 2
Fore
SplineSet
467 2 m 0,1,2
 387 -10 387 -10 297 -10 c 0,3,4
 185 -10 185 -10 135 36.5 c 128,-1,5
 85 83 85 83 85 192 c 2,6,-1
 85 475 l 2,7,8
 85 500 85 500 110 500 c 2,9,-1
 145 500 l 2,10,11
 170 500 170 500 170 475 c 2,12,-1
 170 192 l 2,13,14
 170 122 170 122 199 94 c 128,-1,15
 228 66 228 66 297 66 c 0,16,17
 345 66 345 66 405 70 c 1,18,-1
 405 475 l 2,19,20
 405 500 405 500 430 500 c 2,21,-1
 465 500 l 2,22,23
 490 500 490 500 490 475 c 2,24,-1
 490 29 l 2,25,0
 490 7 490 7 467 2 c 0,1,2
EndSplineSet
Validated: 1
EndChar

StartChar: uogonek
Encoding: 371 371 193
Width: 575
Flags: W
LayerCount: 2
Fore
SplineSet
518 -171 m 0,1,2
 518 -178 518 -178 510 -188 c 2,3,-1
 489 -211 l 2,4,5
 481 -221 481 -221 472 -221 c 256,6,7
 463 -221 463 -221 454 -212 c 0,8,9
 427 -185 427 -185 411.5 -151.5 c 128,-1,10
 396 -118 396 -118 396 -83 c 0,11,12
 396 -61 396 -61 400 -42 c 128,-1,13
 404 -23 404 -23 419 -4 c 1,14,15
 355 -10 355 -10 297 -10 c 0,16,17
 185 -10 185 -10 135 36.5 c 128,-1,18
 85 83 85 83 85 192 c 2,19,-1
 85 475 l 2,20,21
 85 500 85 500 110 500 c 2,22,-1
 145 500 l 2,23,24
 170 500 170 500 170 475 c 2,25,-1
 170 192 l 2,26,27
 170 122 170 122 199 94 c 128,-1,28
 228 66 228 66 297 66 c 0,29,30
 345 66 345 66 405 70 c 1,31,-1
 405 475 l 2,32,33
 405 500 405 500 430 500 c 2,34,-1
 465 500 l 2,35,36
 490 500 490 500 490 475 c 2,37,-1
 490 29 l 1,38,-1
 490 27 l 2,39,40
 492 23 492 23 492 18 c 2,41,-1
 490 6 l 2,42,43
 481 -39 481 -39 481 -53 c 0,44,45
 481 -90 481 -90 488 -112.5 c 128,-1,46
 495 -135 495 -135 510 -152 c 0,47,0
 518 -163 518 -163 518 -171 c 0,1,2
EndSplineSet
Validated: 1
EndChar

StartChar: v
Encoding: 118 118 195
Width: 575
Flags: W
LayerCount: 2
Fore
SplineSet
424 478 m 2,0,1
 430 500 430 500 451 500 c 2,2,-1
 486 500 l 2,3,4
 497 500 497 500 503 495 c 128,-1,5
 509 490 509 490 509 480 c 0,6,7
 509 475 509 475 508 472 c 2,8,-1
 410 79 l 2,9,10
 400 37 400 37 366.5 13.5 c 128,-1,11
 333 -10 333 -10 288 -10 c 256,12,13
 243 -10 243 -10 209.5 13 c 128,-1,14
 176 36 176 36 165 79 c 2,15,-1
 67 472 l 2,16,17
 66 475 66 475 66 480 c 0,18,19
 66 490 66 490 72 495 c 128,-1,20
 78 500 78 500 89 500 c 2,21,-1
 125 500 l 2,22,23
 146 500 146 500 152 478 c 2,24,-1
 249 93 l 2,25,26
 252 80 252 80 263 73 c 128,-1,27
 274 66 274 66 288 66 c 256,28,29
 302 66 302 66 313 73 c 128,-1,30
 324 80 324 80 327 93 c 2,31,-1
 424 478 l 2,0,1
EndSplineSet
Validated: 1
EndChar

StartChar: w
Encoding: 119 119 196
Width: 575
Flags: W
LayerCount: 2
Fore
SplineSet
498 -5 m 2,1,-1
 482 -5 l 2,2,3
 440 -5 440 -5 423 31 c 2,4,-1
 288 301 l 1,5,-1
 153 31 l 2,6,7
 136 -5 136 -5 94 -5 c 2,8,-1
 78 -5 l 2,9,10
 53 -5 53 -5 51 20 c 2,11,-1
 31 474 l 2,12,13
 30 485 30 485 38 492.5 c 128,-1,14
 46 500 46 500 57 500 c 2,15,-1
 91 500 l 2,16,17
 102 500 102 500 108.5 493 c 128,-1,18
 115 486 115 486 116 474 c 2,19,-1
 134 160 l 1,20,-1
 245 382 l 2,21,22
 253 400 253 400 274 400 c 2,23,-1
 302 400 l 2,24,25
 323 400 323 400 331 382 c 2,26,-1
 442 160 l 1,27,-1
 460 474 l 2,28,29
 461 486 461 486 467.5 493 c 128,-1,30
 474 500 474 500 485 500 c 2,31,-1
 519 500 l 2,32,33
 530 500 530 500 537.5 492.5 c 128,-1,34
 545 485 545 485 545 474 c 2,35,-1
 525 20 l 2,36,0
 525 -5 525 -5 498 -5 c 2,1,-1
EndSplineSet
Validated: 1
EndChar

StartChar: x
Encoding: 120 120 201
Width: 575
Flags: W
LayerCount: 2
Fore
SplineSet
355 257 m 1,1,2
 367 253 367 253 377.5 244 c 128,-1,3
 388 235 388 235 393 225 c 2,4,-1
 487 30 l 2,5,6
 490 23 490 23 490 17 c 0,7,8
 490 0 490 0 468 0 c 2,9,-1
 436 0 l 2,10,11
 415 0 415 0 406 18 c 2,12,-1
 318 195 l 2,13,14
 309 212 309 212 303.5 218.5 c 128,-1,15
 298 225 298 225 288 225 c 256,16,17
 278 225 278 225 272.5 219 c 128,-1,18
 267 213 267 213 258 195 c 2,19,-1
 169 18 l 2,20,21
 160 0 160 0 140 0 c 2,22,-1
 107 0 l 2,23,24
 85 0 85 0 85 16 c 0,25,26
 85 23 85 23 89 30 c 2,27,-1
 183 225 l 2,28,29
 188 235 188 235 198 244 c 128,-1,30
 208 253 208 253 220 257 c 1,31,32
 192 269 192 269 183 290 c 2,33,-1
 95 471 l 2,34,35
 92 477 92 477 92 483 c 0,36,37
 92 491 92 491 98 495.5 c 128,-1,38
 104 500 104 500 114 500 c 2,39,-1
 147 500 l 2,40,41
 168 500 168 500 176 482 c 2,42,-1
 258 319 l 2,43,44
 267 301 267 301 272 295 c 128,-1,45
 277 289 277 289 287 289 c 0,46,47
 298 289 298 289 303.5 295 c 128,-1,48
 309 301 309 301 318 319 c 2,49,-1
 399 482 l 2,50,51
 407 500 407 500 429 500 c 2,52,-1
 462 500 l 2,53,54
 483 500 483 500 483 484 c 0,55,56
 483 479 483 479 480 471 c 2,57,-1
 393 290 l 2,58,0
 382 268 382 268 355 257 c 1,1,2
EndSplineSet
Validated: 1
EndChar

StartChar: y
Encoding: 121 121 202
Width: 575
Flags: W
LayerCount: 2
Fore
SplineSet
503 494.5 m 128,-1,1
 509 489 509 489 509 480 c 0,2,3
 509 475 509 475 508 472 c 2,4,-1
 384 -20 l 2,5,6
 353 -142 353 -142 302 -196 c 128,-1,7
 251 -250 251 -250 164 -250 c 0,8,9
 110 -250 110 -250 42 -226 c 0,10,11
 25 -220 25 -220 25 -204 c 0,12,13
 25 -202 25 -202 27 -194 c 2,14,-1
 36 -169 l 2,15,16
 42 -152 42 -152 57 -152 c 0,17,18
 64 -152 64 -152 68 -154 c 0,19,20
 90 -162 90 -162 117.5 -166.5 c 128,-1,21
 145 -171 145 -171 164 -171 c 0,22,23
 216 -171 216 -171 248 -133 c 128,-1,24
 280 -95 280 -95 301 -10 c 1,25,-1
 288 -10 l 2,26,27
 239 -10 239 -10 207.5 13 c 128,-1,28
 176 36 176 36 165 80 c 2,29,-1
 67 472 l 2,30,31
 66 475 66 475 66 480 c 0,32,33
 66 500 66 500 89 500 c 2,34,-1
 125 500 l 2,35,36
 148 500 148 500 152 479 c 2,37,-1
 249 93 l 2,38,39
 252 79 252 79 262 71 c 128,-1,40
 272 63 272 63 288 63 c 2,41,-1
 319 63 l 1,42,-1
 423 479 l 2,43,44
 429 500 429 500 451 500 c 2,45,-1
 487 500 l 2,46,0
 497 500 497 500 503 494.5 c 128,-1,1
EndSplineSet
Validated: 1
EndChar

StartChar: z
Encoding: 122 122 207
Width: 575
Flags: W
LayerCount: 2
Fore
SplineSet
490 52 m 2,1,-1
 490 25 l 2,2,3
 490 0 490 0 465 0 c 2,4,-1
 110 0 l 2,5,6
 86 0 86 0 86 25 c 2,7,-1
 86 70 l 2,8,9
 86 106 86 106 112 132 c 2,10,-1
 404 424 l 1,11,-1
 131 424 l 2,12,13
 106 424 106 424 106 449 c 2,14,-1
 106 475 l 2,15,16
 106 500 106 500 131 500 c 2,17,-1
 465 500 l 2,18,19
 489 500 489 500 489 475 c 2,20,-1
 489 431 l 2,21,22
 489 395 489 395 463 369 c 2,23,-1
 171 77 l 1,24,-1
 465 77 l 2,25,0
 490 77 490 77 490 52 c 2,1,-1
EndSplineSet
Validated: 1
EndChar

StartChar: a.hex
Encoding: 65543 -1 211
Width: 575
Flags: W
LayerCount: 2
Fore
SplineSet
89 804 m 2,1,-1
 54 804 l 2,2,3
 29 804 29 804 29 829 c 2,4,-1
 29 875 l 2,5,6
 29 900 29 900 54 900 c 2,7,-1
 89 900 l 2,8,9
 114 900 114 900 114 875 c 2,10,-1
 114 829 l 2,11,0
 114 804 114 804 89 804 c 2,1,-1
377 804 m 2,13,-1
 342 804 l 2,14,15
 317 804 317 804 317 829 c 2,16,-1
 317 875 l 2,17,18
 317 900 317 900 342 900 c 2,19,-1
 377 900 l 2,20,21
 402 900 402 900 402 875 c 2,22,-1
 402 829 l 2,23,12
 402 804 402 804 377 804 c 2,13,-1
446 2 m 0,25,26
 347 -10 347 -10 285 -10 c 0,27,28
 220 -10 220 -10 172.5 9.5 c 128,-1,29
 125 29 125 29 101 62 c 128,-1,30
 77 95 77 95 77 134 c 256,31,32
 77 173 77 173 101 206 c 128,-1,33
 125 239 125 239 173 259 c 128,-1,34
 221 279 221 279 288 279 c 2,35,-1
 385 279 l 1,36,-1
 385 319 l 2,37,38
 385 382 385 382 352 408.5 c 128,-1,39
 319 435 319 435 254 435 c 0,40,41
 213 435 213 435 163 425 c 0,42,43
 160 424 160 424 155 424 c 0,44,45
 136 424 136 424 133 443 c 2,46,-1
 130 470 l 1,47,-1
 130 476 l 2,48,49
 130 486 130 486 134.5 491.5 c 128,-1,50
 139 497 139 497 149 499 c 0,51,52
 214 512 214 512 273 512 c 0,53,54
 370 512 370 512 420 466 c 128,-1,55
 470 420 470 420 470 319 c 2,56,-1
 470 29 l 2,57,24
 470 5 470 5 446 2 c 0,25,26
195.5 182 m 128,-1,59
 163 162 163 162 163 133 c 256,60,61
 163 104 163 104 196 84.5 c 128,-1,62
 229 65 229 65 291 65 c 0,63,64
 319 65 319 65 385 71 c 1,65,-1
 385 202 l 1,66,-1
 288 202 l 2,67,58
 228 202 228 202 195.5 182 c 128,-1,59
EndSplineSet
Validated: 1
EndChar

StartChar: b.hex
Encoding: 65544 -1 212
Width: 575
Flags: W
LayerCount: 2
Fore
SplineSet
89 804 m 2,1,-1
 54 804 l 2,2,3
 29 804 29 804 29 829 c 2,4,-1
 29 875 l 2,5,6
 29 900 29 900 54 900 c 2,7,-1
 89 900 l 2,8,9
 114 900 114 900 114 875 c 2,10,-1
 114 829 l 2,11,0
 114 804 114 804 89 804 c 2,1,-1
377 804 m 2,13,-1
 342 804 l 2,14,15
 317 804 317 804 317 829 c 2,16,-1
 317 875 l 2,17,18
 317 900 317 900 342 900 c 2,19,-1
 377 900 l 2,20,21
 402 900 402 900 402 875 c 2,22,-1
 402 829 l 2,23,12
 402 804 402 804 377 804 c 2,13,-1
521 804 m 2,25,-1
 486 804 l 2,26,27
 461 804 461 804 461 829 c 2,28,-1
 461 875 l 2,29,30
 461 900 461 900 486 900 c 2,31,-1
 521 900 l 2,32,33
 546 900 546 900 546 875 c 2,34,-1
 546 829 l 2,35,24
 546 804 546 804 521 804 c 2,25,-1
85 725 m 2,36,37
 85 750 85 750 110 750 c 2,38,-1
 145 750 l 2,39,40
 170 750 170 750 170 725 c 2,41,-1
 170 502 l 1,42,43
 210 510 210 510 247 510 c 0,44,45
 352 510 352 510 421 446.5 c 128,-1,46
 490 383 490 383 490 250 c 256,47,48
 490 117 490 117 421 53.5 c 128,-1,49
 352 -10 352 -10 247 -10 c 0,50,51
 170 -10 170 -10 98 19 c 0,52,53
 85 26 85 26 85 40 c 2,54,-1
 85 725 l 2,36,37
170 77 m 1,55,56
 209 68 209 68 247 68 c 0,57,58
 319 68 319 68 361.5 111 c 128,-1,59
 404 154 404 154 404 250 c 0,60,61
 404 351 404 351 358 393.5 c 128,-1,62
 312 436 312 436 237 436 c 0,63,64
 209 436 209 436 170 429 c 1,65,-1
 170 77 l 1,55,56
EndSplineSet
Validated: 1
EndChar

StartChar: c.hex
Encoding: 65545 -1 213
Width: 575
Flags: W
LayerCount: 2
Fore
SplineSet
89 804 m 2,1,-1
 54 804 l 2,2,3
 29 804 29 804 29 829 c 2,4,-1
 29 875 l 2,5,6
 29 900 29 900 54 900 c 2,7,-1
 89 900 l 2,8,9
 114 900 114 900 114 875 c 2,10,-1
 114 829 l 2,11,0
 114 804 114 804 89 804 c 2,1,-1
233 804 m 2,13,-1
 198 804 l 2,14,15
 173 804 173 804 173 829 c 2,16,-1
 173 875 l 2,17,18
 173 900 173 900 198 900 c 2,19,-1
 233 900 l 2,20,21
 258 900 258 900 258 875 c 2,22,-1
 258 829 l 2,23,12
 258 804 258 804 233 804 c 2,13,-1
460 407 m 0,25,26
 453 407 453 407 449 409 c 0,27,28
 386 432 386 432 328 432 c 0,29,30
 256 432 256 432 213.5 389 c 128,-1,31
 171 346 171 346 171 250 c 256,32,33
 171 154 171 154 213.5 111 c 128,-1,34
 256 68 256 68 328 68 c 0,35,36
 384 68 384 68 449 91 c 0,37,38
 453 93 453 93 460 93 c 0,39,40
 475 93 475 93 481 77 c 2,41,-1
 491 53 l 2,42,43
 494 47 494 47 494 41 c 0,44,45
 494 26 494 26 478 20 c 0,46,47
 408 -10 408 -10 328 -10 c 0,48,49
 223 -10 223 -10 154 53.5 c 128,-1,50
 85 117 85 117 85 250 c 256,51,52
 85 383 85 383 154 446.5 c 128,-1,53
 223 510 223 510 328 510 c 0,54,55
 407 510 407 510 478 480 c 0,56,57
 494 474 494 474 494 459 c 0,58,59
 494 453 494 453 491 447 c 2,60,-1
 481 423 l 2,61,24
 475 407 475 407 460 407 c 0,25,26
EndSplineSet
Validated: 1
EndChar

StartChar: d.hex
Encoding: 65546 -1 214
Width: 575
Flags: W
LayerCount: 2
Fore
SplineSet
89 804 m 2,1,-1
 54 804 l 2,2,3
 29 804 29 804 29 829 c 2,4,-1
 29 875 l 2,5,6
 29 900 29 900 54 900 c 2,7,-1
 89 900 l 2,8,9
 114 900 114 900 114 875 c 2,10,-1
 114 829 l 2,11,0
 114 804 114 804 89 804 c 2,1,-1
233 804 m 2,13,-1
 198 804 l 2,14,15
 173 804 173 804 173 829 c 2,16,-1
 173 875 l 2,17,18
 173 900 173 900 198 900 c 2,19,-1
 233 900 l 2,20,21
 258 900 258 900 258 875 c 2,22,-1
 258 829 l 2,23,12
 258 804 258 804 233 804 c 2,13,-1
521 804 m 2,25,-1
 486 804 l 2,26,27
 461 804 461 804 461 829 c 2,28,-1
 461 875 l 2,29,30
 461 900 461 900 486 900 c 2,31,-1
 521 900 l 2,32,33
 546 900 546 900 546 875 c 2,34,-1
 546 829 l 2,35,24
 546 804 546 804 521 804 c 2,25,-1
477 19 m 0,37,38
 405 -10 405 -10 328 -10 c 0,39,40
 223 -10 223 -10 154 53.5 c 128,-1,41
 85 117 85 117 85 250 c 256,42,43
 85 383 85 383 154 446.5 c 128,-1,44
 223 510 223 510 328 510 c 0,45,46
 365 510 365 510 405 502 c 1,47,-1
 405 725 l 2,48,49
 405 750 405 750 430 750 c 2,50,-1
 465 750 l 2,51,52
 490 750 490 750 490 725 c 2,53,-1
 490 40 l 2,54,36
 490 26 490 26 477 19 c 0,37,38
338 436 m 0,56,57
 263 436 263 436 217 393.5 c 128,-1,58
 171 351 171 351 171 250 c 0,59,60
 171 154 171 154 213.5 111 c 128,-1,61
 256 68 256 68 328 68 c 0,62,63
 366 68 366 68 405 77 c 1,64,-1
 405 429 l 1,65,55
 366 436 366 436 338 436 c 0,56,57
EndSplineSet
Validated: 1
EndChar

StartChar: e.hex
Encoding: 65547 -1 215
Width: 575
Flags: W
LayerCount: 2
Fore
SplineSet
89 804 m 2,1,-1
 54 804 l 2,2,3
 29 804 29 804 29 829 c 2,4,-1
 29 875 l 2,5,6
 29 900 29 900 54 900 c 2,7,-1
 89 900 l 2,8,9
 114 900 114 900 114 875 c 2,10,-1
 114 829 l 2,11,0
 114 804 114 804 89 804 c 2,1,-1
233 804 m 2,13,-1
 198 804 l 2,14,15
 173 804 173 804 173 829 c 2,16,-1
 173 875 l 2,17,18
 173 900 173 900 198 900 c 2,19,-1
 233 900 l 2,20,21
 258 900 258 900 258 875 c 2,22,-1
 258 829 l 2,23,12
 258 804 258 804 233 804 c 2,13,-1
377 804 m 2,25,-1
 342 804 l 2,26,27
 317 804 317 804 317 829 c 2,28,-1
 317 875 l 2,29,30
 317 900 317 900 342 900 c 2,31,-1
 377 900 l 2,32,33
 402 900 402 900 402 875 c 2,34,-1
 402 829 l 2,35,24
 402 804 402 804 377 804 c 2,25,-1
494 41 m 0,37,38
 494 26 494 26 478 20 c 0,39,40
 408 -10 408 -10 328 -10 c 0,41,42
 223 -10 223 -10 154 53.5 c 128,-1,43
 85 117 85 117 85 250 c 0,44,45
 85 331 85 331 113 390 c 128,-1,46
 141 449 141 449 188 479.5 c 128,-1,47
 235 510 235 510 292 510 c 0,48,49
 344 510 344 510 389.5 483.5 c 128,-1,50
 435 457 435 457 462.5 406 c 128,-1,51
 490 355 490 355 490 285 c 2,52,-1
 490 262 l 2,53,54
 490 237 490 237 465 237 c 2,55,-1
 171 237 l 1,56,57
 174 149 174 149 219.5 108.5 c 128,-1,58
 265 68 265 68 332 68 c 0,59,60
 384 68 384 68 449 91 c 0,61,62
 453 93 453 93 460 93 c 0,63,64
 475 93 475 93 481 77 c 2,65,-1
 491 53 l 2,66,36
 494 47 494 47 494 41 c 0,37,38
217 402 m 128,-1,68
 183 370 183 370 178 314 c 1,69,-1
 405 314 l 1,70,71
 405 352 405 352 388 379 c 128,-1,72
 371 406 371 406 345.5 420 c 128,-1,73
 320 434 320 434 293 434 c 0,74,67
 251 434 251 434 217 402 c 128,-1,68
EndSplineSet
Validated: 1
EndChar

StartChar: f.hex
Encoding: 65548 -1 216
Width: 575
Flags: W
LayerCount: 2
Fore
SplineSet
89 804 m 2,1,-1
 54 804 l 2,2,3
 29 804 29 804 29 829 c 2,4,-1
 29 875 l 2,5,6
 29 900 29 900 54 900 c 2,7,-1
 89 900 l 2,8,9
 114 900 114 900 114 875 c 2,10,-1
 114 829 l 2,11,0
 114 804 114 804 89 804 c 2,1,-1
233 804 m 2,13,-1
 198 804 l 2,14,15
 173 804 173 804 173 829 c 2,16,-1
 173 875 l 2,17,18
 173 900 173 900 198 900 c 2,19,-1
 233 900 l 2,20,21
 258 900 258 900 258 875 c 2,22,-1
 258 829 l 2,23,12
 258 804 258 804 233 804 c 2,13,-1
377 804 m 2,25,-1
 342 804 l 2,26,27
 317 804 317 804 317 829 c 2,28,-1
 317 875 l 2,29,30
 317 900 317 900 342 900 c 2,31,-1
 377 900 l 2,32,33
 402 900 402 900 402 875 c 2,34,-1
 402 829 l 2,35,24
 402 804 402 804 377 804 c 2,25,-1
521 804 m 2,37,-1
 486 804 l 2,38,39
 461 804 461 804 461 829 c 2,40,-1
 461 875 l 2,41,42
 461 900 461 900 486 900 c 2,43,-1
 521 900 l 2,44,45
 546 900 546 900 546 875 c 2,46,-1
 546 829 l 2,47,36
 546 804 546 804 521 804 c 2,37,-1
465 669 m 0,49,50
 457 669 457 669 453 671 c 0,51,52
 415 685 415 685 378 685 c 0,53,54
 331 685 331 685 306.5 655 c 128,-1,55
 282 625 282 625 282 549 c 2,56,-1
 282 500 l 1,57,-1
 445 500 l 2,58,59
 470 500 470 500 470 475 c 2,60,-1
 470 449 l 2,61,62
 470 424 470 424 445 424 c 2,63,-1
 281 424 l 1,64,-1
 281 25 l 2,65,66
 281 0 281 0 256 0 c 2,67,-1
 221 0 l 2,68,69
 196 0 196 0 196 25 c 2,70,-1
 196 424 l 1,71,-1
 100 424 l 2,72,73
 75 424 75 424 75 449 c 2,74,-1
 75 475 l 2,75,76
 75 500 75 500 100 500 c 2,77,-1
 196 500 l 1,78,-1
 196 549 l 2,79,80
 196 661 196 661 247 712 c 128,-1,81
 298 763 298 763 378 763 c 0,82,83
 428 763 428 763 483 743 c 0,84,85
 500 737 500 737 500 723 c 0,86,87
 500 717 500 717 497 711 c 2,88,-1
 486 685 l 2,89,48
 479 669 479 669 465 669 c 0,49,50
EndSplineSet
Validated: 1
EndChar

StartChar: ordfeminine
Encoding: 170 170 217
Width: 575
Flags: W
LayerCount: 2
Fore
SplineSet
390 365 m 0,1,2
 324 357 324 357 281 357 c 0,3,4
 216 357 216 357 174.5 386.5 c 128,-1,5
 133 416 133 416 133 463 c 0,6,7
 133 511 133 511 174.5 540.5 c 128,-1,8
 216 570 216 570 283 570 c 2,9,-1
 338 570 l 1,10,-1
 338 586 l 2,11,12
 338 622 338 622 320 638 c 128,-1,13
 302 654 302 654 261 654 c 0,14,15
 237 654 237 654 202 647 c 0,16,17
 189 645 189 645 180.5 651 c 128,-1,18
 172 657 172 657 170 668 c 2,19,-1
 168 686 l 2,20,21
 167 712 167 712 189 716 c 0,22,23
 233 725 233 725 273 725 c 0,24,25
 415 725 415 725 415 586 c 2,26,-1
 415 393 l 2,27,0
 415 368 415 368 390 365 c 0,1,2
230 488 m 128,-1,29
 210 478 210 478 210 462 c 0,30,31
 210 447 210 447 230.5 437 c 128,-1,32
 251 427 251 427 285 427 c 0,33,34
 309 427 309 427 338 430 c 1,35,-1
 338 498 l 1,36,-1
 283 498 l 2,37,28
 250 498 250 498 230 488 c 128,-1,29
EndSplineSet
Validated: 33
EndChar

StartChar: ordmasculine
Encoding: 186 186 218
Width: 575
Flags: W
LayerCount: 2
Fore
SplineSet
394.5 665 m 128,-1,1
 433 615 433 615 433 530 c 256,2,3
 433 445 433 445 394.5 395 c 128,-1,4
 356 345 356 345 290 345 c 0,5,6
 223 345 223 345 183 395 c 128,-1,7
 143 445 143 445 143 530 c 256,8,9
 143 615 143 615 183 665 c 128,-1,10
 223 715 223 715 290 715 c 0,11,0
 356 715 356 715 394.5 665 c 128,-1,1
338 446.5 m 128,-1,13
 356 476 356 476 356 530 c 256,14,15
 356 584 356 584 338 613.5 c 128,-1,16
 320 643 320 643 288 643 c 256,17,18
 256 643 256 643 237.5 613 c 128,-1,19
 219 583 219 583 219 530 c 256,20,21
 219 477 219 477 237.5 447 c 128,-1,22
 256 417 256 417 288 417 c 256,23,12
 320 417 320 417 338 446.5 c 128,-1,13
EndSplineSet
Validated: 1
EndChar

StartChar: Gamma
Encoding: 915 915 221
Width: 575
Flags: W
LayerCount: 2
Fore
SplineSet
505 675 m 2,1,-1
 505 649 l 2,2,3
 505 624 505 624 480 624 c 2,4,-1
 155 624 l 1,5,-1
 155 25 l 2,6,7
 155 0 155 0 130 0 c 2,8,-1
 95 0 l 2,9,10
 70 0 70 0 70 25 c 2,11,-1
 70 675 l 2,12,13
 70 700 70 700 95 700 c 2,14,-1
 480 700 l 2,15,0
 505 700 505 700 505 675 c 2,1,-1
EndSplineSet
Validated: 1
EndChar

StartChar: uni0394
Encoding: 916 916 222
Width: 575
Flags: W
LayerCount: 2
Fore
SplineSet
559 19 m 0,1,2
 559 0 559 0 537 0 c 2,3,-1
 39 0 l 2,4,5
 16 0 16 0 16 19 c 0,6,7
 16 25 16 25 17 28 c 2,8,-1
 195 621 l 2,9,10
 208 665 208 665 233 688.5 c 128,-1,11
 258 712 258 712 287 712 c 256,12,13
 316 712 316 712 341.5 688 c 128,-1,14
 367 664 367 664 380 621 c 2,15,-1
 558 28 l 2,16,0
 559 25 559 25 559 19 c 0,1,2
460 75 m 1,17,-1
 297 607 l 2,18,19
 292 621 292 621 288 621 c 256,20,21
 284 621 284 621 279 607 c 2,22,-1
 115 75 l 1,23,-1
 460 75 l 1,17,-1
EndSplineSet
Validated: 1
EndChar

StartChar: Theta
Encoding: 920 920 226
Width: 575
Flags: W
LayerCount: 2
Fore
SplineSet
434.5 644 m 128,-1,1
 490 578 490 578 490 457 c 2,2,-1
 490 243 l 2,3,4
 490 122 490 122 434.5 56 c 128,-1,5
 379 -10 379 -10 288 -10 c 256,6,7
 197 -10 197 -10 141 55.5 c 128,-1,8
 85 121 85 121 85 243 c 2,9,-1
 85 457 l 2,10,11
 85 579 85 579 141 644.5 c 128,-1,12
 197 710 197 710 288 710 c 256,13,0
 379 710 379 710 434.5 644 c 128,-1,1
371.5 113.5 m 128,-1,15
 405 161 405 161 405 243 c 2,16,-1
 405 457 l 2,17,18
 405 539 405 539 371.5 586.5 c 128,-1,19
 338 634 338 634 288 634 c 0,20,21
 237 634 237 634 203.5 586 c 128,-1,22
 170 538 170 538 170 457 c 2,23,-1
 170 243 l 2,24,25
 170 162 170 162 203.5 114 c 128,-1,26
 237 66 237 66 288 66 c 0,27,14
 338 66 338 66 371.5 113.5 c 128,-1,15
251 389 m 2,29,-1
 320 389 l 2,30,31
 345 389 345 389 345 364 c 2,32,-1
 345 337 l 2,33,34
 345 312 345 312 320 312 c 2,35,-1
 251 312 l 2,36,37
 226 312 226 312 226 337 c 2,38,-1
 226 364 l 2,39,28
 226 389 226 389 251 389 c 2,29,-1
EndSplineSet
Validated: 1
EndChar

StartChar: Lambda
Encoding: 923 923 229
Width: 575
Flags: W
LayerCount: 2
Fore
SplineSet
558 28 m 2,0,1
 559 25 559 25 559 19 c 0,2,3
 559 0 559 0 537 0 c 2,4,-1
 501 0 l 2,5,6
 479 0 479 0 473 22 c 2,7,-1
 327 607 l 2,8,9
 324 620 324 620 314 627 c 128,-1,10
 304 634 304 634 288 634 c 256,11,12
 272 634 272 634 262 627 c 128,-1,13
 252 620 252 620 249 607 c 2,14,-1
 102 22 l 2,15,16
 98 0 98 0 74 0 c 2,17,-1
 39 0 l 2,18,19
 28 0 28 0 22 5.5 c 128,-1,20
 16 11 16 11 16 20 c 0,21,22
 16 25 16 25 17 28 c 2,23,-1
 165 621 l 2,24,25
 176 664 176 664 207.5 687 c 128,-1,26
 239 710 239 710 288 710 c 0,27,28
 336 710 336 710 368 687 c 128,-1,29
 400 664 400 664 410 621 c 2,30,-1
 558 28 l 2,0,1
EndSplineSet
Validated: 1
EndChar

StartChar: Xi
Encoding: 926 926 232
Width: 575
Flags: W
LayerCount: 2
Fore
SplineSet
81 649 m 2,1,-1
 81 675 l 2,2,3
 81 700 81 700 106 700 c 2,4,-1
 469 700 l 2,5,6
 494 700 494 700 494 675 c 2,7,-1
 494 649 l 2,8,9
 494 624 494 624 469 624 c 2,10,-1
 106 624 l 2,11,0
 81 624 81 624 81 649 c 2,1,-1
473 378 m 2,13,-1
 473 351 l 2,14,15
 473 326 473 326 448 326 c 2,16,-1
 127 326 l 2,17,18
 102 326 102 326 102 351 c 2,19,-1
 102 378 l 2,20,21
 102 403 102 403 127 403 c 2,22,-1
 448 403 l 2,23,12
 473 403 473 403 473 378 c 2,13,-1
516 52 m 2,25,-1
 516 25 l 2,26,27
 516 0 516 0 491 0 c 2,28,-1
 84 0 l 2,29,30
 59 0 59 0 59 25 c 2,31,-1
 59 52 l 2,32,33
 59 77 59 77 84 77 c 2,34,-1
 491 77 l 2,35,24
 516 77 516 77 516 52 c 2,25,-1
EndSplineSet
Validated: 1
EndChar

StartChar: Pi
Encoding: 928 928 234
Width: 575
Flags: W
LayerCount: 2
Fore
SplineSet
490 675 m 2,1,-1
 490 25 l 2,2,3
 490 0 490 0 465 0 c 2,4,-1
 430 0 l 2,5,6
 405 0 405 0 405 25 c 2,7,-1
 405 624 l 1,8,-1
 170 624 l 1,9,-1
 170 25 l 2,10,11
 170 0 170 0 145 0 c 2,12,-1
 110 0 l 2,13,14
 85 0 85 0 85 25 c 2,15,-1
 85 675 l 2,16,17
 85 700 85 700 110 700 c 2,18,-1
 465 700 l 2,19,0
 490 700 490 700 490 675 c 2,1,-1
EndSplineSet
Validated: 1
EndChar

StartChar: Phi
Encoding: 934 934 239
Width: 575
Flags: W
LayerCount: 2
Fore
SplineSet
330 624 m 1,0,-1
 330 550 l 1,1,2
 423 540 423 540 476.5 487 c 128,-1,3
 530 434 530 434 530 350 c 0,4,5
 530 267 530 267 476.5 214 c 128,-1,6
 423 161 423 161 330 150 c 1,7,-1
 330 76 l 1,8,-1
 529 76 l 2,9,10
 554 76 554 76 554 51 c 2,11,-1
 554 25 l 2,12,13
 554 0 554 0 529 0 c 2,14,-1
 47 0 l 2,15,16
 22 0 22 0 22 25 c 2,17,-1
 22 51 l 2,18,19
 22 76 22 76 46 76 c 2,20,-1
 245 76 l 1,21,-1
 245 150 l 1,22,23
 152 160 152 160 98.5 213 c 128,-1,24
 45 266 45 266 45 350 c 0,25,26
 45 433 45 433 98 485.5 c 128,-1,27
 151 538 151 538 245 549 c 1,28,-1
 245 624 l 1,29,-1
 46 624 l 2,30,31
 22 624 22 624 22 649 c 2,32,-1
 22 675 l 2,33,34
 22 700 22 700 47 700 c 2,35,-1
 529 700 l 2,36,37
 554 700 554 700 554 675 c 2,38,-1
 554 649 l 2,39,40
 554 624 554 624 529 624 c 2,41,-1
 330 624 l 1,0,-1
160.5 269 m 128,-1,43
 191 237 191 237 245 228 c 1,44,-1
 245 472 l 1,45,46
 191 462 191 462 160.5 430 c 128,-1,47
 130 398 130 398 130 350 c 0,48,42
 130 301 130 301 160.5 269 c 128,-1,43
414.5 431 m 128,-1,50
 384 463 384 463 330 472 c 1,51,-1
 330 228 l 1,52,53
 384 238 384 238 414.5 270 c 128,-1,54
 445 302 445 302 445 350 c 0,55,49
 445 399 445 399 414.5 431 c 128,-1,50
EndSplineSet
Validated: 1
EndChar

StartChar: Psi
Encoding: 936 936 241
Width: 575
Flags: W
LayerCount: 2
Fore
SplineSet
520 675 m 2,1,-1
 520 433 l 2,2,3
 520 339 520 339 472 285.5 c 128,-1,4
 424 232 424 232 330 222 c 1,5,-1
 330 25 l 2,6,7
 330 0 330 0 305 0 c 2,8,-1
 270 0 l 2,9,10
 245 0 245 0 245 25 c 2,11,-1
 245 222 l 1,12,13
 151 232 151 232 103 286 c 128,-1,14
 55 340 55 340 55 433 c 2,15,-1
 55 675 l 2,16,17
 55 700 55 700 80 700 c 2,18,-1
 115 700 l 2,19,20
 140 700 140 700 140 675 c 2,21,-1
 140 433 l 2,22,23
 140 379 140 379 166 345 c 128,-1,24
 192 311 192 311 245 301 c 1,25,-1
 245 675 l 2,26,27
 245 700 245 700 270 700 c 2,28,-1
 305 700 l 2,29,30
 330 700 330 700 330 675 c 2,31,-1
 330 301 l 1,32,33
 383 311 383 311 409 345 c 128,-1,34
 435 379 435 379 435 433 c 2,35,-1
 435 675 l 2,36,37
 435 700 435 700 460 700 c 2,38,-1
 495 700 l 2,39,0
 520 700 520 700 520 675 c 2,1,-1
EndSplineSet
Validated: 1
EndChar

StartChar: uni03A9
Encoding: 937 937 242
Width: 575
Flags: W
LayerCount: 2
Fore
SplineSet
513 51 m 2,1,-1
 513 25 l 2,2,3
 513 0 513 0 488 0 c 2,4,-1
 339 0 l 2,5,6
 314 0 314 0 314 25 c 2,7,-1
 314 147 l 2,8,9
 314 167 314 167 335 176 c 0,10,11
 405 207 405 207 405 343 c 2,12,-1
 405 457 l 2,13,14
 405 536 405 536 378.5 585 c 128,-1,15
 352 634 352 634 288 634 c 256,16,17
 224 634 224 634 197.5 585 c 128,-1,18
 171 536 171 536 171 457 c 2,19,-1
 171 343 l 2,20,21
 171 207 171 207 241 176 c 0,22,23
 262 167 262 167 262 147 c 2,24,-1
 262 25 l 2,25,26
 262 0 262 0 237 0 c 2,27,-1
 88 0 l 2,28,29
 63 0 63 0 63 25 c 2,30,-1
 63 51 l 2,31,32
 63 76 63 76 88 76 c 2,33,-1
 187 76 l 1,34,-1
 187 120 l 1,35,36
 86 178 86 178 86 343 c 2,37,-1
 86 457 l 2,38,39
 86 572 86 572 136 641 c 128,-1,40
 186 710 186 710 288 710 c 256,41,42
 390 710 390 710 440 641 c 128,-1,43
 490 572 490 572 490 457 c 2,44,-1
 490 343 l 2,45,46
 490 178 490 178 389 120 c 1,47,-1
 389 76 l 1,48,-1
 488 76 l 2,49,0
 513 76 513 76 513 51 c 2,1,-1
EndSplineSet
Validated: 1
EndChar

StartChar: alpha
Encoding: 945 945 243
Width: 575
Flags: W
LayerCount: 2
Fore
SplineSet
530 480 m 1,1,2
 530 487 530 487 524 420.5 c 128,-1,3
 518 354 518 354 483 250 c 1,4,5
 518 146 518 146 524 79.5 c 128,-1,6
 530 13 530 13 530 20 c 1,7,8
 530 0 530 0 506 0 c 2,9,-1
 479 0 l 2,10,11
 468 0 468 0 462 4.5 c 128,-1,12
 456 9 456 9 453 22 c 0,13,14
 452 26 452 26 450 42 c 0,15,16
 447 73 447 73 438 121 c 1,17,18
 365 -10 365 -10 252 -10 c 0,19,20
 166 -10 166 -10 105.5 48.5 c 128,-1,21
 45 107 45 107 45 250 c 256,22,23
 45 393 45 393 105.5 451.5 c 128,-1,24
 166 510 166 510 252 510 c 0,25,26
 365 510 365 510 438 379 c 1,27,28
 447 427 447 427 450 458 c 0,29,30
 452 475 452 475 453 478 c 0,31,32
 456 491 456 491 462 495.5 c 128,-1,33
 468 500 468 500 479 500 c 2,34,-1
 506 500 l 2,35,0
 530 500 530 500 530 480 c 1,1,2
344.5 115 m 128,-1,37
 383 163 383 163 421 250 c 1,38,39
 383 337 383 337 344.5 385 c 128,-1,40
 306 433 306 433 252 433 c 0,41,42
 205 433 205 433 167.5 392.5 c 128,-1,43
 130 352 130 352 130 250 c 256,44,45
 130 148 130 148 167.5 107.5 c 128,-1,46
 205 67 205 67 252 67 c 0,47,36
 306 67 306 67 344.5 115 c 128,-1,37
EndSplineSet
Validated: 33
EndChar

StartChar: beta
Encoding: 946 946 244
Width: 575
Flags: W
LayerCount: 2
Fore
SplineSet
427 659 m 128,-1,1
 473 618 473 618 473 541 c 0,2,3
 473 512 473 512 461 485.5 c 128,-1,4
 449 459 449 459 428 427 c 0,5,6
 414 404 414 404 408 392 c 128,-1,7
 402 380 402 380 402 370 c 0,8,9
 402 355 402 355 412 343 c 128,-1,10
 422 331 422 331 443 314 c 0,11,12
 476 287 476 287 494.5 261.5 c 128,-1,13
 513 236 513 236 513 194 c 0,14,15
 513 144 513 144 486.5 96.5 c 128,-1,16
 460 49 460 49 412 18.5 c 128,-1,17
 364 -12 364 -12 303 -12 c 0,18,19
 249 -12 249 -12 187 16 c 1,20,-1
 187 -175 l 2,21,22
 187 -200 187 -200 162 -200 c 2,23,-1
 127 -200 l 2,24,25
 102 -200 102 -200 102 -175 c 2,26,-1
 102 494 l 2,27,28
 102 596 102 596 151 648 c 128,-1,29
 200 700 200 700 294 700 c 0,30,0
 381 700 381 700 427 659 c 128,-1,1
214.5 591.5 m 128,-1,32
 187 559 187 559 187 494 c 2,33,-1
 187 86 l 1,34,35
 249 58 249 58 300 58 c 0,36,37
 345 58 345 58 374.5 79 c 128,-1,38
 404 100 404 100 418 132 c 128,-1,39
 432 164 432 164 432 197 c 0,40,41
 432 224 432 224 418 240.5 c 128,-1,42
 404 257 404 257 375 279 c 0,43,44
 346 299 346 299 331.5 316.5 c 128,-1,45
 317 334 317 334 317 363 c 0,46,47
 317 389 317 389 328.5 412.5 c 128,-1,48
 340 436 340 436 362 468 c 0,49,50
 379 493 379 493 386 506.5 c 128,-1,51
 393 520 393 520 393 533 c 0,52,53
 393 577 393 577 367.5 600.5 c 128,-1,54
 342 624 342 624 294 624 c 0,55,31
 242 624 242 624 214.5 591.5 c 128,-1,32
EndSplineSet
Validated: 1
EndChar

StartChar: gamma
Encoding: 947 947 245
Width: 575
Flags: W
LayerCount: 2
Fore
SplineSet
123 500 m 2,0,1
 145 500 145 500 151 479 c 2,2,-1
 255 63 l 1,3,-1
 286 63 l 2,4,5
 302 63 302 63 312 71 c 128,-1,6
 322 79 322 79 325 93 c 2,7,-1
 422 479 l 2,8,9
 427 500 427 500 449 500 c 2,10,-1
 485 500 l 2,11,12
 508 500 508 500 508 480 c 0,13,14
 508 475 508 475 507 472 c 2,15,-1
 409 80 l 2,16,17
 398 36 398 36 366.5 13 c 128,-1,18
 335 -10 335 -10 286 -10 c 2,19,-1
 273 -10 l 1,20,21
 300 -112 300 -112 305 -225 c 0,22,23
 305 -250 305 -250 280 -250 c 2,24,-1
 252 -250 l 2,25,26
 229 -250 229 -250 227 -226 c 0,27,28
 221 -151 221 -151 189 -21 c 2,29,-1
 66 472 l 2,30,31
 65 475 65 475 65 481 c 0,32,33
 65 500 65 500 87 500 c 2,34,-1
 123 500 l 2,0,1
EndSplineSet
Validated: 1
EndChar

StartChar: delta
Encoding: 948 948 246
Width: 575
Flags: W
LayerCount: 2
Fore
SplineSet
445.5 440.5 m 128,-1,1
 510 337 510 337 510 241 c 0,2,3
 510 114 510 114 453.5 49.5 c 128,-1,4
 397 -15 397 -15 285 -15 c 0,5,6
 183 -15 183 -15 124 53 c 128,-1,7
 65 121 65 121 65 238 c 0,8,9
 65 346 65 346 124 408.5 c 128,-1,10
 183 471 183 471 285 471 c 0,11,12
 317 471 317 471 338 467 c 1,13,14
 267 555 267 555 160 614 c 0,15,16
 142 623 142 623 142 643 c 2,17,-1
 142 675 l 2,18,19
 142 700 142 700 167 700 c 2,20,-1
 477 700 l 2,21,22
 502 700 502 700 502 675 c 2,23,-1
 502 648 l 2,24,25
 502 623 502 623 477 623 c 2,26,-1
 264 623 l 1,27,0
 381 544 381 544 445.5 440.5 c 128,-1,1
425 243 m 0,29,30
 425 313 425 313 392 382 c 1,31,32
 335 393 335 393 285 393 c 0,33,34
 223 393 223 393 186.5 351 c 128,-1,35
 150 309 150 309 150 238 c 0,36,37
 150 157 150 157 186.5 109.5 c 128,-1,38
 223 62 223 62 285 62 c 0,39,28
 425 62 425 62 425 243 c 0,29,30
EndSplineSet
Validated: 1
EndChar

StartChar: epsilon
Encoding: 949 949 247
Width: 575
Flags: W
LayerCount: 2
Fore
SplineSet
495 5.5 m 128,-1,1
 490 -3 490 -3 478 -4 c 0,2,3
 423 -13 423 -13 342 -13 c 0,4,5
 85 -13 85 -13 85 127 c 0,6,7
 85 173 85 173 120 203.5 c 128,-1,8
 155 234 155 234 220 249 c 1,9,10
 95 275 95 275 95 370 c 0,11,12
 95 435 95 435 160 472.5 c 128,-1,13
 225 510 225 510 342 510 c 0,14,15
 423 510 423 510 478 501 c 0,16,17
 490 500 490 500 495 491.5 c 128,-1,18
 500 483 500 483 498 471 c 2,19,-1
 491 444 l 2,20,21
 485 422 485 422 461 425 c 0,22,23
 424 432 424 432 342 434 c 0,24,25
 264 434 264 434 222 417 c 128,-1,26
 180 400 180 400 180 370 c 0,27,28
 180 349 180 349 199 330 c 128,-1,29
 218 311 218 311 254.5 299 c 128,-1,30
 291 287 291 287 342 287 c 0,31,32
 367 287 367 287 367 262 c 2,33,-1
 367 235 l 2,34,35
 367 210 367 210 342 210 c 0,36,37
 291 210 291 210 252 198 c 128,-1,38
 213 186 213 186 191.5 167 c 128,-1,39
 170 148 170 148 170 127 c 0,40,41
 170 63 170 63 342 63 c 0,42,43
 424 65 424 65 461 72 c 0,44,45
 485 75 485 75 491 53 c 2,46,-1
 498 26 l 2,47,0
 500 14 500 14 495 5.5 c 128,-1,1
EndSplineSet
Validated: 33
EndChar

StartChar: zeta
Encoding: 950 950 248
Width: 575
Flags: W
LayerCount: 2
Fore
SplineSet
310 62 m 0,1,2
 386 62 386 62 429 39 c 128,-1,3
 472 16 472 16 491 -37.5 c 128,-1,4
 510 -91 510 -91 510 -186 c 0,5,6
 510 -212 510 -212 485 -212 c 2,7,-1
 450 -212 l 2,8,9
 425 -212 425 -212 425 -186 c 0,10,11
 425 -122 425 -122 416 -86 c 128,-1,12
 407 -50 407 -50 382 -32.5 c 128,-1,13
 357 -15 357 -15 310 -15 c 0,14,15
 198 -15 198 -15 141.5 49.5 c 128,-1,16
 85 114 85 114 85 241 c 0,17,18
 85 337 85 337 149.5 440.5 c 128,-1,19
 214 544 214 544 331 623 c 1,20,-1
 118 623 l 2,21,22
 93 623 93 623 93 648 c 2,23,-1
 93 675 l 2,24,25
 93 700 93 700 118 700 c 2,26,-1
 428 700 l 2,27,28
 453 700 453 700 453 675 c 2,29,-1
 453 643 l 2,30,31
 453 623 453 623 435 614 c 0,32,33
 321 551 321 551 245.5 451 c 128,-1,34
 170 351 170 351 170 243 c 0,35,0
 170 62 170 62 310 62 c 0,1,2
EndSplineSet
Validated: 1
EndChar

StartChar: eta
Encoding: 951 951 249
Width: 575
Flags: W
LayerCount: 2
Fore
SplineSet
108 498 m 0,1,2
 188 510 188 510 278 510 c 0,3,4
 390 510 390 510 440 463.5 c 128,-1,5
 490 417 490 417 490 308 c 2,6,-1
 490 -225 l 2,7,8
 490 -250 490 -250 465 -250 c 2,9,-1
 430 -250 l 2,10,11
 405 -250 405 -250 405 -225 c 2,12,-1
 405 308 l 2,13,14
 405 378 405 378 376 406 c 128,-1,15
 347 434 347 434 278 434 c 0,16,17
 230 434 230 434 170 430 c 1,18,-1
 170 25 l 2,19,20
 170 0 170 0 145 0 c 2,21,-1
 110 0 l 2,22,23
 85 0 85 0 85 25 c 2,24,-1
 85 471 l 2,25,0
 85 493 85 493 108 498 c 0,1,2
EndSplineSet
Validated: 1
EndChar

StartChar: theta
Encoding: 952 952 250
Width: 575
Flags: W
LayerCount: 2
Fore
SplineSet
439 619.5 m 128,-1,1
 490 529 490 529 490 350 c 256,2,3
 490 171 490 171 439 80.5 c 128,-1,4
 388 -10 388 -10 288 -10 c 0,5,6
 187 -10 187 -10 136 81 c 128,-1,7
 85 172 85 172 85 350 c 256,8,9
 85 528 85 528 136 619 c 128,-1,10
 187 710 187 710 288 710 c 0,11,0
 388 710 388 710 439 619.5 c 128,-1,1
370.5 572 m 128,-1,13
 341 634 341 634 288 634 c 0,14,15
 234 634 234 634 204.5 572 c 128,-1,16
 175 510 175 510 171 389 c 1,17,-1
 404 389 l 1,18,12
 400 510 400 510 370.5 572 c 128,-1,13
204.5 128.5 m 128,-1,20
 234 67 234 67 288 67 c 0,21,22
 341 67 341 67 370.5 128.5 c 128,-1,23
 400 190 400 190 404 311 c 1,24,-1
 171 311 l 1,25,19
 175 190 175 190 204.5 128.5 c 128,-1,20
EndSplineSet
Validated: 1
EndChar

StartChar: iota
Encoding: 953 953 251
Width: 575
Flags: W
LayerCount: 2
Fore
SplineSet
446 20 m 0,1,2
 446 4 446 4 427 0 c 0,3,4
 386 -10 386 -10 339 -10 c 0,5,6
 254 -10 254 -10 214.5 28.5 c 128,-1,7
 175 67 175 67 175 150 c 2,8,-1
 175 476 l 2,9,10
 174 501 174 501 200 501 c 2,11,-1
 235 501 l 2,12,13
 260 501 260 501 260 476 c 2,14,-1
 260 150 l 2,15,16
 260 105 260 105 277.5 86.5 c 128,-1,17
 295 68 295 68 339 67 c 0,18,19
 375 67 375 67 404 74 c 0,20,21
 407 75 407 75 412 75 c 0,22,23
 428 75 428 75 436 57 c 2,24,-1
 444 31 l 2,25,0
 446 27 446 27 446 20 c 0,1,2
EndSplineSet
Validated: 33
EndChar

StartChar: kappa
Encoding: 954 954 252
Width: 575
Flags: W
LayerCount: 2
Fore
SplineSet
511 14 m 0,1,2
 511 8 511 8 505 4 c 128,-1,3
 499 0 499 0 489 0 c 2,4,-1
 431 0 l 2,5,6
 413 0 413 0 400 13 c 2,7,-1
 200 214 l 2,8,9
 178 236 178 236 170 236 c 1,10,-1
 170 25 l 2,11,12
 170 0 170 0 145 0 c 2,13,-1
 110 0 l 2,14,15
 85 0 85 0 85 25 c 2,16,-1
 85 476 l 2,17,18
 85 501 85 501 110 501 c 2,19,-1
 145 501 l 2,20,21
 170 501 170 501 170 476 c 2,22,-1
 170 285 l 1,23,24
 178 285 178 285 200 307 c 2,25,-1
 380 487 l 2,26,27
 393 500 393 500 411 500 c 2,28,-1
 469 500 l 2,29,30
 479 500 479 500 485 496 c 128,-1,31
 491 492 491 492 491 486 c 0,32,33
 491 478 491 478 482 469 c 2,34,-1
 300 287 l 2,35,36
 291 278 291 278 281.5 272 c 128,-1,37
 272 266 272 266 253 260 c 1,38,39
 272 254 272 254 281.5 248 c 128,-1,40
 291 242 291 242 300 233 c 2,41,-1
 502 31 l 2,42,0
 511 22 511 22 511 14 c 0,1,2
EndSplineSet
Validated: 1
EndChar

StartChar: lambda
Encoding: 955 955 253
Width: 575
Flags: W
LayerCount: 2
Fore
SplineSet
239 638 m 128,-1,1
 288 589 288 589 325 500 c 2,2,-1
 523 29 l 2,3,4
 525 25 525 25 525 18 c 0,5,6
 525 10 525 10 519 5 c 128,-1,7
 513 0 513 0 503 0 c 2,8,-1
 466 0 l 2,9,10
 444 0 444 0 437 19 c 2,11,-1
 286 392 l 1,12,-1
 138 19 l 2,13,14
 131 0 131 0 109 0 c 2,15,-1
 72 0 l 2,16,17
 62 0 62 0 56 5 c 128,-1,18
 50 10 50 10 50 18 c 0,19,20
 50 25 50 25 52 29 c 2,21,-1
 242 482 l 1,22,23
 212 552 212 552 182.5 582.5 c 128,-1,24
 153 613 153 613 118 613 c 0,25,26
 93 613 93 613 93 638 c 2,27,-1
 93 662 l 2,28,29
 93 687 93 687 118 687 c 0,30,0
 190 687 190 687 239 638 c 128,-1,1
EndSplineSet
Validated: 1
EndChar

StartChar: uni03BC
Encoding: 956 956 254
Width: 575
Flags: W
LayerCount: 2
Fore
SplineSet
490 475 m 2,1,-1
 490 29 l 2,2,3
 490 7 490 7 467 2 c 0,4,5
 387 -10 387 -10 297 -10 c 0,6,7
 253 -10 253 -10 222.5 -1 c 128,-1,8
 192 8 192 8 170 33 c 1,9,-1
 170 -225 l 2,10,11
 170 -250 170 -250 145 -250 c 2,12,-1
 110 -250 l 2,13,14
 85 -250 85 -250 85 -225 c 2,15,-1
 85 475 l 2,16,17
 85 500 85 500 110 500 c 2,18,-1
 145 500 l 2,19,20
 170 500 170 500 170 475 c 2,21,-1
 170 192 l 2,22,23
 170 122 170 122 199 94 c 128,-1,24
 228 66 228 66 297 66 c 0,25,26
 345 66 345 66 405 70 c 1,27,-1
 405 475 l 2,28,29
 405 500 405 500 430 500 c 2,30,-1
 465 500 l 2,31,0
 490 500 490 500 490 475 c 2,1,-1
EndSplineSet
Validated: 1
EndChar

StartChar: xi
Encoding: 958 958 256
Width: 575
Flags: W
LayerCount: 2
Fore
SplineSet
431 -155 m 0,1,2
 431 -76 431 -76 412 -44.5 c 128,-1,3
 393 -13 393 -13 342 -13 c 0,4,5
 205 -13 205 -13 135 37.5 c 128,-1,6
 65 88 65 88 65 188 c 0,7,8
 65 243 65 243 107 288 c 128,-1,9
 149 333 149 333 220 349 c 1,10,11
 95 376 95 376 95 508 c 0,12,13
 95 560 95 560 121 606 c 128,-1,14
 147 652 147 652 202.5 681 c 128,-1,15
 258 710 258 710 342 710 c 0,16,17
 423 710 423 710 478 701 c 0,18,19
 490 700 490 700 495 691.5 c 128,-1,20
 500 683 500 683 498 671 c 2,21,-1
 491 644 l 2,22,23
 485 622 485 622 461 625 c 0,24,25
 416 634 416 634 342 634 c 0,26,27
 256 634 256 634 218.5 600.5 c 128,-1,28
 181 567 181 567 181 515 c 0,29,30
 181 462 181 462 221 424.5 c 128,-1,31
 261 387 261 387 342 387 c 0,32,33
 367 387 367 387 367 362 c 2,34,-1
 367 335 l 2,35,36
 367 310 367 310 342 310 c 0,37,38
 286 310 286 310 242.5 292 c 128,-1,39
 199 274 199 274 175.5 244.5 c 128,-1,40
 152 215 152 215 152 183 c 0,41,42
 152 124 152 124 200 93.5 c 128,-1,43
 248 63 248 63 342 63 c 0,44,45
 434 63 434 63 475 11.5 c 128,-1,46
 516 -40 516 -40 516 -155 c 0,47,48
 516 -180 516 -180 491 -180 c 2,49,-1
 456 -180 l 2,50,0
 431 -180 431 -180 431 -155 c 0,1,2
EndSplineSet
Validated: 33
EndChar

StartChar: pi
Encoding: 960 960 258
Width: 575
Flags: W
LayerCount: 2
Fore
SplineSet
70 449 m 2,1,-1
 70 475 l 2,2,3
 70 500 70 500 95 500 c 2,4,-1
 480 500 l 2,5,6
 505 500 505 500 505 475 c 2,7,-1
 505 449 l 2,8,9
 505 424 505 424 480 423 c 2,10,-1
 435 423 l 1,11,-1
 435 220 l 2,12,13
 435 143 435 143 439 102.5 c 128,-1,14
 443 62 443 62 459 23 c 0,15,16
 461 17 461 17 461 14 c 0,17,18
 461 0 461 0 440 0 c 2,19,-1
 405 0 l 2,20,21
 384 0 384 0 374 23 c 0,22,23
 358 62 358 62 354 102.5 c 128,-1,24
 350 143 350 143 350 220 c 2,25,-1
 350 423 l 1,26,-1
 225 423 l 1,27,-1
 225 25 l 2,28,29
 225 0 225 0 200 0 c 2,30,-1
 165 0 l 2,31,32
 140 0 140 0 140 25 c 2,33,-1
 140 424 l 1,34,-1
 95 424 l 2,35,0
 70 424 70 424 70 449 c 2,1,-1
EndSplineSet
Validated: 1
EndChar

StartChar: rho
Encoding: 961 961 259
Width: 575
Flags: W
LayerCount: 2
Fore
SplineSet
106 401.5 m 128,-1,1
 127 461 127 461 171 486.5 c 128,-1,2
 215 512 215 512 289 512 c 0,3,4
 396 512 396 512 443 451 c 128,-1,5
 490 390 490 390 490 252 c 0,6,7
 490 158 490 158 467 101 c 128,-1,8
 444 44 444 44 393.5 17.5 c 128,-1,9
 343 -9 343 -9 259 -9 c 0,10,11
 218 -9 218 -9 170 -4 c 1,12,-1
 170 -225 l 2,13,14
 170 -250 170 -250 145 -250 c 2,15,-1
 110 -250 l 2,16,17
 85 -250 85 -250 85 -225 c 2,18,-1
 85 240 l 2,19,0
 85 342 85 342 106 401.5 c 128,-1,1
259 68 m 0,21,22
 315 68 315 68 346.5 86 c 128,-1,23
 378 104 378 104 391.5 143.5 c 128,-1,24
 405 183 405 183 405 252 c 0,25,26
 405 349 405 349 378 392 c 128,-1,27
 351 435 351 435 289 435 c 0,28,29
 246 435 246 435 220 417.5 c 128,-1,30
 194 400 194 400 182 357.5 c 128,-1,31
 170 315 170 315 170 240 c 2,32,-1
 170 72 l 1,33,20
 219 68 219 68 259 68 c 0,21,22
EndSplineSet
Validated: 1
EndChar

StartChar: sigma
Encoding: 963 963 260
Width: 575
Flags: W
LayerCount: 2
Fore
SplineSet
510 241 m 0,1,2
 510 114 510 114 453.5 49.5 c 128,-1,3
 397 -15 397 -15 285 -15 c 0,4,5
 183 -15 183 -15 124 57 c 128,-1,6
 65 129 65 129 65 253 c 0,7,8
 65 370 65 370 129 435 c 128,-1,9
 193 500 193 500 315 500 c 2,10,-1
 505 500 l 2,11,12
 530 500 530 500 530 475 c 2,13,-1
 530 448 l 2,14,15
 530 423 530 423 505 423 c 2,16,-1
 457 423 l 1,17,0
 510 329 510 329 510 241 c 0,1,2
191 378.5 m 128,-1,19
 150 334 150 334 150 253 c 0,20,21
 150 165 150 165 186.5 113.5 c 128,-1,22
 223 62 223 62 285 62 c 0,23,24
 425 62 425 62 425 243 c 0,25,26
 425 332 425 332 369 423 c 1,27,-1
 315 423 l 2,28,18
 232 423 232 423 191 378.5 c 128,-1,19
EndSplineSet
Validated: 1
EndChar

StartChar: tau
Encoding: 964 964 261
Width: 575
Flags: W
LayerCount: 2
Fore
SplineSet
516 20 m 0,1,2
 516 4 516 4 497 0 c 0,3,4
 456 -10 456 -10 409 -10 c 0,5,6
 324 -10 324 -10 284.5 28.5 c 128,-1,7
 245 67 245 67 245 150 c 2,8,-1
 245 424 l 1,9,-1
 95 424 l 2,10,11
 70 424 70 424 70 449 c 2,12,-1
 70 475 l 2,13,14
 70 500 70 500 95 500 c 2,15,-1
 480 500 l 2,16,17
 505 500 505 500 505 475 c 2,18,-1
 505 449 l 2,19,20
 505 424 505 424 480 423 c 2,21,-1
 330 423 l 1,22,-1
 330 150 l 2,23,24
 330 105 330 105 347.5 86.5 c 128,-1,25
 365 68 365 68 409 67 c 0,26,27
 445 67 445 67 474 74 c 0,28,29
 477 75 477 75 482 75 c 0,30,31
 498 75 498 75 506 57 c 2,32,-1
 514 31 l 2,33,0
 516 27 516 27 516 20 c 0,1,2
EndSplineSet
Validated: 1
EndChar

StartChar: phi
Encoding: 966 966 263
Width: 575
Flags: W
LayerCount: 2
Fore
SplineSet
506 467.5 m 128,-1,1
 540 425 540 425 540 330 c 2,2,-1
 540 210 l 2,3,4
 540 98 540 98 491 49 c 128,-1,5
 442 0 442 0 330 0 c 1,6,-1
 330 -96 l 2,7,8
 330 -121 330 -121 305 -121 c 2,9,-1
 270 -121 l 2,10,11
 245 -121 245 -121 245 -96 c 2,12,-1
 245 0 l 1,13,14
 133 0 133 0 84 49 c 128,-1,15
 35 98 35 98 35 210 c 2,16,-1
 35 395 l 2,17,18
 35 420 35 420 60 420 c 2,19,-1
 95 420 l 2,20,21
 120 420 120 420 120 395 c 2,22,-1
 120 210 l 2,23,24
 120 139 120 139 149 108 c 128,-1,25
 178 77 178 77 245 77 c 1,26,-1
 246 330 l 2,27,28
 246 425 246 425 281 467.5 c 128,-1,29
 316 510 316 510 395 510 c 0,30,0
 472 510 472 510 506 467.5 c 128,-1,1
441 409 m 128,-1,32
 427 433 427 433 395 433 c 0,33,34
 360 433 360 433 345 409.5 c 128,-1,35
 330 386 330 386 330 333 c 2,36,-1
 330 77 l 1,37,38
 397 77 397 77 426 108 c 128,-1,39
 455 139 455 139 455 210 c 2,40,-1
 455 330 l 2,41,31
 455 385 455 385 441 409 c 128,-1,32
EndSplineSet
Validated: 1
EndChar

StartChar: chi
Encoding: 967 967 264
Width: 575
Flags: W
LayerCount: 2
Fore
SplineSet
510 -41 m 0,1,2
 535 -38 535 -38 538 -63 c 2,3,-1
 541 -87 l 2,4,5
 544 -112 544 -112 520 -115 c 2,6,-1
 494 -116 l 2,7,8
 439 -116 439 -116 392.5 -75 c 128,-1,9
 346 -34 346 -34 301 83 c 2,10,-1
 290 112 l 1,11,-1
 137 -121 l 2,12,13
 128 -133 128 -133 117 -133 c 0,14,15
 110 -133 110 -133 102 -128 c 2,16,-1
 83 -116 l 2,17,18
 71 -107 71 -107 71 -96 c 0,19,20
 71 -89 71 -89 76 -81 c 2,21,-1
 256 198 l 1,22,-1
 226 276 l 2,23,24
 193 360 193 360 166 394 c 128,-1,25
 139 428 139 428 112 428 c 0,26,27
 102 428 102 428 96 427 c 0,28,29
 71 426 71 426 68 449 c 2,30,-1
 65 473 l 2,31,32
 62 498 62 498 86 501 c 2,33,-1
 112 502 l 2,34,35
 167 502 167 502 213.5 461 c 128,-1,36
 260 420 260 420 305 303 c 2,37,-1
 312 285 l 1,38,-1
 440 484 l 2,39,40
 450 500 450 500 470 500 c 2,41,-1
 509 500 l 2,42,43
 530 500 530 500 530 485 c 0,44,45
 530 476 530 476 525 470 c 2,46,-1
 346 197 l 1,47,-1
 380 110 l 2,48,49
 413 26 413 26 440 -8 c 128,-1,50
 467 -42 467 -42 494 -42 c 0,51,0
 504 -42 504 -42 510 -41 c 0,1,2
EndSplineSet
Validated: 33
EndChar

StartChar: psi
Encoding: 968 968 265
Width: 575
Flags: W
LayerCount: 2
Fore
SplineSet
540 475 m 2,1,-1
 540 210 l 2,2,3
 540 98 540 98 491 49 c 128,-1,4
 442 0 442 0 330 0 c 1,5,-1
 330 -96 l 2,6,7
 330 -121 330 -121 305 -121 c 2,8,-1
 270 -121 l 2,9,10
 245 -121 245 -121 245 -96 c 2,11,-1
 245 0 l 1,12,13
 133 0 133 0 84 49 c 128,-1,14
 35 98 35 98 35 210 c 2,15,-1
 35 475 l 2,16,17
 35 500 35 500 60 500 c 2,18,-1
 95 500 l 2,19,20
 120 500 120 500 120 475 c 2,21,-1
 120 210 l 2,22,23
 120 139 120 139 149 108 c 128,-1,24
 178 77 178 77 245 77 c 1,25,-1
 245 475 l 2,26,27
 245 500 245 500 270 500 c 2,28,-1
 305 500 l 2,29,30
 330 500 330 500 330 475 c 2,31,-1
 330 77 l 1,32,33
 397 77 397 77 426 108 c 128,-1,34
 455 139 455 139 455 210 c 2,35,-1
 455 475 l 2,36,37
 455 500 455 500 480 500 c 2,38,-1
 515 500 l 2,39,0
 540 500 540 500 540 475 c 2,1,-1
EndSplineSet
Validated: 1
EndChar

StartChar: omega
Encoding: 969 969 266
Width: 575
Flags: W
LayerCount: 2
Fore
SplineSet
458 502 m 0,1,2
 461 502 461 502 467 500 c 0,3,4
 507 484 507 484 526 443 c 128,-1,5
 545 402 545 402 545 330 c 2,6,-1
 545 170 l 2,7,8
 545 75 545 75 509.5 32.5 c 128,-1,9
 474 -10 474 -10 395 -10 c 0,10,11
 355 -10 355 -10 329 5 c 128,-1,12
 303 20 303 20 288 55 c 1,13,14
 273 20 273 20 246.5 5 c 128,-1,15
 220 -10 220 -10 180 -10 c 0,16,17
 101 -10 101 -10 65.5 32.5 c 128,-1,18
 30 75 30 75 30 170 c 2,19,-1
 30 330 l 2,20,21
 30 402 30 402 49 443 c 128,-1,22
 68 484 68 484 108 500 c 0,23,24
 114 502 114 502 117 502 c 0,25,26
 132 502 132 502 139 484 c 2,27,-1
 151 453 l 2,28,29
 153 445 153 445 153 443 c 0,30,31
 153 437 153 437 149 431.5 c 128,-1,32
 145 426 145 426 139 421 c 0,33,34
 115 400 115 400 115 330 c 2,35,-1
 115 170 l 2,36,37
 115 115 115 115 130 91 c 128,-1,38
 145 67 145 67 180 67 c 256,39,40
 215 67 215 67 230 91 c 128,-1,41
 245 115 245 115 245 170 c 2,42,-1
 245 305 l 2,43,44
 245 330 245 330 270 330 c 2,45,-1
 305 330 l 2,46,47
 330 330 330 330 330 305 c 2,48,-1
 330 170 l 2,49,50
 330 115 330 115 345 91 c 128,-1,51
 360 67 360 67 395 67 c 256,52,53
 430 67 430 67 445 91 c 128,-1,54
 460 115 460 115 460 170 c 2,55,-1
 460 330 l 2,56,57
 460 400 460 400 436 421 c 0,58,59
 430 426 430 426 426 431.5 c 128,-1,60
 422 437 422 437 422 443 c 0,61,62
 422 445 422 445 424 453 c 2,63,-1
 436 484 l 2,64,0
 443 502 443 502 458 502 c 0,1,2
EndSplineSet
Validated: 1
EndChar

StartChar: zero
Encoding: 48 48 267
Width: 575
Flags: W
LayerCount: 2
Fore
SplineSet
411.5 666.5 m 128,-1,1
 464 623 464 623 492 541.5 c 128,-1,2
 520 460 520 460 520 350 c 256,3,4
 520 240 520 240 492 158.5 c 128,-1,5
 464 77 464 77 411.5 33.5 c 128,-1,6
 359 -10 359 -10 288 -10 c 256,7,8
 217 -10 217 -10 164 33.5 c 128,-1,9
 111 77 111 77 83 158.5 c 128,-1,10
 55 240 55 240 55 350 c 256,11,12
 55 460 55 460 83 541.5 c 128,-1,13
 111 623 111 623 164 666.5 c 128,-1,14
 217 710 217 710 288 710 c 256,15,0
 359 710 359 710 411.5 666.5 c 128,-1,1
180 557.5 m 128,-1,17
 140 481 140 481 140 350 c 0,18,19
 140 309 140 309 145 264 c 1,20,-1
 409 528 l 1,21,22
 390 579 390 579 359 606.5 c 128,-1,23
 328 634 328 634 288 634 c 0,24,16
 220 634 220 634 180 557.5 c 128,-1,17
395.5 143 m 128,-1,26
 435 219 435 219 435 350 c 0,27,28
 435 392 435 392 430 437 c 1,29,-1
 167 174 l 1,30,31
 186 122 186 122 217 94.5 c 128,-1,32
 248 67 248 67 288 67 c 0,33,25
 356 67 356 67 395.5 143 c 128,-1,26
EndSplineSet
Validated: 1
EndChar

StartChar: one
Encoding: 49 49 268
Width: 575
Flags: W
LayerCount: 2
Fore
SplineSet
490 52 m 2,1,-1
 490 25 l 2,2,3
 490 0 490 0 465 0 c 2,4,-1
 110 0 l 2,5,6
 85 0 85 0 85 25 c 2,7,-1
 85 52 l 2,8,9
 85 77 85 77 110 77 c 2,10,-1
 277 77 l 1,11,-1
 277 520 l 1,12,-1
 110 520 l 2,13,14
 85 520 85 520 85 545 c 2,15,-1
 85 572 l 2,16,17
 85 597 85 597 110 597 c 0,18,19
 185 597 185 597 227 615.5 c 128,-1,20
 269 634 269 634 289 680 c 0,21,22
 298 700 298 700 318 700 c 2,23,-1
 337 700 l 2,24,25
 362 700 362 700 362 675 c 2,26,-1
 362 77 l 1,27,-1
 465 77 l 2,28,0
 490 77 490 77 490 52 c 2,1,-1
EndSplineSet
Validated: 1
EndChar

StartChar: two
Encoding: 50 50 269
Width: 575
Flags: W
LayerCount: 2
Fore
SplineSet
514 52 m 2,1,-1
 514 24 l 2,2,3
 514 -1 514 -1 489 -1 c 2,4,-1
 109 -1 l 2,5,6
 84 -1 84 -1 84 24 c 2,7,-1
 84 48 l 2,8,9
 84 110 84 110 111 158.5 c 128,-1,10
 138 207 138 207 171 237 c 128,-1,11
 204 267 204 267 259 309 c 0,12,13
 312 351 312 351 342 379 c 128,-1,14
 372 407 372 407 391 440.5 c 128,-1,15
 410 474 410 474 410 514 c 0,16,17
 410 632 410 632 265 632 c 0,18,19
 208 632 208 632 140 608 c 0,20,21
 132 606 132 606 129 606 c 0,22,23
 115 606 115 606 107 623 c 2,24,-1
 98 649 l 2,25,26
 96 653 96 653 96 660 c 0,27,28
 96 675 96 675 112 681 c 0,29,30
 189 710 189 710 265 710 c 0,31,32
 365 710 365 710 430.5 661 c 128,-1,33
 496 612 496 612 496 514 c 0,34,35
 496 457 496 457 470.5 410.5 c 128,-1,36
 445 364 445 364 408.5 329.5 c 128,-1,37
 372 295 372 295 312 248 c 0,38,39
 243 195 243 195 209 158.5 c 128,-1,40
 175 122 175 122 170 77 c 1,41,-1
 489 77 l 2,42,0
 514 77 514 77 514 52 c 2,1,-1
EndSplineSet
Validated: 1
EndChar

StartChar: three
Encoding: 51 51 270
Width: 575
Flags: W
LayerCount: 2
Fore
SplineSet
114 674 m 0,1,2
 114 692 114 692 132 696 c 0,3,4
 188 710 188 710 248 710 c 0,5,6
 346 710 346 710 413 666.5 c 128,-1,7
 480 623 480 623 480 531 c 0,8,9
 480 474 480 474 451.5 434.5 c 128,-1,10
 423 395 423 395 366 364 c 1,11,12
 419 340 419 340 454.5 291.5 c 128,-1,13
 490 243 490 243 490 177 c 0,14,15
 490 83 490 83 418 36.5 c 128,-1,16
 346 -10 346 -10 243 -10 c 0,17,18
 180 -10 180 -10 122 4 c 0,19,20
 104 8 104 8 104 26 c 0,21,22
 104 32 104 32 105 35 c 2,23,-1
 113 63 l 2,24,25
 117 80 117 80 134 80 c 0,26,27
 140 80 140 80 144 79 c 0,28,29
 191 68 191 68 243 68 c 0,30,31
 404 68 404 68 404 189 c 0,32,33
 404 249 404 249 361 286.5 c 128,-1,34
 318 324 318 324 250 324 c 2,35,-1
 199 324 l 2,36,37
 174 324 174 324 174 349 c 2,38,-1
 174 376 l 2,39,40
 174 401 174 401 199 401 c 2,41,-1
 250 401 l 2,42,43
 317 401 317 401 355.5 433 c 128,-1,44
 394 465 394 465 394 526 c 0,45,46
 394 583 394 583 357 607.5 c 128,-1,47
 320 632 320 632 248 632 c 0,48,49
 201 632 201 632 154 621 c 0,50,51
 150 620 150 620 144 620 c 0,52,53
 127 620 127 620 123 637 c 2,54,-1
 115 665 l 2,55,0
 114 668 114 668 114 674 c 0,1,2
EndSplineSet
Validated: 1
EndChar

StartChar: four
Encoding: 52 52 271
Width: 575
Flags: W
LayerCount: 2
Fore
SplineSet
510 196 m 2,1,-1
 510 170 l 2,2,3
 510 145 510 145 485 145 c 2,4,-1
 430 145 l 1,5,-1
 430 25 l 2,6,7
 430 0 430 0 405 0 c 2,8,-1
 370 0 l 2,9,10
 346 0 346 0 346 25 c 2,11,-1
 346 145 l 1,12,-1
 97 145 l 2,13,14
 73 145 73 145 73 169 c 2,15,-1
 73 209 l 2,16,17
 73 226 73 226 80 240 c 2,18,-1
 298 677 l 2,19,20
 304 690 304 690 312 695 c 128,-1,21
 320 700 320 700 335 700 c 2,22,-1
 371 700 l 2,23,24
 382 700 382 700 388 695.5 c 128,-1,25
 394 691 394 691 394 683 c 0,26,27
 394 680 394 680 390 670 c 2,28,-1
 165 221 l 1,29,-1
 346 221 l 1,30,-1
 346 392 l 2,31,32
 346 417 346 417 371 417 c 2,33,-1
 406 417 l 2,34,35
 431 417 431 417 431 392 c 2,36,-1
 431 221 l 1,37,-1
 485 221 l 2,38,0
 510 221 510 221 510 196 c 2,1,-1
EndSplineSet
Validated: 1
EndChar

StartChar: five
Encoding: 53 53 272
Width: 575
Flags: W
LayerCount: 2
Fore
SplineSet
435 375.5 m 128,-1,1
 493 320 493 320 493 211 c 0,2,3
 493 101 493 101 431 45.5 c 128,-1,4
 369 -10 369 -10 246 -10 c 0,5,6
 183 -10 183 -10 125 4 c 0,7,8
 107 8 107 8 107 26 c 0,9,10
 107 32 107 32 108 35 c 2,11,-1
 116 63 l 2,12,13
 120 80 120 80 137 80 c 0,14,15
 143 80 143 80 147 79 c 0,16,17
 194 68 194 68 246 68 c 0,18,19
 407 68 407 68 407 211 c 256,20,21
 407 354 407 354 263 354 c 2,22,-1
 199 354 l 1,23,-1
 149 361 l 2,24,25
 125 364 125 364 127 389 c 2,26,-1
 149 677 l 2,27,28
 151 700 151 700 176 700 c 2,29,-1
 431 700 l 2,30,31
 456 700 456 700 456 675 c 2,32,-1
 456 649 l 2,33,34
 456 624 456 624 431 624 c 2,35,-1
 225 624 l 1,36,-1
 210 431 l 1,37,-1
 263 431 l 2,38,0
 377 431 377 431 435 375.5 c 128,-1,1
EndSplineSet
Validated: 33
EndChar

StartChar: six
Encoding: 54 54 273
Width: 575
Flags: W
LayerCount: 2
Fore
SplineSet
399 625 m 0,1,2
 361 632 361 632 332 632 c 0,3,4
 261 632 261 632 208.5 580 c 128,-1,5
 156 528 156 528 144 402 c 1,6,7
 230 429 230 429 285 429 c 0,8,9
 344 429 344 429 392 403.5 c 128,-1,10
 440 378 440 378 468 330.5 c 128,-1,11
 496 283 496 283 496 220 c 0,12,13
 496 150 496 150 469.5 98 c 128,-1,14
 443 46 443 46 395 18 c 128,-1,15
 347 -10 347 -10 283 -10 c 0,16,17
 173 -10 173 -10 113 73.5 c 128,-1,18
 53 157 53 157 53 326 c 0,19,20
 53 447 53 447 87 533.5 c 128,-1,21
 121 620 121 620 183 665 c 128,-1,22
 245 710 245 710 330 710 c 0,23,24
 365 710 365 710 415 702 c 0,25,26
 427 700 427 700 432 692 c 128,-1,27
 437 684 437 684 435 672 c 2,28,-1
 429 644 l 2,29,0
 423 621 423 621 399 625 c 0,1,2
375 107.5 m 128,-1,31
 410 147 410 147 410 220 c 0,32,33
 410 280 410 280 375 315.5 c 128,-1,34
 340 351 340 351 281 351 c 0,35,36
 205 351 205 351 139 317 c 1,37,38
 139 188 139 188 180.5 128 c 128,-1,39
 222 68 222 68 286 68 c 0,40,30
 340 68 340 68 375 107.5 c 128,-1,31
EndSplineSet
Validated: 33
EndChar

StartChar: seven
Encoding: 55 55 274
Width: 575
Flags: W
LayerCount: 2
Fore
SplineSet
515 676 m 2,1,-1
 515 626 l 2,2,3
 515 585 515 585 505 548.5 c 128,-1,4
 495 512 495 512 470 465 c 2,5,-1
 372 280 l 2,6,7
 302 145 302 145 302 24 c 0,8,9
 302 0 302 0 276 0 c 2,10,-1
 242 0 l 2,11,12
 217 0 217 0 217 24 c 0,13,14
 217 145 217 145 299 312 c 2,15,-1
 389 492 l 2,16,17
 412 537 412 537 421 566.5 c 128,-1,18
 430 596 430 596 430 624 c 1,19,-1
 170 624 l 1,20,-1
 170 518 l 2,21,22
 170 493 170 493 145 493 c 2,23,-1
 110 493 l 2,24,25
 85 493 85 493 85 518 c 2,26,-1
 85 675 l 2,27,28
 85 700 85 700 110 700 c 2,29,-1
 491 700 l 2,30,0
 515 700 515 700 515 676 c 2,1,-1
EndSplineSet
Validated: 1
EndChar

StartChar: eight
Encoding: 56 56 275
Width: 575
Flags: W
LayerCount: 2
Fore
SplineSet
480 277.5 m 128,-1,1
 519 234 519 234 519 169 c 0,2,3
 519 83 519 83 455 36.5 c 128,-1,4
 391 -10 391 -10 288 -10 c 0,5,6
 226 -10 226 -10 173 11.5 c 128,-1,7
 120 33 120 33 88.5 72.5 c 128,-1,8
 57 112 57 112 57 163 c 0,9,10
 57 270 57 270 212 357 c 1,11,12
 150 389 150 389 115 431.5 c 128,-1,13
 80 474 80 474 80 541 c 0,14,15
 80 591 80 591 107 629.5 c 128,-1,16
 134 668 134 668 181.5 689 c 128,-1,17
 229 710 229 710 288 710 c 256,18,19
 347 710 347 710 394.5 689.5 c 128,-1,20
 442 669 442 669 469 632.5 c 128,-1,21
 496 596 496 596 496 548 c 0,22,23
 496 441 496 441 372 359 c 1,24,0
 441 321 441 321 480 277.5 c 128,-1,1
308 393 m 1,26,27
 357 426 357 426 383.5 468 c 128,-1,28
 410 510 410 510 410 543 c 0,29,30
 410 581 410 581 375 607.5 c 128,-1,31
 340 634 340 634 288 634 c 0,32,33
 235 634 235 634 200 607.5 c 128,-1,34
 165 581 165 581 165 540 c 0,35,25
 165 460 165 460 308 393 c 1,26,27
392 93.5 m 128,-1,37
 434 120 434 120 434 171 c 0,38,39
 434 221 434 221 392 257.5 c 128,-1,40
 350 294 350 294 277 326 c 1,41,42
 212 289 212 289 177 251.5 c 128,-1,43
 142 214 142 214 142 171 c 0,44,45
 142 122 142 122 183 94.5 c 128,-1,46
 224 67 224 67 288 67 c 0,47,36
 350 67 350 67 392 93.5 c 128,-1,37
EndSplineSet
Validated: 1
EndChar

StartChar: nine
Encoding: 57 57 276
Width: 575
Flags: W
LayerCount: 2
Fore
SplineSet
154 79 m 0,1,2
 192 72 192 72 221 72 c 0,3,4
 292 72 292 72 344.5 124 c 128,-1,5
 397 176 397 176 409 302 c 1,6,7
 323 275 323 275 268 275 c 0,8,9
 209 275 209 275 161 300.5 c 128,-1,10
 113 326 113 326 85 373.5 c 128,-1,11
 57 421 57 421 57 484 c 0,12,13
 57 554 57 554 83.5 606 c 128,-1,14
 110 658 110 658 158 686 c 128,-1,15
 206 714 206 714 270 714 c 0,16,17
 380 714 380 714 440 630.5 c 128,-1,18
 500 547 500 547 500 378 c 0,19,20
 500 257 500 257 466 170.5 c 128,-1,21
 432 84 432 84 370 39 c 128,-1,22
 308 -6 308 -6 223 -6 c 0,23,24
 188 -6 188 -6 138 2 c 0,25,26
 126 4 126 4 121 12 c 128,-1,27
 116 20 116 20 118 32 c 2,28,-1
 124 60 l 2,29,0
 130 83 130 83 154 79 c 0,1,2
178 596.5 m 128,-1,31
 143 557 143 557 143 484 c 0,32,33
 143 424 143 424 178 388.5 c 128,-1,34
 213 353 213 353 272 353 c 0,35,36
 348 353 348 353 414 387 c 1,37,38
 414 516 414 516 372.5 576 c 128,-1,39
 331 636 331 636 267 636 c 0,40,30
 213 636 213 636 178 596.5 c 128,-1,31
EndSplineSet
Validated: 33
EndChar

StartChar: one.hex
Encoding: 65550 -1 278
Width: 575
Flags: W
LayerCount: 2
Fore
SplineSet
521 804 m 2,1,-1
 486 804 l 2,2,3
 461 804 461 804 461 829 c 2,4,-1
 461 875 l 2,5,6
 461 900 461 900 486 900 c 2,7,-1
 521 900 l 2,8,9
 546 900 546 900 546 875 c 2,10,-1
 546 829 l 2,11,0
 546 804 546 804 521 804 c 2,1,-1
490 52 m 2,13,-1
 490 25 l 2,14,15
 490 0 490 0 465 0 c 2,16,-1
 110 0 l 2,17,18
 85 0 85 0 85 25 c 2,19,-1
 85 52 l 2,20,21
 85 77 85 77 110 77 c 2,22,-1
 277 77 l 1,23,-1
 277 520 l 1,24,-1
 110 520 l 2,25,26
 85 520 85 520 85 545 c 2,27,-1
 85 572 l 2,28,29
 85 597 85 597 110 597 c 0,30,31
 185 597 185 597 227 615.5 c 128,-1,32
 269 634 269 634 289 680 c 0,33,34
 298 700 298 700 318 700 c 2,35,-1
 337 700 l 2,36,37
 362 700 362 700 362 675 c 2,38,-1
 362 77 l 1,39,-1
 465 77 l 2,40,12
 490 77 490 77 490 52 c 2,13,-1
EndSplineSet
Validated: 1
EndChar

StartChar: two.hex
Encoding: 65551 -1 279
Width: 575
Flags: W
LayerCount: 2
Fore
SplineSet
377 804 m 2,1,-1
 342 804 l 2,2,3
 317 804 317 804 317 829 c 2,4,-1
 317 875 l 2,5,6
 317 900 317 900 342 900 c 2,7,-1
 377 900 l 2,8,9
 402 900 402 900 402 875 c 2,10,-1
 402 829 l 2,11,0
 402 804 402 804 377 804 c 2,1,-1
514 52 m 2,13,-1
 514 24 l 2,14,15
 514 -1 514 -1 489 -1 c 2,16,-1
 109 -1 l 2,17,18
 84 -1 84 -1 84 24 c 2,19,-1
 84 48 l 2,20,21
 84 110 84 110 111 158.5 c 128,-1,22
 138 207 138 207 171 237 c 128,-1,23
 204 267 204 267 259 309 c 0,24,25
 312 351 312 351 342 379 c 128,-1,26
 372 407 372 407 391 440.5 c 128,-1,27
 410 474 410 474 410 514 c 0,28,29
 410 632 410 632 265 632 c 0,30,31
 208 632 208 632 140 608 c 0,32,33
 132 606 132 606 129 606 c 0,34,35
 115 606 115 606 107 623 c 2,36,-1
 98 649 l 2,37,38
 96 653 96 653 96 660 c 0,39,40
 96 675 96 675 112 681 c 0,41,42
 189 710 189 710 265 710 c 0,43,44
 365 710 365 710 430.5 661 c 128,-1,45
 496 612 496 612 496 514 c 0,46,47
 496 457 496 457 470.5 410.5 c 128,-1,48
 445 364 445 364 408.5 329.5 c 128,-1,49
 372 295 372 295 312 248 c 0,50,51
 243 195 243 195 209 158.5 c 128,-1,52
 175 122 175 122 170 77 c 1,53,-1
 489 77 l 2,54,12
 514 77 514 77 514 52 c 2,13,-1
EndSplineSet
Validated: 1
EndChar

StartChar: three.hex
Encoding: 65552 -1 280
Width: 575
Flags: W
LayerCount: 2
Fore
SplineSet
377 804 m 2,1,-1
 342 804 l 2,2,3
 317 804 317 804 317 829 c 2,4,-1
 317 875 l 2,5,6
 317 900 317 900 342 900 c 2,7,-1
 377 900 l 2,8,9
 402 900 402 900 402 875 c 2,10,-1
 402 829 l 2,11,0
 402 804 402 804 377 804 c 2,1,-1
521 804 m 2,13,-1
 486 804 l 2,14,15
 461 804 461 804 461 829 c 2,16,-1
 461 875 l 2,17,18
 461 900 461 900 486 900 c 2,19,-1
 521 900 l 2,20,21
 546 900 546 900 546 875 c 2,22,-1
 546 829 l 2,23,12
 546 804 546 804 521 804 c 2,13,-1
114 674 m 0,25,26
 114 692 114 692 132 696 c 0,27,28
 188 710 188 710 248 710 c 0,29,30
 346 710 346 710 413 666.5 c 128,-1,31
 480 623 480 623 480 531 c 0,32,33
 480 474 480 474 451.5 434.5 c 128,-1,34
 423 395 423 395 366 364 c 1,35,36
 419 340 419 340 454.5 291.5 c 128,-1,37
 490 243 490 243 490 177 c 0,38,39
 490 83 490 83 418 36.5 c 128,-1,40
 346 -10 346 -10 243 -10 c 0,41,42
 180 -10 180 -10 122 4 c 0,43,44
 104 8 104 8 104 26 c 0,45,46
 104 32 104 32 105 35 c 2,47,-1
 113 63 l 2,48,49
 117 80 117 80 134 80 c 0,50,51
 140 80 140 80 144 79 c 0,52,53
 191 68 191 68 243 68 c 0,54,55
 404 68 404 68 404 189 c 0,56,57
 404 249 404 249 361 286.5 c 128,-1,58
 318 324 318 324 250 324 c 2,59,-1
 199 324 l 2,60,61
 174 324 174 324 174 349 c 2,62,-1
 174 376 l 2,63,64
 174 401 174 401 199 401 c 2,65,-1
 250 401 l 2,66,67
 317 401 317 401 355.5 433 c 128,-1,68
 394 465 394 465 394 526 c 0,69,70
 394 583 394 583 357 607.5 c 128,-1,71
 320 632 320 632 248 632 c 0,72,73
 201 632 201 632 154 621 c 0,74,75
 150 620 150 620 144 620 c 0,76,77
 127 620 127 620 123 637 c 2,78,-1
 115 665 l 2,79,24
 114 668 114 668 114 674 c 0,25,26
EndSplineSet
Validated: 1
EndChar

StartChar: four.hex
Encoding: 65553 -1 281
Width: 575
Flags: W
LayerCount: 2
Fore
SplineSet
233 804 m 2,1,-1
 198 804 l 2,2,3
 173 804 173 804 173 829 c 2,4,-1
 173 875 l 2,5,6
 173 900 173 900 198 900 c 2,7,-1
 233 900 l 2,8,9
 258 900 258 900 258 875 c 2,10,-1
 258 829 l 2,11,0
 258 804 258 804 233 804 c 2,1,-1
510 196 m 2,13,-1
 510 170 l 2,14,15
 510 145 510 145 485 145 c 2,16,-1
 430 145 l 1,17,-1
 430 25 l 2,18,19
 430 0 430 0 405 0 c 2,20,-1
 370 0 l 2,21,22
 346 0 346 0 346 25 c 2,23,-1
 346 145 l 1,24,-1
 97 145 l 2,25,26
 73 145 73 145 73 169 c 2,27,-1
 73 209 l 2,28,29
 73 226 73 226 80 240 c 2,30,-1
 298 677 l 2,31,32
 304 690 304 690 312 695 c 128,-1,33
 320 700 320 700 335 700 c 2,34,-1
 371 700 l 2,35,36
 382 700 382 700 388 695.5 c 128,-1,37
 394 691 394 691 394 683 c 0,38,39
 394 680 394 680 390 670 c 2,40,-1
 165 221 l 1,41,-1
 346 221 l 1,42,-1
 346 392 l 2,43,44
 346 417 346 417 371 417 c 2,45,-1
 406 417 l 2,46,47
 431 417 431 417 431 392 c 2,48,-1
 431 221 l 1,49,-1
 485 221 l 2,50,12
 510 221 510 221 510 196 c 2,13,-1
EndSplineSet
Validated: 1
EndChar

StartChar: five.hex
Encoding: 65554 -1 282
Width: 575
Flags: W
LayerCount: 2
Fore
SplineSet
233 804 m 2,1,-1
 198 804 l 2,2,3
 173 804 173 804 173 829 c 2,4,-1
 173 875 l 2,5,6
 173 900 173 900 198 900 c 2,7,-1
 233 900 l 2,8,9
 258 900 258 900 258 875 c 2,10,-1
 258 829 l 2,11,0
 258 804 258 804 233 804 c 2,1,-1
521 804 m 2,13,-1
 486 804 l 2,14,15
 461 804 461 804 461 829 c 2,16,-1
 461 875 l 2,17,18
 461 900 461 900 486 900 c 2,19,-1
 521 900 l 2,20,21
 546 900 546 900 546 875 c 2,22,-1
 546 829 l 2,23,12
 546 804 546 804 521 804 c 2,13,-1
435 375.5 m 128,-1,25
 493 320 493 320 493 211 c 0,26,27
 493 101 493 101 431 45.5 c 128,-1,28
 369 -10 369 -10 246 -10 c 0,29,30
 183 -10 183 -10 125 4 c 0,31,32
 107 8 107 8 107 26 c 0,33,34
 107 32 107 32 108 35 c 2,35,-1
 116 63 l 2,36,37
 120 80 120 80 137 80 c 0,38,39
 143 80 143 80 147 79 c 0,40,41
 194 68 194 68 246 68 c 0,42,43
 407 68 407 68 407 211 c 256,44,45
 407 354 407 354 263 354 c 2,46,-1
 199 354 l 1,47,-1
 149 361 l 2,48,49
 125 364 125 364 127 389 c 2,50,-1
 149 677 l 2,51,52
 151 700 151 700 176 700 c 2,53,-1
 431 700 l 2,54,55
 456 700 456 700 456 675 c 2,56,-1
 456 649 l 2,57,58
 456 624 456 624 431 624 c 2,59,-1
 225 624 l 1,60,-1
 210 431 l 1,61,-1
 263 431 l 2,62,24
 377 431 377 431 435 375.5 c 128,-1,25
EndSplineSet
Validated: 33
EndChar

StartChar: six.hex
Encoding: 65555 -1 283
Width: 575
Flags: W
LayerCount: 2
Fore
SplineSet
233 804 m 2,1,-1
 198 804 l 2,2,3
 173 804 173 804 173 829 c 2,4,-1
 173 875 l 2,5,6
 173 900 173 900 198 900 c 2,7,-1
 233 900 l 2,8,9
 258 900 258 900 258 875 c 2,10,-1
 258 829 l 2,11,0
 258 804 258 804 233 804 c 2,1,-1
377 804 m 2,13,-1
 342 804 l 2,14,15
 317 804 317 804 317 829 c 2,16,-1
 317 875 l 2,17,18
 317 900 317 900 342 900 c 2,19,-1
 377 900 l 2,20,21
 402 900 402 900 402 875 c 2,22,-1
 402 829 l 2,23,12
 402 804 402 804 377 804 c 2,13,-1
399 625 m 0,25,26
 361 632 361 632 332 632 c 0,27,28
 261 632 261 632 208.5 580 c 128,-1,29
 156 528 156 528 144 402 c 1,30,31
 230 429 230 429 285 429 c 0,32,33
 344 429 344 429 392 403.5 c 128,-1,34
 440 378 440 378 468 330.5 c 128,-1,35
 496 283 496 283 496 220 c 0,36,37
 496 150 496 150 469.5 98 c 128,-1,38
 443 46 443 46 395 18 c 128,-1,39
 347 -10 347 -10 283 -10 c 0,40,41
 173 -10 173 -10 113 73.5 c 128,-1,42
 53 157 53 157 53 326 c 0,43,44
 53 447 53 447 87 533.5 c 128,-1,45
 121 620 121 620 183 665 c 128,-1,46
 245 710 245 710 330 710 c 0,47,48
 365 710 365 710 415 702 c 0,49,50
 427 700 427 700 432 692 c 128,-1,51
 437 684 437 684 435 672 c 2,52,-1
 429 644 l 2,53,24
 423 621 423 621 399 625 c 0,25,26
375 107.5 m 128,-1,55
 410 147 410 147 410 220 c 0,56,57
 410 280 410 280 375 315.5 c 128,-1,58
 340 351 340 351 281 351 c 0,59,60
 205 351 205 351 139 317 c 1,61,62
 139 188 139 188 180.5 128 c 128,-1,63
 222 68 222 68 286 68 c 0,64,54
 340 68 340 68 375 107.5 c 128,-1,55
EndSplineSet
Validated: 33
EndChar

StartChar: seven.hex
Encoding: 65556 -1 284
Width: 575
Flags: W
LayerCount: 2
Fore
SplineSet
233 804 m 2,1,-1
 198 804 l 2,2,3
 173 804 173 804 173 829 c 2,4,-1
 173 875 l 2,5,6
 173 900 173 900 198 900 c 2,7,-1
 233 900 l 2,8,9
 258 900 258 900 258 875 c 2,10,-1
 258 829 l 2,11,0
 258 804 258 804 233 804 c 2,1,-1
377 804 m 2,13,-1
 342 804 l 2,14,15
 317 804 317 804 317 829 c 2,16,-1
 317 875 l 2,17,18
 317 900 317 900 342 900 c 2,19,-1
 377 900 l 2,20,21
 402 900 402 900 402 875 c 2,22,-1
 402 829 l 2,23,12
 402 804 402 804 377 804 c 2,13,-1
521 804 m 2,25,-1
 486 804 l 2,26,27
 461 804 461 804 461 829 c 2,28,-1
 461 875 l 2,29,30
 461 900 461 900 486 900 c 2,31,-1
 521 900 l 2,32,33
 546 900 546 900 546 875 c 2,34,-1
 546 829 l 2,35,24
 546 804 546 804 521 804 c 2,25,-1
515 676 m 2,37,-1
 515 626 l 2,38,39
 515 585 515 585 505 548.5 c 128,-1,40
 495 512 495 512 470 465 c 2,41,-1
 372 280 l 2,42,43
 302 145 302 145 302 24 c 0,44,45
 302 0 302 0 276 0 c 2,46,-1
 242 0 l 2,47,48
 217 0 217 0 217 24 c 0,49,50
 217 145 217 145 299 312 c 2,51,-1
 389 492 l 2,52,53
 412 537 412 537 421 566.5 c 128,-1,54
 430 596 430 596 430 624 c 1,55,-1
 170 624 l 1,56,-1
 170 518 l 2,57,58
 170 493 170 493 145 493 c 2,59,-1
 110 493 l 2,60,61
 85 493 85 493 85 518 c 2,62,-1
 85 675 l 2,63,64
 85 700 85 700 110 700 c 2,65,-1
 491 700 l 2,66,36
 515 700 515 700 515 676 c 2,37,-1
EndSplineSet
Validated: 1
EndChar

StartChar: eight.hex
Encoding: 65557 -1 285
Width: 575
Flags: W
LayerCount: 2
Fore
SplineSet
89 804 m 2,1,-1
 54 804 l 2,2,3
 29 804 29 804 29 829 c 2,4,-1
 29 875 l 2,5,6
 29 900 29 900 54 900 c 2,7,-1
 89 900 l 2,8,9
 114 900 114 900 114 875 c 2,10,-1
 114 829 l 2,11,0
 114 804 114 804 89 804 c 2,1,-1
480 277.5 m 128,-1,13
 519 234 519 234 519 169 c 0,14,15
 519 83 519 83 455 36.5 c 128,-1,16
 391 -10 391 -10 288 -10 c 0,17,18
 226 -10 226 -10 173 11.5 c 128,-1,19
 120 33 120 33 88.5 72.5 c 128,-1,20
 57 112 57 112 57 163 c 0,21,22
 57 270 57 270 212 357 c 1,23,24
 150 389 150 389 115 431.5 c 128,-1,25
 80 474 80 474 80 541 c 0,26,27
 80 591 80 591 107 629.5 c 128,-1,28
 134 668 134 668 181.5 689 c 128,-1,29
 229 710 229 710 288 710 c 256,30,31
 347 710 347 710 394.5 689.5 c 128,-1,32
 442 669 442 669 469 632.5 c 128,-1,33
 496 596 496 596 496 548 c 0,34,35
 496 441 496 441 372 359 c 1,36,12
 441 321 441 321 480 277.5 c 128,-1,13
308 393 m 1,38,39
 357 426 357 426 383.5 468 c 128,-1,40
 410 510 410 510 410 543 c 0,41,42
 410 581 410 581 375 607.5 c 128,-1,43
 340 634 340 634 288 634 c 0,44,45
 235 634 235 634 200 607.5 c 128,-1,46
 165 581 165 581 165 540 c 0,47,37
 165 460 165 460 308 393 c 1,38,39
392 93.5 m 128,-1,49
 434 120 434 120 434 171 c 0,50,51
 434 221 434 221 392 257.5 c 128,-1,52
 350 294 350 294 277 326 c 1,53,54
 212 289 212 289 177 251.5 c 128,-1,55
 142 214 142 214 142 171 c 0,56,57
 142 122 142 122 183 94.5 c 128,-1,58
 224 67 224 67 288 67 c 0,59,48
 350 67 350 67 392 93.5 c 128,-1,49
EndSplineSet
Validated: 1
EndChar

StartChar: nine.hex
Encoding: 65558 -1 286
Width: 575
Flags: W
LayerCount: 2
Fore
SplineSet
89 804 m 2,1,-1
 54 804 l 2,2,3
 29 804 29 804 29 829 c 2,4,-1
 29 875 l 2,5,6
 29 900 29 900 54 900 c 2,7,-1
 89 900 l 2,8,9
 114 900 114 900 114 875 c 2,10,-1
 114 829 l 2,11,0
 114 804 114 804 89 804 c 2,1,-1
521 804 m 2,13,-1
 486 804 l 2,14,15
 461 804 461 804 461 829 c 2,16,-1
 461 875 l 2,17,18
 461 900 461 900 486 900 c 2,19,-1
 521 900 l 2,20,21
 546 900 546 900 546 875 c 2,22,-1
 546 829 l 2,23,12
 546 804 546 804 521 804 c 2,13,-1
154 79 m 0,25,26
 192 72 192 72 221 72 c 0,27,28
 292 72 292 72 344.5 124 c 128,-1,29
 397 176 397 176 409 302 c 1,30,31
 323 275 323 275 268 275 c 0,32,33
 209 275 209 275 161 300.5 c 128,-1,34
 113 326 113 326 85 373.5 c 128,-1,35
 57 421 57 421 57 484 c 0,36,37
 57 554 57 554 83.5 606 c 128,-1,38
 110 658 110 658 158 686 c 128,-1,39
 206 714 206 714 270 714 c 0,40,41
 380 714 380 714 440 630.5 c 128,-1,42
 500 547 500 547 500 378 c 0,43,44
 500 257 500 257 466 170.5 c 128,-1,45
 432 84 432 84 370 39 c 128,-1,46
 308 -6 308 -6 223 -6 c 0,47,48
 188 -6 188 -6 138 2 c 0,49,50
 126 4 126 4 121 12 c 128,-1,51
 116 20 116 20 118 32 c 2,52,-1
 124 60 l 2,53,24
 130 83 130 83 154 79 c 0,25,26
178 596.5 m 128,-1,55
 143 557 143 557 143 484 c 0,56,57
 143 424 143 424 178 388.5 c 128,-1,58
 213 353 213 353 272 353 c 0,59,60
 348 353 348 353 414 387 c 1,61,62
 414 516 414 516 372.5 576 c 128,-1,63
 331 636 331 636 267 636 c 0,64,54
 213 636 213 636 178 596.5 c 128,-1,55
EndSplineSet
Validated: 33
EndChar

StartChar: uni215F
Encoding: 8543 8543 287
Width: 575
Flags: W
LayerCount: 2
Fore
SplineSet
500 548 m 256,1,2
 500 539 500 539 492 531 c 2,3,-1
 138 177 l 2,4,5
 130 169 130 169 122 169 c 0,6,7
 115 169 115 169 105 177 c 2,8,-1
 82 200 l 2,9,10
 74 210 74 210 74 217 c 0,11,12
 74 225 74 225 82 233 c 2,13,-1
 240 391 l 2,14,15
 238 390 238 390 233 390 c 2,16,-1
 55 390 l 2,17,18
 45 390 45 390 38 397 c 128,-1,19
 31 404 31 404 31 413 c 2,20,-1
 31 426 l 2,21,22
 31 435 31 435 38 442 c 128,-1,23
 45 449 45 449 55 449 c 2,24,-1
 127 449 l 1,25,-1
 127 650 l 1,26,-1
 55 650 l 2,27,28
 45 650 45 650 38 657 c 128,-1,29
 31 664 31 664 31 673 c 2,30,-1
 31 686 l 2,31,32
 31 695 31 695 38 702 c 128,-1,33
 45 709 45 709 55 709 c 0,34,35
 91 709 91 709 108 716 c 128,-1,36
 125 723 125 723 134 744 c 0,37,38
 141 760 141 760 159 760 c 2,39,-1
 169 760 l 2,40,41
 179 760 179 760 186 753.5 c 128,-1,42
 193 747 193 747 193 738 c 2,43,-1
 193 449 l 1,44,-1
 233 449 l 2,45,46
 243 449 243 449 250 442 c 128,-1,47
 257 435 257 435 257 426 c 2,48,-1
 257 413 l 2,49,50
 257 409 257 409 256 407 c 2,51,-1
 436 587 l 2,52,53
 444 595 444 595 453 595 c 256,54,55
 462 595 462 595 469 587 c 2,56,-1
 492 564 l 2,57,0
 500 557 500 557 500 548 c 256,1,2
EndSplineSet
Validated: 1
EndChar

StartChar: onehalf
Encoding: 189 189 288
Width: 575
Flags: W
LayerCount: 2
Fore
SplineSet
500 548 m 256,1,2
 500 539 500 539 492 531 c 2,3,-1
 138 177 l 2,4,5
 130 169 130 169 122 169 c 0,6,7
 115 169 115 169 105 177 c 2,8,-1
 82 200 l 2,9,10
 74 210 74 210 74 217 c 0,11,12
 74 225 74 225 82 233 c 2,13,-1
 240 391 l 2,14,15
 238 390 238 390 233 390 c 2,16,-1
 55 390 l 2,17,18
 45 390 45 390 38 397 c 128,-1,19
 31 404 31 404 31 413 c 2,20,-1
 31 426 l 2,21,22
 31 435 31 435 38 442 c 128,-1,23
 45 449 45 449 55 449 c 2,24,-1
 127 449 l 1,25,-1
 127 650 l 1,26,-1
 55 650 l 2,27,28
 45 650 45 650 38 657 c 128,-1,29
 31 664 31 664 31 673 c 2,30,-1
 31 686 l 2,31,32
 31 695 31 695 38 702 c 128,-1,33
 45 709 45 709 55 709 c 0,34,35
 91 709 91 709 108 716 c 128,-1,36
 125 723 125 723 134 744 c 0,37,38
 141 760 141 760 159 760 c 2,39,-1
 169 760 l 2,40,41
 179 760 179 760 186 753.5 c 128,-1,42
 193 747 193 747 193 738 c 2,43,-1
 193 449 l 1,44,-1
 233 449 l 2,45,46
 243 449 243 449 250 442 c 128,-1,47
 257 435 257 435 257 426 c 2,48,-1
 257 413 l 2,49,50
 257 409 257 409 256 407 c 2,51,-1
 436 587 l 2,52,53
 444 595 444 595 453 595 c 256,54,55
 462 595 462 595 469 587 c 2,56,-1
 492 564 l 2,57,0
 500 557 500 557 500 548 c 256,1,2
587 42 m 128,-1,59
 594 35 594 35 594 26 c 2,60,-1
 594 12 l 2,61,62
 594 3 594 3 587 -4 c 128,-1,63
 580 -11 580 -11 570 -11 c 2,64,-1
 380 -11 l 2,65,66
 370 -11 370 -11 362.5 -4 c 128,-1,67
 355 3 355 3 355 12 c 2,68,-1
 355 24 l 2,69,70
 355 57 355 57 369.5 83 c 128,-1,71
 384 109 384 109 401.5 125 c 128,-1,72
 419 141 419 141 448 163 c 0,73,74
 485 192 485 192 501.5 211.5 c 128,-1,75
 518 231 518 231 518 257 c 0,76,77
 518 306 518 306 458 306 c 0,78,79
 435 306 435 306 399 295 c 0,80,81
 396 294 396 294 391 294 c 0,82,83
 383 294 383 294 376.5 297.5 c 128,-1,84
 370 301 370 301 368 308 c 2,85,-1
 363 321 l 2,86,87
 361 325 361 325 361 329 c 0,88,89
 361 335 361 335 365.5 341 c 128,-1,90
 370 347 370 347 377 350 c 0,91,92
 413 365 413 365 458 365 c 0,93,94
 511 365 511 365 548 337.5 c 128,-1,95
 585 310 585 310 585 257 c 0,96,97
 585 227 585 227 571 202 c 128,-1,98
 557 177 557 177 538.5 159.5 c 128,-1,99
 520 142 520 142 488 116 c 0,100,101
 460 95 460 95 445 80 c 128,-1,102
 430 65 430 65 425 49 c 1,103,-1
 570 49 l 2,104,58
 580 49 580 49 587 42 c 128,-1,59
EndSplineSet
Validated: 1
EndChar

StartChar: uni2189
Encoding: 8585 8585 289
Width: 575
Flags: W
LayerCount: 2
Fore
SplineSet
237.5 713 m 128,-1,1
 272 661 272 661 272 575 c 256,2,3
 272 489 272 489 237.5 437 c 128,-1,4
 203 385 203 385 144 385 c 256,5,6
 85 385 85 385 50.5 437 c 128,-1,7
 16 489 16 489 16 575 c 256,8,9
 16 661 16 661 50.5 713 c 128,-1,10
 85 765 85 765 144 765 c 256,11,0
 203 765 203 765 237.5 713 c 128,-1,1
99.5 671.5 m 128,-1,13
 82 636 82 636 82 575 c 2,14,-1
 82 558 l 1,15,-1
 191 667 l 1,16,17
 174 707 174 707 144 707 c 0,18,12
 117 707 117 707 99.5 671.5 c 128,-1,13
453 595 m 256,20,21
 462 595 462 595 469 587 c 2,22,-1
 492 564 l 2,23,24
 500 557 500 557 500 548 c 256,25,26
 500 539 500 539 492 531 c 2,27,-1
 138 177 l 2,28,29
 130 169 130 169 122 169 c 0,30,31
 115 169 115 169 105 177 c 2,32,-1
 82 200 l 2,33,34
 74 210 74 210 74 217 c 0,35,36
 74 225 74 225 82 233 c 2,37,-1
 436 587 l 2,38,19
 444 595 444 595 453 595 c 256,20,21
189 479 m 128,-1,40
 206 514 206 514 206 575 c 2,41,-1
 206 594 l 1,42,-1
 97 485 l 1,43,44
 114 444 114 444 144 444 c 0,45,39
 172 444 172 444 189 479 c 128,-1,40
371 335 m 2,46,47
 371 354 371 354 388 358 c 0,48,49
 413 365 413 365 449 365 c 0,50,51
 502 365 502 365 539.5 340 c 128,-1,52
 577 315 577 315 577 263 c 0,53,54
 577 201 577 201 533 175 c 1,55,56
 582 149 582 149 582 92 c 0,57,58
 582 37 582 37 542 11 c 128,-1,59
 502 -15 502 -15 447 -15 c 0,60,61
 411 -15 411 -15 383 -8 c 0,62,63
 373 -5 373 -5 368.5 3.5 c 128,-1,64
 364 12 364 12 366 21 c 2,65,-1
 370 35 l 2,66,67
 372 43 372 43 381 47.5 c 128,-1,68
 390 52 390 52 400 50 c 0,69,70
 423 44 423 44 447 44 c 0,71,72
 481 44 481 44 498 55 c 128,-1,73
 515 66 515 66 515 92 c 0,74,75
 515 117 515 117 497 132 c 128,-1,76
 479 147 479 147 450 147 c 2,77,-1
 425 147 l 2,78,79
 415 147 415 147 407.5 154 c 128,-1,80
 400 161 400 161 400 170 c 2,81,-1
 400 183 l 2,82,83
 400 192 400 192 407.5 199 c 128,-1,84
 415 206 415 206 425 206 c 2,85,-1
 450 206 l 2,86,87
 478 206 478 206 494 221.5 c 128,-1,88
 510 237 510 237 510 263 c 0,89,90
 510 286 510 286 495 296 c 128,-1,91
 480 306 480 306 449 306 c 0,92,93
 429 306 429 306 404 301 c 1,94,-1
 405 301 l 2,95,96
 403 300 403 300 399 300 c 0,97,98
 390 300 390 300 383 304.5 c 128,-1,99
 376 309 376 309 375 316 c 2,100,-1
 371 330 l 1,101,-1
 371 335 l 2,46,47
EndSplineSet
Validated: 1
EndChar

StartChar: uni2153
Encoding: 8531 8531 290
Width: 575
Flags: W
LayerCount: 2
Fore
SplineSet
500 548 m 256,1,2
 500 539 500 539 492 531 c 2,3,-1
 138 177 l 2,4,5
 130 169 130 169 122 169 c 0,6,7
 115 169 115 169 105 177 c 2,8,-1
 82 200 l 2,9,10
 74 210 74 210 74 217 c 0,11,12
 74 225 74 225 82 233 c 2,13,-1
 240 391 l 2,14,15
 238 390 238 390 233 390 c 2,16,-1
 55 390 l 2,17,18
 45 390 45 390 38 397 c 128,-1,19
 31 404 31 404 31 413 c 2,20,-1
 31 426 l 2,21,22
 31 435 31 435 38 442 c 128,-1,23
 45 449 45 449 55 449 c 2,24,-1
 127 449 l 1,25,-1
 127 650 l 1,26,-1
 55 650 l 2,27,28
 45 650 45 650 38 657 c 128,-1,29
 31 664 31 664 31 673 c 2,30,-1
 31 686 l 2,31,32
 31 695 31 695 38 702 c 128,-1,33
 45 709 45 709 55 709 c 0,34,35
 91 709 91 709 108 716 c 128,-1,36
 125 723 125 723 134 744 c 0,37,38
 141 760 141 760 159 760 c 2,39,-1
 169 760 l 2,40,41
 179 760 179 760 186 753.5 c 128,-1,42
 193 747 193 747 193 738 c 2,43,-1
 193 449 l 1,44,-1
 233 449 l 2,45,46
 243 449 243 449 250 442 c 128,-1,47
 257 435 257 435 257 426 c 2,48,-1
 257 413 l 2,49,50
 257 409 257 409 256 407 c 2,51,-1
 436 587 l 2,52,53
 444 595 444 595 453 595 c 256,54,55
 462 595 462 595 469 587 c 2,56,-1
 492 564 l 2,57,0
 500 557 500 557 500 548 c 256,1,2
582 92 m 0,59,60
 582 37 582 37 542 11 c 128,-1,61
 502 -15 502 -15 447 -15 c 0,62,63
 411 -15 411 -15 383 -8 c 0,64,65
 373 -5 373 -5 368.5 3.5 c 128,-1,66
 364 12 364 12 366 21 c 2,67,-1
 370 35 l 2,68,69
 372 43 372 43 381 47.5 c 128,-1,70
 390 52 390 52 400 50 c 0,71,72
 423 44 423 44 447 44 c 0,73,74
 481 44 481 44 498 55 c 128,-1,75
 515 66 515 66 515 92 c 0,76,77
 515 117 515 117 497 132 c 128,-1,78
 479 147 479 147 450 147 c 2,79,-1
 425 147 l 2,80,81
 415 147 415 147 407.5 154 c 128,-1,82
 400 161 400 161 400 170 c 2,83,-1
 400 183 l 2,84,85
 400 192 400 192 407.5 199 c 128,-1,86
 415 206 415 206 425 206 c 2,87,-1
 450 206 l 2,88,89
 478 206 478 206 494 221.5 c 128,-1,90
 510 237 510 237 510 263 c 0,91,92
 510 286 510 286 495 296 c 128,-1,93
 480 306 480 306 449 306 c 0,94,95
 429 306 429 306 404 301 c 1,96,-1
 405 301 l 2,97,98
 403 300 403 300 399 300 c 0,99,100
 390 300 390 300 383 304.5 c 128,-1,101
 376 309 376 309 375 316 c 2,102,-1
 371 330 l 1,103,-1
 371 335 l 2,104,105
 371 354 371 354 388 358 c 0,106,107
 413 365 413 365 449 365 c 0,108,109
 502 365 502 365 539.5 340 c 128,-1,110
 577 315 577 315 577 263 c 0,111,112
 577 201 577 201 533 175 c 1,113,58
 582 149 582 149 582 92 c 0,59,60
EndSplineSet
Validated: 1
EndChar

StartChar: uni2154
Encoding: 8532 8532 291
Width: 575
Flags: W
LayerCount: 2
Fore
SplineSet
500 548 m 256,1,2
 500 539 500 539 492 531 c 2,3,-1
 138 177 l 2,4,5
 130 169 130 169 122 169 c 0,6,7
 115 169 115 169 105 177 c 2,8,-1
 82 200 l 2,9,10
 74 210 74 210 74 217 c 0,11,12
 74 225 74 225 82 233 c 2,13,-1
 238 389 l 1,14,-1
 55 389 l 2,15,16
 45 389 45 389 37.5 396 c 128,-1,17
 30 403 30 403 30 412 c 2,18,-1
 30 424 l 2,19,20
 30 457 30 457 44.5 483 c 128,-1,21
 59 509 59 509 76.5 525 c 128,-1,22
 94 541 94 541 123 563 c 0,23,24
 160 592 160 592 176.5 611.5 c 128,-1,25
 193 631 193 631 193 657 c 0,26,27
 193 706 193 706 133 706 c 0,28,29
 110 706 110 706 74 695 c 0,30,31
 71 694 71 694 66 694 c 0,32,33
 58 694 58 694 51.5 697.5 c 128,-1,34
 45 701 45 701 43 708 c 2,35,-1
 38 721 l 2,36,37
 36 725 36 725 36 729 c 0,38,39
 36 735 36 735 40.5 741 c 128,-1,40
 45 747 45 747 52 750 c 0,41,42
 88 765 88 765 133 765 c 0,43,44
 186 765 186 765 223 737.5 c 128,-1,45
 260 710 260 710 260 657 c 0,46,47
 260 627 260 627 246 602 c 128,-1,48
 232 577 232 577 213.5 559.5 c 128,-1,49
 195 542 195 542 163 516 c 0,50,51
 135 495 135 495 120 480 c 128,-1,52
 105 465 105 465 100 449 c 1,53,-1
 245 449 l 2,54,55
 255 449 255 449 262 442 c 128,-1,56
 269 435 269 435 269 426 c 2,57,-1
 269 420 l 1,58,-1
 436 587 l 2,59,60
 444 595 444 595 453 595 c 256,61,62
 462 595 462 595 469 587 c 2,63,-1
 492 564 l 2,64,0
 500 557 500 557 500 548 c 256,1,2
582 92 m 0,66,67
 582 37 582 37 542 11 c 128,-1,68
 502 -15 502 -15 447 -15 c 0,69,70
 411 -15 411 -15 383 -8 c 0,71,72
 373 -5 373 -5 368.5 3.5 c 128,-1,73
 364 12 364 12 366 21 c 2,74,-1
 370 35 l 2,75,76
 372 43 372 43 381 47.5 c 128,-1,77
 390 52 390 52 400 50 c 0,78,79
 423 44 423 44 447 44 c 0,80,81
 481 44 481 44 498 55 c 128,-1,82
 515 66 515 66 515 92 c 0,83,84
 515 117 515 117 497 132 c 128,-1,85
 479 147 479 147 450 147 c 2,86,-1
 425 147 l 2,87,88
 415 147 415 147 407.5 154 c 128,-1,89
 400 161 400 161 400 170 c 2,90,-1
 400 183 l 2,91,92
 400 192 400 192 407.5 199 c 128,-1,93
 415 206 415 206 425 206 c 2,94,-1
 450 206 l 2,95,96
 478 206 478 206 494 221.5 c 128,-1,97
 510 237 510 237 510 263 c 0,98,99
 510 286 510 286 495 296 c 128,-1,100
 480 306 480 306 449 306 c 0,101,102
 429 306 429 306 404 301 c 1,103,-1
 405 301 l 2,104,105
 403 300 403 300 399 300 c 0,106,107
 390 300 390 300 383 304.5 c 128,-1,108
 376 309 376 309 375 316 c 2,109,-1
 371 330 l 1,110,-1
 371 335 l 2,111,112
 371 354 371 354 388 358 c 0,113,114
 413 365 413 365 449 365 c 0,115,116
 502 365 502 365 539.5 340 c 128,-1,117
 577 315 577 315 577 263 c 0,118,119
 577 201 577 201 533 175 c 1,120,65
 582 149 582 149 582 92 c 0,66,67
EndSplineSet
Validated: 1
EndChar

StartChar: onequarter
Encoding: 188 188 292
Width: 575
Flags: W
LayerCount: 2
Fore
SplineSet
500 548 m 256,1,2
 500 539 500 539 492 531 c 2,3,-1
 138 177 l 2,4,5
 130 169 130 169 122 169 c 0,6,7
 115 169 115 169 105 177 c 2,8,-1
 82 200 l 2,9,10
 74 210 74 210 74 217 c 0,11,12
 74 225 74 225 82 233 c 2,13,-1
 240 391 l 2,14,15
 238 390 238 390 233 390 c 2,16,-1
 55 390 l 2,17,18
 45 390 45 390 38 397 c 128,-1,19
 31 404 31 404 31 413 c 2,20,-1
 31 426 l 2,21,22
 31 435 31 435 38 442 c 128,-1,23
 45 449 45 449 55 449 c 2,24,-1
 127 449 l 1,25,-1
 127 650 l 1,26,-1
 55 650 l 2,27,28
 45 650 45 650 38 657 c 128,-1,29
 31 664 31 664 31 673 c 2,30,-1
 31 686 l 2,31,32
 31 695 31 695 38 702 c 128,-1,33
 45 709 45 709 55 709 c 0,34,35
 91 709 91 709 108 716 c 128,-1,36
 125 723 125 723 134 744 c 0,37,38
 141 760 141 760 159 760 c 2,39,-1
 169 760 l 2,40,41
 179 760 179 760 186 753.5 c 128,-1,42
 193 747 193 747 193 738 c 2,43,-1
 193 449 l 1,44,-1
 233 449 l 2,45,46
 243 449 243 449 250 442 c 128,-1,47
 257 435 257 435 257 426 c 2,48,-1
 257 413 l 2,49,50
 257 409 257 409 256 407 c 2,51,-1
 436 587 l 2,52,53
 444 595 444 595 453 595 c 256,54,55
 462 595 462 595 469 587 c 2,56,-1
 492 564 l 2,57,0
 500 557 500 557 500 548 c 256,1,2
585 114 m 128,-1,59
 592 107 592 107 592 98 c 2,60,-1
 592 85 l 2,61,62
 592 76 592 76 585 69.5 c 128,-1,63
 578 63 578 63 568 63 c 2,64,-1
 552 63 l 1,65,-1
 552 13 l 2,66,67
 552 4 552 4 545 -3 c 128,-1,68
 538 -10 538 -10 528 -10 c 2,69,-1
 510 -10 l 2,70,71
 500 -10 500 -10 493 -3 c 128,-1,72
 486 4 486 4 486 13 c 2,73,-1
 486 63 l 1,74,-1
 374 63 l 2,75,76
 364 63 364 63 357 69.5 c 128,-1,77
 350 76 350 76 350 85 c 2,78,-1
 350 105 l 2,79,80
 350 116 350 116 354 124 c 2,81,-1
 463 343 l 2,82,83
 467 351 467 351 475 355.5 c 128,-1,84
 483 360 483 360 493 360 c 2,85,-1
 511 360 l 2,86,87
 520 360 520 360 526.5 354 c 128,-1,88
 533 348 533 348 533 340 c 0,89,90
 533 334 533 334 531 331 c 2,91,-1
 426 121 l 1,92,-1
 486 121 l 1,93,-1
 486 196 l 2,94,95
 486 205 486 205 493.5 212 c 128,-1,96
 501 219 501 219 511 219 c 2,97,-1
 528 219 l 2,98,99
 538 219 538 219 545.5 212 c 128,-1,100
 553 205 553 205 553 196 c 2,101,-1
 553 121 l 1,102,-1
 568 121 l 2,103,58
 578 121 578 121 585 114 c 128,-1,59
EndSplineSet
Validated: 1
EndChar

StartChar: threequarters
Encoding: 190 190 293
Width: 575
Flags: W
LayerCount: 2
Fore
SplineSet
46 735 m 2,0,1
 46 754 46 754 63 758 c 0,2,3
 88 765 88 765 124 765 c 0,4,5
 177 765 177 765 214.5 740 c 128,-1,6
 252 715 252 715 252 663 c 0,7,8
 252 601 252 601 208 575 c 1,9,10
 257 549 257 549 257 492 c 0,11,12
 257 437 257 437 217 411 c 128,-1,13
 177 385 177 385 122 385 c 0,14,15
 86 385 86 385 58 392 c 0,16,17
 48 395 48 395 43.5 403.5 c 128,-1,18
 39 412 39 412 41 421 c 2,19,-1
 45 435 l 2,20,21
 47 443 47 443 56 447.5 c 128,-1,22
 65 452 65 452 75 450 c 0,23,24
 98 444 98 444 122 444 c 0,25,26
 156 444 156 444 173 455 c 128,-1,27
 190 466 190 466 190 492 c 0,28,29
 190 517 190 517 172 532 c 128,-1,30
 154 547 154 547 125 547 c 2,31,-1
 100 547 l 2,32,33
 90 547 90 547 82.5 554 c 128,-1,34
 75 561 75 561 75 570 c 2,35,-1
 75 583 l 2,36,37
 75 592 75 592 82.5 599 c 128,-1,38
 90 606 90 606 100 606 c 2,39,-1
 125 606 l 2,40,41
 153 606 153 606 169 621.5 c 128,-1,42
 185 637 185 637 185 663 c 0,43,44
 185 686 185 686 170 696 c 128,-1,45
 155 706 155 706 124 706 c 0,46,47
 104 706 104 706 79 701 c 1,48,-1
 80 701 l 2,49,50
 78 700 78 700 74 700 c 0,51,52
 65 700 65 700 58 704.5 c 128,-1,53
 51 709 51 709 50 716 c 2,54,-1
 46 730 l 1,55,-1
 46 735 l 2,0,1
453 595 m 256,57,58
 462 595 462 595 469 587 c 2,59,-1
 492 564 l 2,60,61
 500 557 500 557 500 548 c 256,62,63
 500 539 500 539 492 531 c 2,64,-1
 138 177 l 2,65,66
 130 169 130 169 122 169 c 0,67,68
 115 169 115 169 105 177 c 2,69,-1
 82 200 l 2,70,71
 74 210 74 210 74 217 c 0,72,73
 74 225 74 225 82 233 c 2,74,-1
 436 587 l 2,75,56
 444 595 444 595 453 595 c 256,57,58
585 114 m 128,-1,77
 592 107 592 107 592 98 c 2,78,-1
 592 85 l 2,79,80
 592 76 592 76 585 69.5 c 128,-1,81
 578 63 578 63 568 63 c 2,82,-1
 552 63 l 1,83,-1
 552 13 l 2,84,85
 552 4 552 4 545 -3 c 128,-1,86
 538 -10 538 -10 528 -10 c 2,87,-1
 510 -10 l 2,88,89
 500 -10 500 -10 493 -3 c 128,-1,90
 486 4 486 4 486 13 c 2,91,-1
 486 63 l 1,92,-1
 374 63 l 2,93,94
 364 63 364 63 357 69.5 c 128,-1,95
 350 76 350 76 350 85 c 2,96,-1
 350 105 l 2,97,98
 350 116 350 116 354 124 c 2,99,-1
 463 343 l 2,100,101
 467 351 467 351 475 355.5 c 128,-1,102
 483 360 483 360 493 360 c 2,103,-1
 511 360 l 2,104,105
 520 360 520 360 526.5 354 c 128,-1,106
 533 348 533 348 533 340 c 0,107,108
 533 334 533 334 531 331 c 2,109,-1
 426 121 l 1,110,-1
 486 121 l 1,111,-1
 486 196 l 2,112,113
 486 205 486 205 493.5 212 c 128,-1,114
 501 219 501 219 511 219 c 2,115,-1
 528 219 l 2,116,117
 538 219 538 219 545.5 212 c 128,-1,118
 553 205 553 205 553 196 c 2,119,-1
 553 121 l 1,120,-1
 568 121 l 2,121,76
 578 121 578 121 585 114 c 128,-1,77
EndSplineSet
Validated: 1
EndChar

StartChar: uni2155
Encoding: 8533 8533 294
Width: 575
Flags: W
LayerCount: 2
Fore
SplineSet
500 548 m 256,1,2
 500 539 500 539 492 531 c 2,3,-1
 138 177 l 2,4,5
 130 169 130 169 122 169 c 0,6,7
 115 169 115 169 105 177 c 2,8,-1
 82 200 l 2,9,10
 74 210 74 210 74 217 c 0,11,12
 74 225 74 225 82 233 c 2,13,-1
 240 391 l 2,14,15
 238 390 238 390 233 390 c 2,16,-1
 55 390 l 2,17,18
 45 390 45 390 38 397 c 128,-1,19
 31 404 31 404 31 413 c 2,20,-1
 31 426 l 2,21,22
 31 435 31 435 38 442 c 128,-1,23
 45 449 45 449 55 449 c 2,24,-1
 127 449 l 1,25,-1
 127 650 l 1,26,-1
 55 650 l 2,27,28
 45 650 45 650 38 657 c 128,-1,29
 31 664 31 664 31 673 c 2,30,-1
 31 686 l 2,31,32
 31 695 31 695 38 702 c 128,-1,33
 45 709 45 709 55 709 c 0,34,35
 91 709 91 709 108 716 c 128,-1,36
 125 723 125 723 134 744 c 0,37,38
 141 760 141 760 159 760 c 2,39,-1
 169 760 l 2,40,41
 179 760 179 760 186 753.5 c 128,-1,42
 193 747 193 747 193 738 c 2,43,-1
 193 449 l 1,44,-1
 233 449 l 2,45,46
 243 449 243 449 250 442 c 128,-1,47
 257 435 257 435 257 426 c 2,48,-1
 257 413 l 2,49,50
 257 409 257 409 256 407 c 2,51,-1
 436 587 l 2,52,53
 444 595 444 595 453 595 c 256,54,55
 462 595 462 595 469 587 c 2,56,-1
 492 564 l 2,57,0
 500 557 500 557 500 548 c 256,1,2
549.5 186 m 128,-1,59
 584 156 584 156 584 101 c 0,60,61
 584 45 584 45 548.5 15 c 128,-1,62
 513 -15 513 -15 448 -15 c 0,63,64
 410 -15 410 -15 385 -8 c 0,65,66
 375 -5 375 -5 370 3.5 c 128,-1,67
 365 12 365 12 367 21 c 2,68,-1
 371 35 l 2,69,70
 374 43 374 43 383.5 47.5 c 128,-1,71
 393 52 393 52 402 50 c 0,72,73
 424 44 424 44 448 44 c 0,74,75
 517 44 517 44 517 101 c 0,76,77
 517 157 517 157 452 157 c 2,78,-1
 420 157 l 2,79,80
 406 157 406 157 396 167 c 2,81,-1
 375 191 l 2,82,83
 364 202 364 202 365 215 c 2,84,-1
 383 340 l 2,85,86
 384 349 384 349 392 354.5 c 128,-1,87
 400 360 400 360 409 360 c 2,88,-1
 546 360 l 2,89,90
 556 360 556 360 563 353.5 c 128,-1,91
 570 347 570 347 570 338 c 2,92,-1
 570 325 l 2,93,94
 570 316 570 316 563 309 c 128,-1,95
 556 302 556 302 546 302 c 2,96,-1
 445 302 l 1,97,-1
 432 216 l 1,98,-1
 452 216 l 2,99,58
 515 216 515 216 549.5 186 c 128,-1,59
EndSplineSet
Validated: 1
EndChar

StartChar: uni2156
Encoding: 8534 8534 295
Width: 575
Flags: W
LayerCount: 2
Fore
SplineSet
500 548 m 256,1,2
 500 539 500 539 492 531 c 2,3,-1
 138 177 l 2,4,5
 130 169 130 169 122 169 c 0,6,7
 115 169 115 169 105 177 c 2,8,-1
 82 200 l 2,9,10
 74 210 74 210 74 217 c 0,11,12
 74 225 74 225 82 233 c 2,13,-1
 238 389 l 1,14,-1
 55 389 l 2,15,16
 45 389 45 389 37.5 396 c 128,-1,17
 30 403 30 403 30 412 c 2,18,-1
 30 424 l 2,19,20
 30 457 30 457 44.5 483 c 128,-1,21
 59 509 59 509 76.5 525 c 128,-1,22
 94 541 94 541 123 563 c 0,23,24
 160 592 160 592 176.5 611.5 c 128,-1,25
 193 631 193 631 193 657 c 0,26,27
 193 706 193 706 133 706 c 0,28,29
 110 706 110 706 74 695 c 0,30,31
 71 694 71 694 66 694 c 0,32,33
 58 694 58 694 51.5 697.5 c 128,-1,34
 45 701 45 701 43 708 c 2,35,-1
 38 721 l 2,36,37
 36 725 36 725 36 729 c 0,38,39
 36 735 36 735 40.5 741 c 128,-1,40
 45 747 45 747 52 750 c 0,41,42
 88 765 88 765 133 765 c 0,43,44
 186 765 186 765 223 737.5 c 128,-1,45
 260 710 260 710 260 657 c 0,46,47
 260 627 260 627 246 602 c 128,-1,48
 232 577 232 577 213.5 559.5 c 128,-1,49
 195 542 195 542 163 516 c 0,50,51
 135 495 135 495 120 480 c 128,-1,52
 105 465 105 465 100 449 c 1,53,-1
 245 449 l 2,54,55
 255 449 255 449 262 442 c 128,-1,56
 269 435 269 435 269 426 c 2,57,-1
 269 420 l 1,58,-1
 436 587 l 2,59,60
 444 595 444 595 453 595 c 256,61,62
 462 595 462 595 469 587 c 2,63,-1
 492 564 l 2,64,0
 500 557 500 557 500 548 c 256,1,2
549.5 186 m 128,-1,66
 584 156 584 156 584 101 c 0,67,68
 584 45 584 45 548.5 15 c 128,-1,69
 513 -15 513 -15 448 -15 c 0,70,71
 410 -15 410 -15 385 -8 c 0,72,73
 375 -5 375 -5 370 3.5 c 128,-1,74
 365 12 365 12 367 21 c 2,75,-1
 371 35 l 2,76,77
 374 43 374 43 383.5 47.5 c 128,-1,78
 393 52 393 52 402 50 c 0,79,80
 424 44 424 44 448 44 c 0,81,82
 517 44 517 44 517 101 c 0,83,84
 517 157 517 157 452 157 c 2,85,-1
 420 157 l 2,86,87
 406 157 406 157 396 167 c 2,88,-1
 375 191 l 2,89,90
 364 202 364 202 365 215 c 2,91,-1
 383 340 l 2,92,93
 384 349 384 349 392 354.5 c 128,-1,94
 400 360 400 360 409 360 c 2,95,-1
 546 360 l 2,96,97
 556 360 556 360 563 353.5 c 128,-1,98
 570 347 570 347 570 338 c 2,99,-1
 570 325 l 2,100,101
 570 316 570 316 563 309 c 128,-1,102
 556 302 556 302 546 302 c 2,103,-1
 445 302 l 1,104,-1
 432 216 l 1,105,-1
 452 216 l 2,106,65
 515 216 515 216 549.5 186 c 128,-1,66
EndSplineSet
Validated: 1
EndChar

StartChar: uni2157
Encoding: 8535 8535 296
Width: 575
Flags: W
LayerCount: 2
Fore
SplineSet
46 735 m 2,0,1
 46 754 46 754 63 758 c 0,2,3
 88 765 88 765 124 765 c 0,4,5
 177 765 177 765 214.5 740 c 128,-1,6
 252 715 252 715 252 663 c 0,7,8
 252 601 252 601 208 575 c 1,9,10
 257 549 257 549 257 492 c 0,11,12
 257 437 257 437 217 411 c 128,-1,13
 177 385 177 385 122 385 c 0,14,15
 86 385 86 385 58 392 c 0,16,17
 48 395 48 395 43.5 403.5 c 128,-1,18
 39 412 39 412 41 421 c 2,19,-1
 45 435 l 2,20,21
 47 443 47 443 56 447.5 c 128,-1,22
 65 452 65 452 75 450 c 0,23,24
 98 444 98 444 122 444 c 0,25,26
 156 444 156 444 173 455 c 128,-1,27
 190 466 190 466 190 492 c 0,28,29
 190 517 190 517 172 532 c 128,-1,30
 154 547 154 547 125 547 c 2,31,-1
 100 547 l 2,32,33
 90 547 90 547 82.5 554 c 128,-1,34
 75 561 75 561 75 570 c 2,35,-1
 75 583 l 2,36,37
 75 592 75 592 82.5 599 c 128,-1,38
 90 606 90 606 100 606 c 2,39,-1
 125 606 l 2,40,41
 153 606 153 606 169 621.5 c 128,-1,42
 185 637 185 637 185 663 c 0,43,44
 185 686 185 686 170 696 c 128,-1,45
 155 706 155 706 124 706 c 0,46,47
 104 706 104 706 79 701 c 1,48,-1
 80 701 l 2,49,50
 78 700 78 700 74 700 c 0,51,52
 65 700 65 700 58 704.5 c 128,-1,53
 51 709 51 709 50 716 c 2,54,-1
 46 730 l 1,55,-1
 46 735 l 2,0,1
453 595 m 256,57,58
 462 595 462 595 469 587 c 2,59,-1
 492 564 l 2,60,61
 500 557 500 557 500 548 c 256,62,63
 500 539 500 539 492 531 c 2,64,-1
 138 177 l 2,65,66
 130 169 130 169 122 169 c 0,67,68
 115 169 115 169 105 177 c 2,69,-1
 82 200 l 2,70,71
 74 210 74 210 74 217 c 0,72,73
 74 225 74 225 82 233 c 2,74,-1
 436 587 l 2,75,56
 444 595 444 595 453 595 c 256,57,58
549.5 186 m 128,-1,77
 584 156 584 156 584 101 c 0,78,79
 584 45 584 45 548.5 15 c 128,-1,80
 513 -15 513 -15 448 -15 c 0,81,82
 410 -15 410 -15 385 -8 c 0,83,84
 375 -5 375 -5 370 3.5 c 128,-1,85
 365 12 365 12 367 21 c 2,86,-1
 371 35 l 2,87,88
 374 43 374 43 383.5 47.5 c 128,-1,89
 393 52 393 52 402 50 c 0,90,91
 424 44 424 44 448 44 c 0,92,93
 517 44 517 44 517 101 c 0,94,95
 517 157 517 157 452 157 c 2,96,-1
 420 157 l 2,97,98
 406 157 406 157 396 167 c 2,99,-1
 375 191 l 2,100,101
 364 202 364 202 365 215 c 2,102,-1
 383 340 l 2,103,104
 384 349 384 349 392 354.5 c 128,-1,105
 400 360 400 360 409 360 c 2,106,-1
 546 360 l 2,107,108
 556 360 556 360 563 353.5 c 128,-1,109
 570 347 570 347 570 338 c 2,110,-1
 570 325 l 2,111,112
 570 316 570 316 563 309 c 128,-1,113
 556 302 556 302 546 302 c 2,114,-1
 445 302 l 1,115,-1
 432 216 l 1,116,-1
 452 216 l 2,117,76
 515 216 515 216 549.5 186 c 128,-1,77
EndSplineSet
Validated: 1
EndChar

StartChar: uni2158
Encoding: 8536 8536 297
Width: 575
Flags: W
LayerCount: 2
Fore
SplineSet
260 514 m 128,-1,1
 267 507 267 507 267 498 c 2,2,-1
 267 485 l 2,3,4
 267 476 267 476 260 469.5 c 128,-1,5
 253 463 253 463 243 463 c 2,6,-1
 227 463 l 1,7,-1
 227 413 l 2,8,9
 227 404 227 404 220 397 c 128,-1,10
 213 390 213 390 203 390 c 2,11,-1
 185 390 l 2,12,13
 175 390 175 390 168 397 c 128,-1,14
 161 404 161 404 161 413 c 2,15,-1
 161 463 l 1,16,-1
 49 463 l 2,17,18
 39 463 39 463 32 469.5 c 128,-1,19
 25 476 25 476 25 485 c 2,20,-1
 25 505 l 2,21,22
 25 516 25 516 29 524 c 2,23,-1
 138 743 l 2,24,25
 142 751 142 751 150 755.5 c 128,-1,26
 158 760 158 760 168 760 c 2,27,-1
 186 760 l 2,28,29
 195 760 195 760 201.5 754 c 128,-1,30
 208 748 208 748 208 740 c 0,31,32
 208 734 208 734 206 731 c 2,33,-1
 101 521 l 1,34,-1
 161 521 l 1,35,-1
 161 596 l 2,36,37
 161 605 161 605 168.5 612 c 128,-1,38
 176 619 176 619 186 619 c 2,39,-1
 203 619 l 2,40,41
 213 619 213 619 220.5 612 c 128,-1,42
 228 605 228 605 228 596 c 2,43,-1
 228 521 l 1,44,-1
 243 521 l 2,45,0
 253 521 253 521 260 514 c 128,-1,1
453 595 m 256,47,48
 462 595 462 595 469 587 c 2,49,-1
 492 564 l 2,50,51
 500 557 500 557 500 548 c 256,52,53
 500 539 500 539 492 531 c 2,54,-1
 138 177 l 2,55,56
 130 169 130 169 122 169 c 0,57,58
 115 169 115 169 105 177 c 2,59,-1
 82 200 l 2,60,61
 74 210 74 210 74 217 c 0,62,63
 74 225 74 225 82 233 c 2,64,-1
 436 587 l 2,65,46
 444 595 444 595 453 595 c 256,47,48
549.5 186 m 128,-1,67
 584 156 584 156 584 101 c 0,68,69
 584 45 584 45 548.5 15 c 128,-1,70
 513 -15 513 -15 448 -15 c 0,71,72
 410 -15 410 -15 385 -8 c 0,73,74
 375 -5 375 -5 370 3.5 c 128,-1,75
 365 12 365 12 367 21 c 2,76,-1
 371 35 l 2,77,78
 374 43 374 43 383.5 47.5 c 128,-1,79
 393 52 393 52 402 50 c 0,80,81
 424 44 424 44 448 44 c 0,82,83
 517 44 517 44 517 101 c 0,84,85
 517 157 517 157 452 157 c 2,86,-1
 420 157 l 2,87,88
 406 157 406 157 396 167 c 2,89,-1
 375 191 l 2,90,91
 364 202 364 202 365 215 c 2,92,-1
 383 340 l 2,93,94
 384 349 384 349 392 354.5 c 128,-1,95
 400 360 400 360 409 360 c 2,96,-1
 546 360 l 2,97,98
 556 360 556 360 563 353.5 c 128,-1,99
 570 347 570 347 570 338 c 2,100,-1
 570 325 l 2,101,102
 570 316 570 316 563 309 c 128,-1,103
 556 302 556 302 546 302 c 2,104,-1
 445 302 l 1,105,-1
 432 216 l 1,106,-1
 452 216 l 2,107,66
 515 216 515 216 549.5 186 c 128,-1,67
EndSplineSet
Validated: 1
EndChar

StartChar: uni2159
Encoding: 8537 8537 298
Width: 575
Flags: W
LayerCount: 2
Fore
SplineSet
500 548 m 256,1,2
 500 539 500 539 492 531 c 2,3,-1
 138 177 l 2,4,5
 130 169 130 169 122 169 c 0,6,7
 115 169 115 169 105 177 c 2,8,-1
 82 200 l 2,9,10
 74 210 74 210 74 217 c 0,11,12
 74 225 74 225 82 233 c 2,13,-1
 240 391 l 2,14,15
 238 390 238 390 233 390 c 2,16,-1
 55 390 l 2,17,18
 45 390 45 390 38 397 c 128,-1,19
 31 404 31 404 31 413 c 2,20,-1
 31 426 l 2,21,22
 31 435 31 435 38 442 c 128,-1,23
 45 449 45 449 55 449 c 2,24,-1
 127 449 l 1,25,-1
 127 650 l 1,26,-1
 55 650 l 2,27,28
 45 650 45 650 38 657 c 128,-1,29
 31 664 31 664 31 673 c 2,30,-1
 31 686 l 2,31,32
 31 695 31 695 38 702 c 128,-1,33
 45 709 45 709 55 709 c 0,34,35
 91 709 91 709 108 716 c 128,-1,36
 125 723 125 723 134 744 c 0,37,38
 141 760 141 760 159 760 c 2,39,-1
 169 760 l 2,40,41
 179 760 179 760 186 753.5 c 128,-1,42
 193 747 193 747 193 738 c 2,43,-1
 193 449 l 1,44,-1
 233 449 l 2,45,46
 243 449 243 449 250 442 c 128,-1,47
 257 435 257 435 257 426 c 2,48,-1
 257 413 l 2,49,50
 257 409 257 409 256 407 c 2,51,-1
 436 587 l 2,52,53
 444 595 444 595 453 595 c 256,54,55
 462 595 462 595 469 587 c 2,56,-1
 492 564 l 2,57,0
 500 557 500 557 500 548 c 256,1,2
556 180.5 m 128,-1,59
 586 151 586 151 586 103 c 0,60,61
 586 47 586 47 555.5 16 c 128,-1,62
 525 -15 525 -15 468 -15 c 0,63,64
 406 -15 406 -15 373.5 28 c 128,-1,65
 341 71 341 71 341 150 c 0,66,67
 341 365 341 365 489 365 c 0,68,69
 515 365 515 365 535 361 c 0,70,71
 546 360 546 360 551.5 351.5 c 128,-1,72
 557 343 557 343 556 334 c 2,73,-1
 553 319 l 2,74,75
 551 312 551 312 542 306.5 c 128,-1,76
 533 301 533 301 523 303 c 0,77,78
 503 306 503 306 489 306 c 0,79,80
 456 306 456 306 436 283 c 128,-1,81
 416 260 416 260 410 200 c 1,82,83
 447 210 447 210 477 210 c 0,84,58
 526 210 526 210 556 180.5 c 128,-1,59
507.5 57 m 128,-1,86
 519 70 519 70 519 103 c 0,87,88
 519 125 519 125 508 138 c 128,-1,89
 497 151 497 151 477 151 c 0,90,91
 448 151 448 151 408 137 c 1,92,93
 409 87 409 87 424 65.5 c 128,-1,94
 439 44 439 44 468 44 c 0,95,85
 496 44 496 44 507.5 57 c 128,-1,86
EndSplineSet
Validated: 1
EndChar

StartChar: uni215A
Encoding: 8538 8538 299
Width: 575
Flags: W
LayerCount: 2
Fore
SplineSet
224.5 586 m 128,-1,1
 259 556 259 556 259 501 c 0,2,3
 259 445 259 445 223.5 415 c 128,-1,4
 188 385 188 385 123 385 c 0,5,6
 85 385 85 385 60 392 c 0,7,8
 50 395 50 395 45 403.5 c 128,-1,9
 40 412 40 412 42 421 c 2,10,-1
 46 435 l 2,11,12
 49 443 49 443 58.5 447.5 c 128,-1,13
 68 452 68 452 77 450 c 0,14,15
 99 444 99 444 123 444 c 0,16,17
 192 444 192 444 192 501 c 0,18,19
 192 557 192 557 127 557 c 2,20,-1
 95 557 l 2,21,22
 81 557 81 557 71 567 c 2,23,-1
 50 591 l 2,24,25
 39 602 39 602 40 615 c 2,26,-1
 58 740 l 2,27,28
 59 749 59 749 67 754.5 c 128,-1,29
 75 760 75 760 84 760 c 2,30,-1
 221 760 l 2,31,32
 231 760 231 760 238 753.5 c 128,-1,33
 245 747 245 747 245 738 c 2,34,-1
 245 725 l 2,35,36
 245 716 245 716 238 709 c 128,-1,37
 231 702 231 702 221 702 c 2,38,-1
 120 702 l 1,39,-1
 107 616 l 1,40,-1
 127 616 l 2,41,0
 190 616 190 616 224.5 586 c 128,-1,1
453 595 m 256,43,44
 462 595 462 595 469 587 c 2,45,-1
 492 564 l 2,46,47
 500 557 500 557 500 548 c 256,48,49
 500 539 500 539 492 531 c 2,50,-1
 138 177 l 2,51,52
 130 169 130 169 122 169 c 0,53,54
 115 169 115 169 105 177 c 2,55,-1
 82 200 l 2,56,57
 74 210 74 210 74 217 c 0,58,59
 74 225 74 225 82 233 c 2,60,-1
 436 587 l 2,61,42
 444 595 444 595 453 595 c 256,43,44
542 306.5 m 128,-1,63
 533 301 533 301 523 303 c 0,64,65
 503 306 503 306 489 306 c 0,66,67
 456 306 456 306 436 283 c 128,-1,68
 416 260 416 260 410 200 c 1,69,70
 447 210 447 210 477 210 c 0,71,72
 526 210 526 210 556 180.5 c 128,-1,73
 586 151 586 151 586 103 c 0,74,75
 586 47 586 47 555.5 16 c 128,-1,76
 525 -15 525 -15 468 -15 c 0,77,78
 406 -15 406 -15 373.5 28 c 128,-1,79
 341 71 341 71 341 150 c 0,80,81
 341 365 341 365 489 365 c 0,82,83
 515 365 515 365 535 361 c 0,84,85
 546 360 546 360 551.5 351.5 c 128,-1,86
 557 343 557 343 556 334 c 2,87,-1
 553 319 l 2,88,62
 551 312 551 312 542 306.5 c 128,-1,63
507.5 57 m 128,-1,90
 519 70 519 70 519 103 c 0,91,92
 519 125 519 125 508 138 c 128,-1,93
 497 151 497 151 477 151 c 0,94,95
 448 151 448 151 408 137 c 1,96,97
 409 87 409 87 424 65.5 c 128,-1,98
 439 44 439 44 468 44 c 0,99,89
 496 44 496 44 507.5 57 c 128,-1,90
EndSplineSet
Validated: 1
EndChar

StartChar: uni2150
Encoding: 8528 8528 300
Width: 575
Flags: W
LayerCount: 2
Fore
SplineSet
500 548 m 256,1,2
 500 539 500 539 492 531 c 2,3,-1
 138 177 l 2,4,5
 130 169 130 169 122 169 c 0,6,7
 115 169 115 169 105 177 c 2,8,-1
 82 200 l 2,9,10
 74 210 74 210 74 217 c 0,11,12
 74 225 74 225 82 233 c 2,13,-1
 240 391 l 2,14,15
 238 390 238 390 233 390 c 2,16,-1
 55 390 l 2,17,18
 45 390 45 390 38 397 c 128,-1,19
 31 404 31 404 31 413 c 2,20,-1
 31 426 l 2,21,22
 31 435 31 435 38 442 c 128,-1,23
 45 449 45 449 55 449 c 2,24,-1
 127 449 l 1,25,-1
 127 650 l 1,26,-1
 55 650 l 2,27,28
 45 650 45 650 38 657 c 128,-1,29
 31 664 31 664 31 673 c 2,30,-1
 31 686 l 2,31,32
 31 695 31 695 38 702 c 128,-1,33
 45 709 45 709 55 709 c 0,34,35
 91 709 91 709 108 716 c 128,-1,36
 125 723 125 723 134 744 c 0,37,38
 141 760 141 760 159 760 c 2,39,-1
 169 760 l 2,40,41
 179 760 179 760 186 753.5 c 128,-1,42
 193 747 193 747 193 738 c 2,43,-1
 193 449 l 1,44,-1
 233 449 l 2,45,46
 243 449 243 449 250 442 c 128,-1,47
 257 435 257 435 257 426 c 2,48,-1
 257 413 l 2,49,50
 257 409 257 409 256 407 c 2,51,-1
 436 587 l 2,52,53
 444 595 444 595 453 595 c 256,54,55
 462 595 462 595 469 587 c 2,56,-1
 492 564 l 2,57,0
 500 557 500 557 500 548 c 256,1,2
588 353.5 m 128,-1,59
 595 347 595 347 595 338 c 2,60,-1
 595 313 l 2,61,62
 595 292 595 292 589.5 272.5 c 128,-1,63
 584 253 584 253 571 228 c 2,64,-1
 522 135 l 2,65,66
 488 73 488 73 488 12 c 0,67,68
 488 3 488 3 481 -3.5 c 128,-1,69
 474 -10 474 -10 463 -10 c 2,70,-1
 446 -10 l 2,71,72
 436 -10 436 -10 429 -3.5 c 128,-1,73
 422 3 422 3 422 12 c 0,74,75
 422 73 422 73 464 160 c 2,76,-1
 509 250 l 2,77,78
 526 282 526 282 527 302 c 1,79,-1
 422 302 l 1,80,-1
 422 259 l 2,81,82
 422 250 422 250 415 243.5 c 128,-1,83
 408 237 408 237 398 237 c 2,84,-1
 380 237 l 2,85,86
 370 237 370 237 363 243.5 c 128,-1,87
 356 250 356 250 356 259 c 2,88,-1
 356 338 l 2,89,90
 356 347 356 347 363 353.5 c 128,-1,91
 370 360 370 360 380 360 c 2,92,-1
 571 360 l 2,93,58
 581 360 581 360 588 353.5 c 128,-1,59
EndSplineSet
Validated: 1
EndChar

StartChar: oneeighth
Encoding: 8539 8539 301
Width: 575
Flags: W
LayerCount: 2
Fore
SplineSet
500 548 m 256,1,2
 500 539 500 539 492 531 c 2,3,-1
 138 177 l 2,4,5
 130 169 130 169 122 169 c 0,6,7
 115 169 115 169 105 177 c 2,8,-1
 82 200 l 2,9,10
 74 210 74 210 74 217 c 0,11,12
 74 225 74 225 82 233 c 2,13,-1
 240 391 l 2,14,15
 238 390 238 390 233 390 c 2,16,-1
 55 390 l 2,17,18
 45 390 45 390 38 397 c 128,-1,19
 31 404 31 404 31 413 c 2,20,-1
 31 426 l 2,21,22
 31 435 31 435 38 442 c 128,-1,23
 45 449 45 449 55 449 c 2,24,-1
 127 449 l 1,25,-1
 127 650 l 1,26,-1
 55 650 l 2,27,28
 45 650 45 650 38 657 c 128,-1,29
 31 664 31 664 31 673 c 2,30,-1
 31 686 l 2,31,32
 31 695 31 695 38 702 c 128,-1,33
 45 709 45 709 55 709 c 0,34,35
 91 709 91 709 108 716 c 128,-1,36
 125 723 125 723 134 744 c 0,37,38
 141 760 141 760 159 760 c 2,39,-1
 169 760 l 2,40,41
 179 760 179 760 186 753.5 c 128,-1,42
 193 747 193 747 193 738 c 2,43,-1
 193 449 l 1,44,-1
 233 449 l 2,45,46
 243 449 243 449 250 442 c 128,-1,47
 257 435 257 435 257 426 c 2,48,-1
 257 413 l 2,49,50
 257 409 257 409 256 407 c 2,51,-1
 436 587 l 2,52,53
 444 595 444 595 453 595 c 256,54,55
 462 595 462 595 469 587 c 2,56,-1
 492 564 l 2,57,0
 500 557 500 557 500 548 c 256,1,2
579.5 139.5 m 128,-1,59
 597 117 597 117 597 85 c 0,60,61
 597 38 597 38 563.5 11.5 c 128,-1,62
 530 -15 530 -15 469 -15 c 256,63,64
 408 -15 408 -15 375 11 c 128,-1,65
 342 37 342 37 342 84 c 0,66,67
 342 112 342 112 359 134.5 c 128,-1,68
 376 157 376 157 410 179 c 1,69,70
 353 214 353 214 353 273 c 0,71,72
 353 317 353 317 383.5 341 c 128,-1,73
 414 365 414 365 469 365 c 256,74,75
 524 365 524 365 554.5 341.5 c 128,-1,76
 585 318 585 318 585 274 c 0,77,78
 585 222 585 222 531 181 c 1,79,58
 562 162 562 162 579.5 139.5 c 128,-1,59
420 273 m 0,81,82
 420 252 420 252 434 238.5 c 128,-1,83
 448 225 448 225 477 209 c 1,84,85
 518 243 518 243 518 273 c 0,86,87
 518 307 518 307 469 307 c 256,88,80
 420 307 420 307 420 273 c 0,81,82
530 87 m 0,90,91
 530 110 530 110 514.5 123 c 128,-1,92
 499 136 499 136 465 151 c 1,93,94
 435 135 435 135 421.5 121 c 128,-1,95
 408 107 408 107 408 88 c 0,96,97
 408 44 408 44 469 44 c 256,98,89
 530 44 530 44 530 87 c 0,90,91
EndSplineSet
Validated: 1
EndChar

StartChar: threeeighths
Encoding: 8540 8540 302
Width: 575
Flags: W
LayerCount: 2
Fore
SplineSet
46 735 m 2,0,1
 46 754 46 754 63 758 c 0,2,3
 88 765 88 765 124 765 c 0,4,5
 177 765 177 765 214.5 740 c 128,-1,6
 252 715 252 715 252 663 c 0,7,8
 252 601 252 601 208 575 c 1,9,10
 257 549 257 549 257 492 c 0,11,12
 257 437 257 437 217 411 c 128,-1,13
 177 385 177 385 122 385 c 0,14,15
 86 385 86 385 58 392 c 0,16,17
 48 395 48 395 43.5 403.5 c 128,-1,18
 39 412 39 412 41 421 c 2,19,-1
 45 435 l 2,20,21
 47 443 47 443 56 447.5 c 128,-1,22
 65 452 65 452 75 450 c 0,23,24
 98 444 98 444 122 444 c 0,25,26
 156 444 156 444 173 455 c 128,-1,27
 190 466 190 466 190 492 c 0,28,29
 190 517 190 517 172 532 c 128,-1,30
 154 547 154 547 125 547 c 2,31,-1
 100 547 l 2,32,33
 90 547 90 547 82.5 554 c 128,-1,34
 75 561 75 561 75 570 c 2,35,-1
 75 583 l 2,36,37
 75 592 75 592 82.5 599 c 128,-1,38
 90 606 90 606 100 606 c 2,39,-1
 125 606 l 2,40,41
 153 606 153 606 169 621.5 c 128,-1,42
 185 637 185 637 185 663 c 0,43,44
 185 686 185 686 170 696 c 128,-1,45
 155 706 155 706 124 706 c 0,46,47
 104 706 104 706 79 701 c 1,48,-1
 80 701 l 2,49,50
 78 700 78 700 74 700 c 0,51,52
 65 700 65 700 58 704.5 c 128,-1,53
 51 709 51 709 50 716 c 2,54,-1
 46 730 l 1,55,-1
 46 735 l 2,0,1
453 595 m 256,57,58
 462 595 462 595 469 587 c 2,59,-1
 492 564 l 2,60,61
 500 557 500 557 500 548 c 256,62,63
 500 539 500 539 492 531 c 2,64,-1
 138 177 l 2,65,66
 130 169 130 169 122 169 c 0,67,68
 115 169 115 169 105 177 c 2,69,-1
 82 200 l 2,70,71
 74 210 74 210 74 217 c 0,72,73
 74 225 74 225 82 233 c 2,74,-1
 436 587 l 2,75,56
 444 595 444 595 453 595 c 256,57,58
579.5 139.5 m 128,-1,77
 597 117 597 117 597 85 c 0,78,79
 597 38 597 38 563.5 11.5 c 128,-1,80
 530 -15 530 -15 469 -15 c 256,81,82
 408 -15 408 -15 375 11 c 128,-1,83
 342 37 342 37 342 84 c 0,84,85
 342 112 342 112 359 134.5 c 128,-1,86
 376 157 376 157 410 179 c 1,87,88
 353 214 353 214 353 273 c 0,89,90
 353 317 353 317 383.5 341 c 128,-1,91
 414 365 414 365 469 365 c 256,92,93
 524 365 524 365 554.5 341.5 c 128,-1,94
 585 318 585 318 585 274 c 0,95,96
 585 222 585 222 531 181 c 1,97,76
 562 162 562 162 579.5 139.5 c 128,-1,77
434 238.5 m 128,-1,99
 448 225 448 225 477 209 c 1,100,101
 518 243 518 243 518 273 c 0,102,103
 518 307 518 307 469 307 c 256,104,105
 420 307 420 307 420 273 c 0,106,98
 420 252 420 252 434 238.5 c 128,-1,99
530 87 m 0,108,109
 530 110 530 110 514.5 123 c 128,-1,110
 499 136 499 136 465 151 c 1,111,112
 435 135 435 135 421.5 121 c 128,-1,113
 408 107 408 107 408 88 c 0,114,115
 408 44 408 44 469 44 c 256,116,107
 530 44 530 44 530 87 c 0,108,109
EndSplineSet
Validated: 1
EndChar

StartChar: fiveeighths
Encoding: 8541 8541 303
Width: 575
Flags: W
LayerCount: 2
Fore
SplineSet
224.5 586 m 128,-1,1
 259 556 259 556 259 501 c 0,2,3
 259 445 259 445 223.5 415 c 128,-1,4
 188 385 188 385 123 385 c 0,5,6
 85 385 85 385 60 392 c 0,7,8
 50 395 50 395 45 403.5 c 128,-1,9
 40 412 40 412 42 421 c 2,10,-1
 46 435 l 2,11,12
 49 443 49 443 58.5 447.5 c 128,-1,13
 68 452 68 452 77 450 c 0,14,15
 99 444 99 444 123 444 c 0,16,17
 192 444 192 444 192 501 c 0,18,19
 192 557 192 557 127 557 c 2,20,-1
 95 557 l 2,21,22
 81 557 81 557 71 567 c 2,23,-1
 50 591 l 2,24,25
 39 602 39 602 40 615 c 2,26,-1
 58 740 l 2,27,28
 59 749 59 749 67 754.5 c 128,-1,29
 75 760 75 760 84 760 c 2,30,-1
 221 760 l 2,31,32
 231 760 231 760 238 753.5 c 128,-1,33
 245 747 245 747 245 738 c 2,34,-1
 245 725 l 2,35,36
 245 716 245 716 238 709 c 128,-1,37
 231 702 231 702 221 702 c 2,38,-1
 120 702 l 1,39,-1
 107 616 l 1,40,-1
 127 616 l 2,41,0
 190 616 190 616 224.5 586 c 128,-1,1
453 595 m 256,43,44
 462 595 462 595 469 587 c 2,45,-1
 492 564 l 2,46,47
 500 557 500 557 500 548 c 256,48,49
 500 539 500 539 492 531 c 2,50,-1
 138 177 l 2,51,52
 130 169 130 169 122 169 c 0,53,54
 115 169 115 169 105 177 c 2,55,-1
 82 200 l 2,56,57
 74 210 74 210 74 217 c 0,58,59
 74 225 74 225 82 233 c 2,60,-1
 436 587 l 2,61,42
 444 595 444 595 453 595 c 256,43,44
579.5 139.5 m 128,-1,63
 597 117 597 117 597 85 c 0,64,65
 597 38 597 38 563.5 11.5 c 128,-1,66
 530 -15 530 -15 469 -15 c 256,67,68
 408 -15 408 -15 375 11 c 128,-1,69
 342 37 342 37 342 84 c 0,70,71
 342 112 342 112 359 134.5 c 128,-1,72
 376 157 376 157 410 179 c 1,73,74
 353 214 353 214 353 273 c 0,75,76
 353 317 353 317 383.5 341 c 128,-1,77
 414 365 414 365 469 365 c 256,78,79
 524 365 524 365 554.5 341.5 c 128,-1,80
 585 318 585 318 585 274 c 0,81,82
 585 222 585 222 531 181 c 1,83,62
 562 162 562 162 579.5 139.5 c 128,-1,63
434 238.5 m 128,-1,85
 448 225 448 225 477 209 c 1,86,87
 518 243 518 243 518 273 c 0,88,89
 518 307 518 307 469 307 c 256,90,91
 420 307 420 307 420 273 c 0,92,84
 420 252 420 252 434 238.5 c 128,-1,85
530 87 m 0,94,95
 530 110 530 110 514.5 123 c 128,-1,96
 499 136 499 136 465 151 c 1,97,98
 435 135 435 135 421.5 121 c 128,-1,99
 408 107 408 107 408 88 c 0,100,101
 408 44 408 44 469 44 c 256,102,93
 530 44 530 44 530 87 c 0,94,95
EndSplineSet
Validated: 1
EndChar

StartChar: seveneighths
Encoding: 8542 8542 304
Width: 575
Flags: W
LayerCount: 2
Fore
SplineSet
263 753.5 m 128,-1,1
 270 747 270 747 270 738 c 2,2,-1
 270 713 l 2,3,4
 270 692 270 692 264.5 672.5 c 128,-1,5
 259 653 259 653 246 628 c 2,6,-1
 197 535 l 2,7,8
 163 473 163 473 163 412 c 0,9,10
 163 403 163 403 156 396.5 c 128,-1,11
 149 390 149 390 138 390 c 2,12,-1
 121 390 l 2,13,14
 111 390 111 390 104 396.5 c 128,-1,15
 97 403 97 403 97 412 c 0,16,17
 97 473 97 473 139 560 c 2,18,-1
 184 650 l 2,19,20
 201 682 201 682 202 702 c 1,21,-1
 97 702 l 1,22,-1
 97 659 l 2,23,24
 97 650 97 650 90 643.5 c 128,-1,25
 83 637 83 637 73 637 c 2,26,-1
 55 637 l 2,27,28
 45 637 45 637 38 643.5 c 128,-1,29
 31 650 31 650 31 659 c 2,30,-1
 31 738 l 2,31,32
 31 747 31 747 38 753.5 c 128,-1,33
 45 760 45 760 55 760 c 2,34,-1
 246 760 l 2,35,0
 256 760 256 760 263 753.5 c 128,-1,1
453 595 m 256,37,38
 462 595 462 595 469 587 c 2,39,-1
 492 564 l 2,40,41
 500 557 500 557 500 548 c 256,42,43
 500 539 500 539 492 531 c 2,44,-1
 138 177 l 2,45,46
 130 169 130 169 122 169 c 0,47,48
 115 169 115 169 105 177 c 2,49,-1
 82 200 l 2,50,51
 74 210 74 210 74 217 c 0,52,53
 74 225 74 225 82 233 c 2,54,-1
 436 587 l 2,55,36
 444 595 444 595 453 595 c 256,37,38
579.5 139.5 m 128,-1,57
 597 117 597 117 597 85 c 0,58,59
 597 38 597 38 563.5 11.5 c 128,-1,60
 530 -15 530 -15 469 -15 c 256,61,62
 408 -15 408 -15 375 11 c 128,-1,63
 342 37 342 37 342 84 c 0,64,65
 342 112 342 112 359 134.5 c 128,-1,66
 376 157 376 157 410 179 c 1,67,68
 353 214 353 214 353 273 c 0,69,70
 353 317 353 317 383.5 341 c 128,-1,71
 414 365 414 365 469 365 c 256,72,73
 524 365 524 365 554.5 341.5 c 128,-1,74
 585 318 585 318 585 274 c 0,75,76
 585 222 585 222 531 181 c 1,77,56
 562 162 562 162 579.5 139.5 c 128,-1,57
434 238.5 m 128,-1,79
 448 225 448 225 477 209 c 1,80,81
 518 243 518 243 518 273 c 0,82,83
 518 307 518 307 469 307 c 256,84,85
 420 307 420 307 420 273 c 0,86,78
 420 252 420 252 434 238.5 c 128,-1,79
530 87 m 0,88,89
 530 110 530 110 514.5 123 c 128,-1,90
 499 136 499 136 465 151 c 1,91,92
 435 135 435 135 421.5 121 c 128,-1,93
 408 107 408 107 408 88 c 0,94,95
 408 44 408 44 469 44 c 256,96,87
 530 44 530 44 530 87 c 0,88,89
EndSplineSet
Validated: 1
EndChar

